<svg xmlns="http://www.w3.org/2000/svg" xmlns:xlink="http://www.w3.org/1999/xlink" width="156.256" height="156.256" viewBox="0 0 156.256 156.256"><defs><clipPath id="a"><path d="M243,506h21.8v7.668H243Zm0,0" transform="translate(-243 -506)"/></clipPath><clipPath id="b"><path d="M347,506h21.992v7.668H347Zm0,0" transform="translate(-347 -506)"/></clipPath><clipPath id="c"><path d="M454,343h21.8v6.945H454Zm0,0" transform="translate(-454 -343)"/></clipPath><clipPath id="d"><path d="M454,357h21.8v7.716H454Zm0,0" transform="translate(-454 -357)"/></clipPath><clipPath id="e"><path d="M454,377h21.8v7.716H454Zm0,0" transform="translate(-454 -377)"/></clipPath><clipPath id="f"><path d="M454,394h21.8v7.716H454Zm0,0" transform="translate(-454 -394)"/></clipPath><clipPath id="g"><path d="M454,411h21.8v7.716H454Zm0,0" transform="translate(-454 -411)"/></clipPath><clipPath id="h"><path d="M454,428h21.8v7.716H454Zm0,0" transform="translate(-454 -428)"/></clipPath><clipPath id="i"><path d="M454,449h21.8v7.716H454Zm0,0" transform="translate(-454 -449)"/></clipPath><clipPath id="j"><path d="M454,469h21.8v7.716H454Zm0,0" transform="translate(-454 -469)"/></clipPath><clipPath id="k"><path d="M454,487h21.8v7.909H454Zm0,0" transform="translate(-454 -487)"/></clipPath><clipPath id="l"><path d="M454,506h21.8v7.668H454Zm0,0" transform="translate(-454 -506)"/></clipPath><clipPath id="m"><path d="M422,264.5h10.61v10.706H422Zm0,0" transform="translate(-422 -264.5)"/></clipPath></defs><path d="M78.128,0a78.128,78.128,0,1,0,78.128,78.128A78.128,78.128,0,0,0,78.128,0" transform="translate(0)" fill="#fff"/><path d="M484.2,382.128V379h-.158a.864.864,0,0,0,.158-.409v-3.13h-.158a.871.871,0,0,0,.158-.409V363.067l-.064,0a.8.8,0,0,0,.064-.245v-3.13h-.023a.713.713,0,0,0,.024-.172c0-1.33-3.744-2.409-8.364-2.409s-8.362,1.079-8.362,2.409c0,.025,0,.049.005.074h0v3.171a.706.706,0,0,0,.032.2h-.032v12.023a.777.777,0,0,0,.1.368h-.1v3.171a.779.779,0,0,0,.1.369h-.1v9.465c0,1.331,3.745,2.41,8.363,2.41,4.552,0,8.256-1.048,8.361-2.353v-3.131h0c0-.005,0-.01,0-.017v-3.13h0c0-.005,0-.01,0-.017" transform="translate(-377.297 -288.22)" fill="#49b7dd"/><path d="M376.318,393.781c0-1.338-3.925-2.422-8.767-2.422s-8.766,1.084-8.766,2.422c0,.024,0,.048.006.073h0v3.186a.7.7,0,0,0,.033.207h-.033v12.077a.759.759,0,0,0,.1.371h-.1v3.187a.76.76,0,0,0,.1.371h-.1v3.187c0,1.336,3.923,2.42,8.765,2.42,4.772,0,8.655-1.053,8.763-2.365v-3.143h-.163a.827.827,0,0,0,.163-.411v-3.145h-.163a.824.824,0,0,0,.163-.413V397.345h-.065a.713.713,0,0,0,.065-.247v-3.144h-.023a.691.691,0,0,0,.025-.173" transform="translate(-289.572 -315.863)" fill="#49b7dd"/><path d="M272.548,437.431c0-1.265-3.765-2.29-8.409-2.29s-8.409,1.026-8.409,2.29a.468.468,0,0,0,.007.071h-.007v3.016a.622.622,0,0,0,.033.194h-.033v11.432c0,1.265,3.766,2.292,8.409,2.292,4.579,0,8.3-1,8.407-2.237V440.805h-.064a.7.7,0,0,0,.064-.234V437.6h-.021a.689.689,0,0,0,.023-.164" transform="translate(-206.398 -351.199)" fill="#49b7dd"/><path d="M173.329-290.035c0,1.491-4.566,2.7-10.2,2.7s-10.2-1.208-10.2-2.7,4.566-2.7,10.2-2.7S173.329-291.525,173.329-290.035Zm0,0" transform="translate(-105.39 374.583)" fill="none" stroke="#061a33" stroke-linecap="round" stroke-linejoin="round" stroke-miterlimit="10" stroke-width="2"/><path d="M173.326-278.207v3.505c-.127,1.461-4.643,2.634-10.195,2.634-5.63,0-10.2-1.206-10.2-2.7v-3.552" transform="translate(-105.39 362.949)" fill="none" stroke="#061a33" stroke-linecap="round" stroke-linejoin="round" stroke-miterlimit="10" stroke-width="2"/><path d="M173.326-258.6v3.506c-.127,1.46-4.643,2.634-10.195,2.634-5.63,0-10.2-1.207-10.2-2.7v-3.551" transform="translate(-105.39 347.127)" fill="none" stroke="#061a33" stroke-linecap="round" stroke-linejoin="round" stroke-miterlimit="10" stroke-width="2"/><path d="M173.326-241.48v3.507c-.127,1.46-4.643,2.634-10.195,2.634-5.63,0-10.2-1.209-10.2-2.7v-3.551" transform="translate(-105.39 333.306)" fill="none" stroke="#061a33" stroke-linecap="round" stroke-linejoin="round" stroke-miterlimit="10" stroke-width="2"/><path d="M173.326-224.354v3.505c-.127,1.462-4.643,2.635-10.195,2.635-5.63,0-10.2-1.208-10.2-2.7v-3.554" transform="translate(-105.39 319.485)" fill="none" stroke="#061a33" stroke-linecap="round" stroke-linejoin="round" stroke-miterlimit="10" stroke-width="2"/><g transform="translate(46.877 97.612)" clip-path="url(#a)"><path d="M173.326-207.222v3.5c-.127,1.461-4.643,2.636-10.195,2.636-5.63,0-10.2-1.209-10.2-2.7v-3.552" transform="translate(-152.267 208.046)" fill="none" stroke="#061a33" stroke-linecap="round" stroke-linejoin="round" stroke-miterlimit="10" stroke-width="2"/></g><path d="M278.23-331.142c0,1.491-4.566,2.7-10.2,2.7s-10.2-1.208-10.2-2.7,4.567-2.7,10.2-2.7S278.23-332.632,278.23-331.142Zm0,0" transform="translate(-190.053 407.761)" fill="none" stroke="#061a33" stroke-linecap="round" stroke-linejoin="round" stroke-miterlimit="10" stroke-width="2"/><path d="M278.238-319.316v3.5c-.128,1.461-4.644,2.636-10.195,2.636-5.632,0-10.2-1.209-10.2-2.7v-3.552" transform="translate(-190.063 396.128)" fill="none" stroke="#061a33" stroke-linecap="round" stroke-linejoin="round" stroke-miterlimit="10" stroke-width="2"/><path d="M278.238-299.716v3.506c-.128,1.461-4.644,2.634-10.195,2.634-5.632,0-10.2-1.207-10.2-2.7v-3.552" transform="translate(-190.063 380.308)" fill="none" stroke="#061a33" stroke-linecap="round" stroke-linejoin="round" stroke-miterlimit="10" stroke-width="2"/><path d="M278.238-282.587v3.5c-.128,1.461-4.644,2.635-10.195,2.635-5.632,0-10.2-1.208-10.2-2.7V-282.7" transform="translate(-190.063 366.484)" fill="none" stroke="#061a33" stroke-linecap="round" stroke-linejoin="round" stroke-miterlimit="10" stroke-width="2"/><path d="M278.238-265.456v3.506c-.128,1.46-4.644,2.634-10.195,2.634-5.632,0-10.2-1.208-10.2-2.7v-3.551" transform="translate(-190.063 352.656)" fill="none" stroke="#061a33" stroke-linecap="round" stroke-linejoin="round" stroke-miterlimit="10" stroke-width="2"/><path d="M278.238-248.329v3.505c-.128,1.461-4.644,2.634-10.195,2.634-5.632,0-10.2-1.206-10.2-2.7v-3.552" transform="translate(-190.063 338.835)" fill="none" stroke="#061a33" stroke-linecap="round" stroke-linejoin="round" stroke-miterlimit="10" stroke-width="2"/><path d="M278.238-227.779v3.5c-.128,1.461-4.644,2.635-10.195,2.635-5.632,0-10.2-1.208-10.2-2.7v-3.553" transform="translate(-190.063 322.249)" fill="none" stroke="#061a33" stroke-linecap="round" stroke-linejoin="round" stroke-miterlimit="10" stroke-width="2"/><g transform="translate(66.939 97.612)" clip-path="url(#b)"><path d="M278.238-207.222v3.5c-.128,1.461-4.644,2.636-10.195,2.636-5.632,0-10.2-1.209-10.2-2.7v-3.552" transform="translate(-257.002 208.046)" fill="none" stroke="#061a33" stroke-linecap="round" stroke-linejoin="round" stroke-miterlimit="10" stroke-width="2"/></g><g transform="translate(87.58 66.168)" clip-path="url(#c)"><path d="M384.827-367.68c0,1.49-4.566,2.7-10.2,2.7s-10.2-1.208-10.2-2.7,4.567-2.7,10.2-2.7S384.827-369.171,384.827-367.68Zm0,0" transform="translate(-363.668 371.083)" fill="none" stroke="#061a33" stroke-linecap="round" stroke-linejoin="round" stroke-miterlimit="10" stroke-width="2"/></g><g transform="translate(87.58 68.868)" clip-path="url(#d)"><path d="M384.835-355.852v3.505c-.127,1.461-4.643,2.635-10.194,2.635-5.632,0-10.2-1.208-10.2-2.7v-3.552" transform="translate(-363.677 356.746)" fill="none" stroke="#061a33" stroke-linecap="round" stroke-linejoin="round" stroke-miterlimit="10" stroke-width="2"/></g><g transform="translate(87.58 72.726)" clip-path="url(#e)"><path d="M384.835-336.256v3.5c-.127,1.461-4.643,2.635-10.194,2.635-5.632,0-10.2-1.208-10.2-2.7v-3.553" transform="translate(-363.677 337.074)" fill="none" stroke="#061a33" stroke-linecap="round" stroke-linejoin="round" stroke-miterlimit="10" stroke-width="2"/></g><g transform="translate(87.58 76.006)" clip-path="url(#f)"><path d="M384.835-319.128v3.506c-.127,1.46-4.643,2.634-10.194,2.634-5.632,0-10.2-1.209-10.2-2.7v-3.553" transform="translate(-363.677 319.97)" fill="none" stroke="#061a33" stroke-linecap="round" stroke-linejoin="round" stroke-miterlimit="10" stroke-width="2"/></g><g transform="translate(87.58 79.285)" clip-path="url(#g)"><path d="M384.835-302v3.507c-.127,1.461-4.643,2.634-10.194,2.634-5.632,0-10.2-1.208-10.2-2.7v-3.551" transform="translate(-363.677 302.863)" fill="none" stroke="#061a33" stroke-linecap="round" stroke-linejoin="round" stroke-miterlimit="10" stroke-width="2"/></g><g transform="translate(87.58 82.565)" clip-path="url(#h)"><path d="M384.835-284.872v3.505c-.127,1.461-4.643,2.634-10.194,2.634-5.632,0-10.2-1.207-10.2-2.7v-3.552" transform="translate(-363.677 285.764)" fill="none" stroke="#061a33" stroke-linecap="round" stroke-linejoin="round" stroke-miterlimit="10" stroke-width="2"/></g><g transform="translate(87.58 86.616)" clip-path="url(#i)"><path d="M384.835-264.314v3.5c-.127,1.462-4.643,2.635-10.194,2.635-5.632,0-10.2-1.208-10.2-2.7v-3.552" transform="translate(-363.677 265.12)" fill="none" stroke="#061a33" stroke-linecap="round" stroke-linejoin="round" stroke-miterlimit="10" stroke-width="2"/></g><g transform="translate(87.58 90.474)" clip-path="url(#j)"><path d="M384.835-243.76v3.506c-.127,1.46-4.643,2.635-10.194,2.635-5.632,0-10.2-1.21-10.2-2.7v-3.551" transform="translate(-363.677 244.672)" fill="none" stroke="#061a33" stroke-linecap="round" stroke-linejoin="round" stroke-miterlimit="10" stroke-width="2"/></g><g transform="translate(87.58 93.946)" clip-path="url(#k)"><path d="M384.836-225.494v3.506c-.128,1.46-4.645,2.634-10.2,2.634-5.632,0-10.2-1.209-10.2-2.7V-225.6" transform="translate(-363.677 226.459)" fill="none" stroke="#061a33" stroke-linecap="round" stroke-linejoin="round" stroke-miterlimit="10" stroke-width="2"/></g><g transform="translate(87.58 97.612)" clip-path="url(#l)"><path d="M384.835-207.222v3.5c-.127,1.461-4.643,2.636-10.194,2.636-5.632,0-10.2-1.209-10.2-2.7v-3.552" transform="translate(-363.677 208.046)" fill="none" stroke="#061a33" stroke-linecap="round" stroke-linejoin="round" stroke-miterlimit="10" stroke-width="2"/></g><path d="M182.713-395.379,196.219-408.9l5.789,5.793,12.965-13.163" transform="translate(-129.424 474.287)" fill="none" stroke="#061a33" stroke-linecap="round" stroke-linejoin="round" stroke-miterlimit="10" stroke-width="2"/><g transform="translate(81.407 51.024)" clip-path="url(#m)"><path d="M339.171-439.444l2.3-9.263L332.3-446.1Zm0,0" transform="translate(-331.558 449.445)" fill="none" stroke="#061a33" stroke-linecap="round" stroke-linejoin="round" stroke-miterlimit="10" stroke-width="2"/></g></svg>