<svg xmlns="http://www.w3.org/2000/svg" width="156.256" height="156.256" viewBox="0 0 156.256 156.256"><path d="M78.128,0a78.128,78.128,0,1,0,78.128,78.128A78.128,78.128,0,0,0,78.128,0" transform="translate(0 0)" fill="#fff"/><path d="M217.316,190.576l0-.008-.011.021h0Zm13.711,25.595h0c.011.01.019.021.03.032C231.047,216.193,231.039,216.182,231.028,216.171Zm-.776-.934a.887.887,0,0,1-.013-.218A.887.887,0,0,0,230.252,215.237Zm.275.5-.005,0a.057.057,0,0,0,.012.011,2.1,2.1,0,0,0,.179.166,1.818,1.818,0,0,1-.191-.177.967.967,0,0,1-.266-.48A.973.973,0,0,0,230.526,215.734Zm.279.248-.03-.024Zm-33.561-.4h0Zm-.034,0-.063,0Zm-1.1.03.177,0Zm.437-.008h0Zm.208-.007h0Zm.214-.007h0Zm7.307-12.061a.78.78,0,0,0,.072-.111.7.7,0,0,1-.072.111c-.147.19-.337.3-.422.495C203.941,203.838,204.131,203.725,204.277,203.534Zm.145-.273h0a.682.682,0,0,1-.039.092A.757.757,0,0,0,204.423,203.261Zm.038-.207a1.331,1.331,0,0,0,0-.2A1.331,1.331,0,0,1,204.461,203.054Zm-.038.205a1.148,1.148,0,0,0,.034-.161A1.148,1.148,0,0,1,204.423,203.259Zm10.968-10.285a2.287,2.287,0,0,0-.4-.118A2.287,2.287,0,0,1,215.391,192.974Zm.04.025h0a.17.17,0,0,1,.022.018Zm.053.066,0,.01Zm-.03.163a.038.038,0,0,1,.005-.01h0Zm.021-.042v0Zm.017-.08s0,.009,0,.014S215.492,193.111,215.492,193.106Zm30.952-5.251a8.559,8.559,0,0,0-.43-1.485.481.481,0,0,0,.077-.03c.334-.184-.256-1.181-.358-1.9a2.551,2.551,0,0,0-.716-1.467,2,2,0,0,0-1.348-.245,5.818,5.818,0,0,1-1.689-.047c-.43-.018-.333-.394-.573-.513s-.632.12-.709-.215c-.048-.206-.32-.323-.523-.383a.227.227,0,0,0,.147-.123c.125-.322-.734-.054-1.271-.859s-.412-.215-1.218-1.235-2.308-1.681-2.988-2.326A6.37,6.37,0,0,0,232.5,175.9c-.572-.2-1.163.215-1.843.144a1.805,1.805,0,0,0-.864.148c0-.168-.209-.183-.622-.364a.918.918,0,0,0-.539-.072c-.007-.23-.573-.088-1.179-.088a5.913,5.913,0,0,1-2.417-.984c-.519-.34-.644-.251-.931.107s-1.271-.143-1.486.412-.913.752-1.521.984-.376-.036-.591-.465.179-.984.555-1.449.018-.483,0-1.056-.841-.769-.984-1.019a.6.6,0,0,0-.824-.179c-.376.161-.734-.447-.913-.554s-.716-.215-.979-.394a.714.714,0,0,0-.494-.065.337.337,0,0,0-.219-.32,3.677,3.677,0,0,1-1.495-.7c-.76-.609-3.284-.724-3.642-.1s-.063,1.144-.85,1.467-.752.931-1.254,1.091-1.414.359-1.27-.286,1-.662,1.217-1.2.394-.429.68-1,1.038-1.557.538-1.629-1.2-.322-1.593-.376-.43.331-1.011.331-1.531-.385-1.969-.385-.663-.447-.6-1.065.107-1.107-.222-1.005c.03-.352.544-.471.794-.9s.394-1.038.591-1.4-.108-.858-1.289-1.019-.394-.43-1.11-1.413a6.261,6.261,0,0,1-.912-3.328c-.09-1.145.072-1.109-.358-1.682s-.59.036-.984.645a17.508,17.508,0,0,0-2.13,3.417,1.908,1.908,0,0,1-2.022,1.27c-.537-.125-.573-.178-.949-.093s-.519-.373-.841-.074a1.555,1.555,0,0,1-1.79.023.576.576,0,0,0-.756-.056c0-.011,0-.023,0-.034.062-.393-.322-.626-.841-.715s-.635.268-1.092.3-1.495-.412-1.477.152.538.85.376,1.171-.9.059-1.342-.024-1.078.369-1.448.227a1.379,1.379,0,0,0-1.778.346c-.846.812-1.1.239-1.825.454s-.43.346-.693.655c-.221.263-.919.058-1.354.369-.053-.246-.16-.4-.376-.4-.447,0-1.414-.967-1.611-1.181s.054-.984-.286-1.288-.34-.554-.573-1a3.074,3.074,0,0,1,.465-2.332,1.947,1.947,0,0,0,.538-1.3,5.4,5.4,0,0,0-.573-1.157c-.263-.334-.7-.06-.955-.417s.454-.6.442-1.05-.537-.358-.847-.465-.7-.156-.608.417a.9.9,0,0,1-.645.966c-.251.084-.334.549-.68.513s-1.074.072-1.289.417a1.515,1.515,0,0,1-1.038.526,1.234,1.234,0,0,1-.955-.072c-.322-.227-.62.262-1.11.31s0,.572,0,.906-.441.583-.9.525-.655-.752-.869-1.086-.313.263-.753.275a5.322,5.322,0,0,1-1.11-.048c-.3-.06-.275-.37-.442-.513s-.394.06-.728-.06-.68-.06-.573.12,1.313.81,1.373,1.252a3.6,3.6,0,0,0,.334,1.693c.358.513.155.812.358,1.062s1.228-.048,1.432.154a.441.441,0,0,1,.109.316.423.423,0,0,0,.159.337,2.722,2.722,0,0,1-1,.535c-.644.108-.877.3-1.092,1.056s-.465.769-.967.716-.465.394-1.074.5-1.181.859-1.4,1.163-.519.876-.7.25.054-.894-.448-.715-.572.841-1.092.8-.984-.09-1.253-.626-.895-.287-1.342-.663.287-1.216-.215-1.547-.654-.975-1.038-.876-.358,1.073-.671,1.127a.672.672,0,0,1-.7-.43c-.1-.25-.287-.286-.377-.026s-.008.554-.367.608-3.485-.066-3.781-.032c-.489.056-.577,1.517-.111,1.607s1.253-.188,1.495.1a2.029,2.029,0,0,1,.364.793.5.5,0,0,1-.412.59,2.107,2.107,0,0,1-.824-.021c-.585-.143-1.175.066-1.151.5s-.331,1.417.269,1.766,1.02.555.94.894a1.181,1.181,0,0,0,.376,1.163c.573.545.278.688.179,1.047s-1.226,7.612-1.352,8.059-.889.226-1.038-.066-.281-.31-.59-.3-.615-.006-.746.4a.859.859,0,0,1-1,.465c-.387-.06-.5.37-1.038.382a2.428,2.428,0,0,0-1.366.547c-.5.322-1.766.984-1.82,1.414s-.208.614-.161.919-.316.477-.44.894a1.5,1.5,0,0,0,.059,1.1c.138.185.209.847-.757,1.187s-.993.966-.814,1.234a.434.434,0,0,0,.12.091,1.2,1.2,0,0,0-.106.278c-.077.34-.358.3-.47.472s-.1.573.059.645.573.243.6.547.23.141.365.544a1.924,1.924,0,0,0,.555,1.055c.367.3.662.412.94.957s.394.51.268.9.179.635.582.546.931-.385,1.288.447.009.76.877.832,1.6.134,2-.313,1.127-1.556,1.485-1.422.205.859.125,1.208.15,2.451.1,2.711a.491.491,0,0,0,.722.385,1.729,1.729,0,0,1,1.369-.376c.421.161,2.059-.1,2.291.107a1.1,1.1,0,0,0,1.459-.134c.519-.546.313-.885.77-.939s.859.152,1.208-.5.529-.107,1.19-.751c.614-.6.8-.535.62-.937a1.689,1.689,0,0,0,.592-.207c.032.153.105.288.265.217a3.55,3.55,0,0,1,1.074-.359c.381-.035,1,.2,1.312-.035s.775-.394.918-.154a3.445,3.445,0,0,1,.12,1.4c-.023.489-.442.537-.191,1s.358.668.2.989-.142.693.306,1.247-.322.537.465,1.092,1.485.751,1.593,1.144,1.145.573,1.557.376a1,1,0,0,1,1.271.376c.233.447.788-.34.966,0s1.181,1.36,1.862,1.092.483.215.8.68,1.092.841,1.468.554c.355-.27,1.811.48,2.106.246a1.488,1.488,0,0,0,.262.219c.537.369.751.739.56,1.074s-.047.56.143,1.026a3.521,3.521,0,0,1,.264,1.646c-.12.166-.394.309-.1.644s.322.108.322,1.086-.263,1.217.489,1.253,4.165,0,4.165,0,.453-.036.2.619-.387.633-.274.919-.143.9.184,1.133a6.861,6.861,0,0,0,1.48.7c.256.054.136.293.322.519a.754.754,0,0,0,.395.23c-.126.123-.2.332-.055.688a1.341,1.341,0,0,1-.083,1.539c-.293.412.154.519-.4,1.413s-.876,1.61-.5,1.915.59.626.233.787-.359.68-.072,1.306.268.519.233,1.771-.663,2,.222,2.165a10.194,10.194,0,0,1,1.979.43c.752.268.895-.734,1.2-.537s.877.7,1.271.662.9-.053.9.715.233.394.429,1.933.215,2.075.9,1.789,1.181-.788,1.45-.394c.165.242.466.611.736.661a3.449,3.449,0,0,1-.116,1.432,12.549,12.549,0,0,0-.614,2.219.993.993,0,0,0,.749.381c.373,0,.9.525.946.6s.118,1.312.834,1.264c.08-.005.145-.01.2-.016-.177.176-.348.338-.483.458-.524.459-.036.787,0,1.36a2.779,2.779,0,0,0,.047.508,1.752,1.752,0,0,1-.977.529c-.77.072-1.611.925-1.969,1.1a6.371,6.371,0,0,0-1.862,1.6c-.125.394-1.968,1.879-2.326,2.594s-2.2,2.076-2.04,2.415a.457.457,0,0,0,.734.09c.2-.161.626-.376.841-.215s1.879,1.288,1.915,1.61.089,1.127.555.626.8-.608.966-.107-.053.554.877.912.931.108,1.181.734.841.572,1.128.84a3.168,3.168,0,0,1,.966,1.288c.358.806,1.146.43,1.11.823a1.155,1.155,0,0,1-.268.77c-.251.412-.716.143-.626.966s.161,1.574.788.895.912-.465.912-1.485a2.5,2.5,0,0,1,1.2-2.29,10.99,10.99,0,0,0,3.9-3.65c.823-1.646.913-2.379,1.4-2.862a2.251,2.251,0,0,0,.659-1.2c.5-.044,1.031-1.109,1.632-1.377.68-.3,1.02-1.5,1.361-1.879s.215-.931,0-1.467a4.692,4.692,0,0,1-.233-2.683,2.709,2.709,0,0,0,.013-1.265c.057-.028.117-.059.19-.1.763-.452.5-.023.477-1.049s.347-.215.62-.692a2.4,2.4,0,0,0,.254-.482.616.616,0,0,1,.224.088c.191.155.238-.215.477-.549s.942-.572,1.253-.788a5.846,5.846,0,0,0,1.145-1.252,7.789,7.789,0,0,1,2.768-1.038c.334.072.907.1.907-.154s.239-.3.656-.562.967.025,1.046-.358c.035-.168.059-.289.078-.376.167.026.568-.33.863-.4.322-.081.741.3.944.062a.813.813,0,0,1,.935-.009.473.473,0,0,0,.653.107c.268-.188,2.881.161,3.186-.017s.081-.17.359-.725.4-.617,1.047-.849,1.62-.26,1.531-.859a1.826,1.826,0,0,1,.259-1.413c.168-.168.124-.486.025-.773a1.416,1.416,0,0,0,.387-.587c.286-.733.734-.376.716-.608s.7-.895,1.181-1.2-.036-.465,0-.68.734-.7,1.128-1-.144-1.61.5-3.042a2.321,2.321,0,0,0,.221-.779.6.6,0,0,0,.094-.134c.287-.537.992-.406,1.05-1.241a7.975,7.975,0,0,1,.55-3.351c.62-1.288.453-1.623.429-1.766a10.039,10.039,0,0,1,0-3.435,6.524,6.524,0,0,0,.144-2.541c0-.333.143-.476.572-.989s-.322-.8.215-1.264.895.167,1.371.572,1.432-1.908,1.946-2.492a1.376,1.376,0,0,0,.4-.839.6.6,0,0,0,.346-.33c.179-.526,1.444-2.29,2.1-2.231.286.026.458-.184.558-.429.145.017.261-.062.421-.191a7.564,7.564,0,0,0,1.1-1.228c.2-.311.227-.572.6-.68.256-.075,1.1-1.109,1.253-1.252a1.352,1.352,0,0,0,.205-.577c.015,0,.029,0,.045,0,.5,0,.608-1.628.966-2.79a1.241,1.241,0,0,0-.2-1.253,2.173,2.173,0,0,1,.258.108c.322.161.018-.269-.161-1.235" transform="translate(-114.849 -123.897)" fill="#1b3b5e"/><path d="M266.251,165.188a5.631,5.631,0,0,0-.054-1.051c-.053-.246-.16-.4-.376-.4-.447,0-1.414-.967-1.611-1.181s.054-.984-.286-1.288-.34-.554-.573-1a3.074,3.074,0,0,1,.465-2.332,1.947,1.947,0,0,0,.538-1.3,5.4,5.4,0,0,0-.573-1.157c-.263-.334-.7-.06-.955-.417s.454-.6.442-1.05-.537-.358-.847-.465-.7-.156-.608.417a.9.9,0,0,1-.645.966c-.251.084-.334.549-.68.513s-1.074.072-1.289.417a1.515,1.515,0,0,1-1.038.526,1.233,1.233,0,0,1-.955-.072c-.322-.227-.62.262-1.11.31s0,.572,0,.906-.441.583-.9.525-.655-.752-.869-1.086-.312.263-.753.275a5.323,5.323,0,0,1-1.11-.048c-.3-.06-.276-.37-.442-.513s-.394.06-.728-.06-.68-.06-.573.12,1.313.81,1.373,1.252a3.6,3.6,0,0,0,.334,1.693c.358.513.154.812.358,1.062s1.228-.048,1.432.154a.44.44,0,0,1,.109.316.423.423,0,0,0,.159.337.385.385,0,0,0,.118.064l.67.221c1,.327.769.626.644,1.056s.286.411.3.823.465.841.465,1.413a3.784,3.784,0,0,1-.125.931,5.062,5.062,0,0,0-.126,1.771c.144.447.716.519.7.948s-.411.751.412,1.342.931,1.127,1.468,1,0-1.717.376-2.111,1.2-.572,1.539-.072a1.054,1.054,0,0,0,1.343.483c.483-.233.233-.662.143-1.074s.663-1.235,1.038-1.7,1.467.132,2.535,0l.024,0a.991.991,0,0,0,.439-.136c.324-.233-.206-.691-.206-1.332" transform="translate(-202.384 -123.897)" fill="#60b6e9"/><path d="M390.505,172.418c.035.251,1.244-.215,1.592.233a1.8,1.8,0,0,0,1.342.957c.877.179.269,1.074,1,1.449s.645,1.459.681,1.772a4.424,4.424,0,0,0,1.127,1.44c.269.2.1,1.092.4,1.27s.543.712.907.969,1.126-.054,1.4-.3-.125-.776.138-.979a7.242,7.242,0,0,0,.983-1.3c.143-.251.257-.7.71-.775s.937-.274.991-.543.119-.662.446-.763c.03-.352.544-.471.794-.9s.394-1.038.591-1.4-.108-.858-1.289-1.019-.394-.43-1.11-1.413a6.259,6.259,0,0,1-.913-3.328c-.09-1.145.072-1.109-.358-1.682s-.59.036-.984.645a17.5,17.5,0,0,0-2.13,3.417,1.908,1.908,0,0,1-2.022,1.27c-.537-.125-.573-.178-.949-.093s-.519-.373-.841-.074a1.555,1.555,0,0,1-1.79.023.576.576,0,0,0-.756-.056,4.9,4.9,0,0,0,.032,1.174" transform="translate(-315.192 -133.909)" fill="#3364b8"/><path d="M136.233,336.307a3.354,3.354,0,0,0-2.174-.823c-.529-.036-2.47-.537-3.92-.788a21.166,21.166,0,0,1-4.3-1.287,1.19,1.19,0,0,0-.106.278c-.077.34-.358.3-.471.472s-.1.573.059.645.573.243.6.547.23.141.365.544a1.924,1.924,0,0,0,.555,1.055c.367.3.662.412.94.957s.394.51.268.9.179.635.582.546.931-.385,1.288.447.009.76.877.832,1.6.134,2-.313,1.127-1.556,1.486-1.422.205.859.125,1.208.15,2.451.1,2.711a.491.491,0,0,0,.722.385,1.729,1.729,0,0,1,1.369-.376c.421.161,2.059-.1,2.291.107a1.1,1.1,0,0,0,1.459-.134c.519-.546.313-.885.769-.939s.859.152,1.208-.5.529-.107,1.19-.751c.615-.6.8-.533.62-.937-.02,0-.042.008-.062.009a47.072,47.072,0,0,1-7.833-3.375" transform="translate(-101.056 -269.146)" fill="#4779c6"/><path d="M244.513,349.256a7.882,7.882,0,0,1-.582-1.61c-.009-.465.465-.474.359-.957s-.582-.474-.877-.546-.358-.394-.841-.3a13.648,13.648,0,0,1-1.948.02.514.514,0,0,1-.5-.514v-.592a5.208,5.208,0,0,0-.069-.852,9.958,9.958,0,0,1-.092-1.881,14.4,14.4,0,0,0,.1-2.166,1.569,1.569,0,0,0-.047-.161c-.459-.024-.55.109-.55.109-.084.184-.263.328-.651.273-.272-.038-.632-.477-.739-.721-.087-.2-.1-.49-.46-.483s-.644-.191-.9-.71-1.79-.274-1.79-.274c-.376-.007-.275.179-.418.422s-1.428.724-1.049.984a.373.373,0,0,1,.13.508c-.4.925-.8.662-1.163.673s-.346.167-.913.15-.394.7-.5.87a.5.5,0,0,1-.692.1c-.227-.191-.645.178-.775.322s-.591.364-.716.167-.632-.179-1.193-.191-.632.155-.632.561a.775.775,0,0,1-.466.583c.03.153.1.288.263.217a3.549,3.549,0,0,1,1.074-.359c.381-.035,1,.2,1.312-.035s.776-.394.919-.154a3.472,3.472,0,0,1,.12,1.4c-.023.489-.442.537-.191,1s.358.668.2.989-.142.693.306,1.247-.322.537.465,1.092,1.486.751,1.593,1.144,1.145.573,1.557.376a1,1,0,0,1,1.271.376c.233.447.787-.34.966,0s1.181,1.36,1.861,1.092.483.215.806.68,1.092.841,1.468.554c.355-.27,1.811.48,2.106.246a.122.122,0,0,0,.041-.049c.161-.376.672-.179.725-.832s.215-.59.519-1.074.824-.966.591-1.69" transform="translate(-182.874 -272.721)" fill="#3364b8"/><path d="M173.805,207.439a.371.371,0,0,0-.387-.516l-.014,0c-.447.081-.492-.331-1.029-.474s-.1-.8-.769-.841-3.1-1.449-3.222-1.914-.707-.277-.832-.832S167,202.1,167.1,201.5a1.664,1.664,0,0,0-.107-1.146.991.991,0,0,1-.439.136l-.024,0c-1.068.13-2.162-.465-2.535,0s-1.128,1.288-1.038,1.7.34.841-.143,1.074a1.054,1.054,0,0,1-1.342-.483c-.34-.5-1.163-.322-1.539.072s.161,1.986-.376,2.111-.645-.411-1.468-1-.429-.912-.412-1.342-.554-.5-.7-.948a5.062,5.062,0,0,1,.126-1.771,3.78,3.78,0,0,0,.125-.931c0-.572-.447-1-.465-1.413s-.429-.394-.3-.823.351-.728-.644-1.056l-.67-.221a.384.384,0,0,1-.118-.064,2.721,2.721,0,0,1-1,.535c-.645.108-.877.3-1.092,1.056s-.465.769-.967.716-.465.394-1.074.5-1.181.859-1.4,1.163-.519.876-.7.25.054-.894-.448-.715-.572.841-1.092.8-.984-.09-1.253-.626-.9-.287-1.342-.663.287-1.216-.214-1.547-.654-.975-1.038-.876-.358,1.073-.671,1.127a.672.672,0,0,1-.7-.43c-.1-.25-.287-.286-.377-.026s-.009.554-.367.608-3.486-.066-3.781-.032c-.49.055-.577,1.516-.111,1.606s1.253-.188,1.495.1a2.029,2.029,0,0,1,.364.793.5.5,0,0,1-.412.59,2.106,2.106,0,0,1-.824-.021c-.585-.143-1.175.066-1.151.5s-.331,1.417.269,1.766,1.02.555.94.894a1.18,1.18,0,0,0,.376,1.163c.573.545.278.688.179,1.047s-1.226,7.612-1.352,8.059-.889.226-1.038-.066-.281-.31-.59-.3-.615-.006-.746.4a.859.859,0,0,1-1,.465c-.387-.06-.5.37-1.038.382a2.428,2.428,0,0,0-1.366.547c-.5.322-1.766.984-1.82,1.414s-.208.614-.161.919-.316.476-.44.894a1.5,1.5,0,0,0,.059,1.1c.138.185.209.847-.757,1.187s-.993.966-.814,1.234a.438.438,0,0,0,.12.091,21.162,21.162,0,0,0,4.3,1.287c1.45.251,3.392.751,3.92.788a3.354,3.354,0,0,1,2.174.823,47.08,47.08,0,0,0,7.833,3.375c.02,0,.043-.007.062-.009a1.707,1.707,0,0,0,.593-.207.776.776,0,0,0,.466-.583c0-.406.071-.572.632-.561s1.068-.006,1.193.191.585-.023.716-.167.549-.513.775-.322a.5.5,0,0,0,.692-.1c.108-.173-.065-.888.5-.87s.555-.138.913-.15.766.252,1.163-.673a.373.373,0,0,0-.13-.508c-.379-.261.906-.739,1.049-.984s.043-.429.418-.422c0,0,1.534-.245,1.79.274s.537.715.9.71.374.288.46.483c.107.243.468.683.739.72.388.054.567-.089.651-.273,0,0,.091-.133.55-.109.05,0,.1.007.16.014s.11.013.172.023l6.867-.093a.834.834,0,0,1,.258.037c.23.07.773.145.922-.647.191-1.013.419-.942.239-1.478s.108-.728.31-1.467c.014-.049.026-.095.038-.139.022-.078.041-.147.057-.207.1-.4.048-.455-.368-.717-.513-.321-.573-.8.261-1.943.764-1.047,4.23-9.248,4.819-10.65" transform="translate(-102.924 -157.727)" fill="#a9e3f4"/><path d="M325.413,342.811c-.221-.188-.252-.406-.306-.885s.237-2.134-.049-2.42.277-.913.233-1.467a2.492,2.492,0,0,1,.161-1.467,5.542,5.542,0,0,0,.951-1.973.871.871,0,0,1-.574.177c-.8-.041-2.493-.131-4.5-.248-4.912-.288-11.721-.745-12.04-1.086-.5-.537-1.754-.644-2.685-2s-.215-1.825-.645-2.756a1.044,1.044,0,0,0-.762-.639c-.011.044-.024.09-.038.139-.2.739-.489.931-.31,1.467s-.048.465-.239,1.478c-.148.793-.692.718-.922.647a.835.835,0,0,0-.258-.037l-6.867.093c-.062-.01-.12-.017-.172-.023l-.113.148a14.4,14.4,0,0,1-.1,2.166,9.962,9.962,0,0,0,.092,1.881,5.209,5.209,0,0,1,.069.852v.592a.514.514,0,0,0,.5.514,13.651,13.651,0,0,0,1.948-.02c.483-.1.546.224.841.3s.769.062.877.546-.367.492-.359.957a7.878,7.878,0,0,0,.582,1.61c.233.724-.287,1.208-.591,1.69s-.465.421-.519,1.074-.564.456-.725.832a.123.123,0,0,1-.041.049,1.487,1.487,0,0,0,.262.219c.537.369.751.739.56,1.074s-.047.56.143,1.026a3.529,3.529,0,0,1,.264,1.646c-.12.166-.394.309-.1.644s.322.108.322,1.086-.263,1.217.489,1.253,4.165,0,4.165,0,.453-.036.2.619-.387.633-.274.919-.143.9.184,1.133a6.859,6.859,0,0,0,1.48.7c.256.054.136.293.322.519a.753.753,0,0,0,.395.23.86.86,0,0,0,.548-.034c.322-.143.793-.023.9-.477s-.043-.937.763-.942a1.6,1.6,0,0,0,1.086-.257.954.954,0,0,1,1,.161,10.777,10.777,0,0,0,1.671,1.132.911.911,0,0,0,.984-.259c.2-.233.739-.389.989-.085s.8.313.886.121A2.719,2.719,0,0,1,317,354.6c.22-.058.336.018.394.3a.771.771,0,0,1-.183.64c-.094.1-.407.429-.532.595s-.108.4.233.4c.079,0,.192,0,.318,0,.406-.007.952-.028.993-.028s.316.029.35-.136a.248.248,0,0,0-.014-.141,2.239,2.239,0,0,1-.282-1.078,1.822,1.822,0,0,1,.3-1.1,2.9,2.9,0,0,0,.417-.667c.049-.183.9-.205,1-.845a2.309,2.309,0,0,1,.345-.966,2.979,2.979,0,0,1,.971-.761c.263-.076.7-.054.707-.389a1.759,1.759,0,0,1,.843-1.653c.8-.369,1.134-.215,1.181-.989a3.113,3.113,0,0,1,.418-1.431,2.218,2.218,0,0,0,.287-1.182c0-.342.273-.462.468-.714a.946.946,0,0,0,.187-.681,1.9,1.9,0,0,1,.087-.807c.011-.053,0-.083-.084-.151" transform="translate(-239.087 -264.814)" fill="#60b6e9"/><path d="M365.989,200.279a.338.338,0,0,0-.219-.32,3.678,3.678,0,0,1-1.495-.7c-.76-.609-3.284-.724-3.642-.1s-.063,1.144-.851,1.467-.751.931-1.253,1.091-1.414.359-1.27-.286,1-.662,1.217-1.2.394-.429.68-1,1.038-1.557.538-1.629-1.2-.322-1.593-.376-.43.331-1.011.331-1.531-.385-1.969-.385-.662-.447-.6-1.065.108-1.107-.221-1.005-.394.5-.446.763-.537.465-.991.543-.567.524-.71.775a7.242,7.242,0,0,1-.983,1.3c-.263.2.136.733-.138.979s-1.038.554-1.4.3-.6-.79-.907-.969-.134-1.073-.4-1.27a4.423,4.423,0,0,1-1.127-1.44c-.036-.313.054-1.4-.681-1.772s-.125-1.27-1-1.449a1.8,1.8,0,0,1-1.342-.957c-.349-.447-1.557.018-1.592-.233a4.894,4.894,0,0,1-.032-1.174c0-.011,0-.023,0-.034.063-.393-.322-.626-.841-.715s-.635.268-1.092.3-1.495-.412-1.477.152.538.85.376,1.172-.9.059-1.342-.024-1.078.369-1.449.227a1.379,1.379,0,0,0-1.778.346c-.846.812-1.1.239-1.825.454s-.43.346-.693.655c-.221.263-.919.058-1.354.369a5.631,5.631,0,0,1,.054,1.051c0,.641.531,1.1.206,1.332a1.664,1.664,0,0,1,.107,1.146c-.107.608.322.814.448,1.369s.707.367.832.832,2.551,1.878,3.222,1.914.233.7.769.841.582.555,1.029.474l.013,0a.371.371,0,0,1,.387.516c-.589,1.4-4.055,9.6-4.819,10.65-.834,1.145-.775,1.622-.261,1.943.416.262.47.312.368.717-.016.06-.035.129-.056.207a1.044,1.044,0,0,1,.762.639c.43.931-.286,1.4.645,2.756s2.183,1.467,2.685,2c.318.341,7.128.8,12.04,1.086,2.007.117,3.7.207,4.5.248a.871.871,0,0,0,.574-.177.86.86,0,0,0,.237-.279,2.072,2.072,0,0,0,.261-.824,1.427,1.427,0,0,1,1.092-1.305c.5-.036,1.79-2.29,1.468-2.863s-.681-.627-.269-1.307-.107-1.108.734-1.484a3.639,3.639,0,0,0,1.522-1.163,2.973,2.973,0,0,0,.569-.9.369.369,0,0,0,0-.214c-.125-.34.412-.733.179-.93s-1.628-.251-1.379-.59c.2-.274.486-.294.879-.628a2.738,2.738,0,0,0,.3-.3c.555-.644,1.253-1.145,1.646-1.074s.913-.841.913-1.037.733-.394.751-.895a2.423,2.423,0,0,1,.7-1.521c.52-.662.036-1.217.555-1.646s-.017-.823.52-1.2a1.412,1.412,0,0,0,.59-1.467c-.087-.31.151-.739.139-1.049" transform="translate(-267.261 -153.167)" fill="#4779c6"/><path d="M625.044,302.107a2.551,2.551,0,0,0-.716-1.467,2,2,0,0,0-1.348-.245,5.822,5.822,0,0,1-1.689-.047c-.43-.018-.333-.394-.573-.513s-.633.12-.709-.215c-.048-.206-.32-.323-.523-.383-.294.108-.9,0-1.034.61a4.076,4.076,0,0,1-.49,1.077,8.364,8.364,0,0,0-.728,1.355c-.178.609-.716-.125-.877.161a2.137,2.137,0,0,0-.128.739,3.114,3.114,0,0,0,1.489.328c.244.03.489-.154.686-.471a1.023,1.023,0,0,1,.751-.489,1.917,1.917,0,0,1,.7-.1.448.448,0,0,1,.071.728c-.261.143-.363.507-.489.775s.084.2.334.447.059.179.531.054.8.043.853.394.471.4.537-.154a3.442,3.442,0,0,1,.3-1.318c.214-.406.757.3,1.27.4s.74-.089.985.078a1.4,1.4,0,0,0,1.08.179.49.49,0,0,0,.077-.03c.334-.184-.257-1.181-.358-1.9" transform="translate(-497.454 -241.561)" fill="#3364b8"/><path d="M623.655,318.931a8.538,8.538,0,0,0-.43-1.485,1.4,1.4,0,0,1-1.08-.179c-.245-.167-.472.018-.985-.078s-1.056-.8-1.27-.4a3.441,3.441,0,0,0-.3,1.318c-.065.555-.489.507-.537.154s-.381-.519-.853-.394-.28.191-.531-.054-.459-.178-.334-.447.227-.632.488-.775a.448.448,0,0,0-.071-.728,1.919,1.919,0,0,0-.7.1,1.023,1.023,0,0,0-.751.489c-.2.316-.442.5-.686.471a3.115,3.115,0,0,1-1.489-.328,1.876,1.876,0,0,1-.1.424l-.012.026c-.2.5-.5.723-.292,1.548.215.841.52.841-.018,1.181-.026.016-.05.035-.075.051.262.7.623.072,1.131.6.591.618,2.165-.779,2.506-1.083s.806.286.9.537-.43.787-.34,1.342.161.554.645.912,1.11-1.217,1.736-1.27a12.468,12.468,0,0,1,1.431,0c.448,0,.645-.179.806-.666.128-.387.721-.281,1.12-.14a2.162,2.162,0,0,1,.259.108c.322.161.017-.269-.161-1.235" transform="translate(-495.354 -254.973)" fill="#60b6e9"/><path d="M587.667,274.283c-.537-.8-.412-.215-1.218-1.235s-2.308-1.681-2.989-2.326a6.361,6.361,0,0,0-2.345-1.127c-.572-.2-1.163.215-1.843.144a1.805,1.805,0,0,0-.863.148.7.7,0,0,1-.1.281,2.858,2.858,0,0,0,.359,2.165c.358.59.519.948.125,1.574a.948.948,0,0,0-.142.636c.021.1.044.207.065.313.1.337.273.7.382,1.144a14.874,14.874,0,0,1,.394,2c.008.145-.016.366-.013.608a1.742,1.742,0,0,0,.144.735,1.09,1.09,0,0,0,.155.249,1.787,1.787,0,0,0,.195.19c.406.339.861.45.647.865-.135.26-.367.586-.534.894.387.434,1.55.18,2.127.18.681,0,1.611,1.145,1.879,1.288s.466-.246.946-.575c.025-.017.048-.035.075-.051.538-.34.233-.34.018-1.181-.211-.825.1-1.049.292-1.548,0-.01.008-.017.012-.026a1.891,1.891,0,0,0,.1-.424,2.135,2.135,0,0,1,.128-.739c.161-.286.7.447.877-.161a8.362,8.362,0,0,1,.728-1.355,4.075,4.075,0,0,0,.489-1.077c.129-.608.74-.5,1.034-.61a.227.227,0,0,0,.147-.123c.125-.322-.734-.054-1.271-.859" transform="translate(-466.758 -217.589)" fill="#a9e3f4"/><path d="M447.34,411.888a.837.837,0,0,0,.056-.134.837.837,0,0,1-.056.134" transform="translate(-361.117 -332.39)" fill="#58b535"/><path d="M446.883,412.7a.738.738,0,0,0,.072-.111.738.738,0,0,1-.072.111" transform="translate(-360.748 -333.068)" fill="#58b535"/><path d="M447.637,411.067a1.142,1.142,0,0,0,.034-.161,1.142,1.142,0,0,1-.034.161" transform="translate(-361.357 -331.705)" fill="#58b535"/><path d="M447.836,409.637a1.231,1.231,0,0,1,0,.2,1.231,1.231,0,0,0,0-.2" transform="translate(-361.514 -330.681)" fill="#58b535"/><path d="M447.258,412.477c0-.009.011-.019.016-.028-.005.009-.011.019-.016.028" transform="translate(-361.051 -332.951)" fill="#496ebf"/><path d="M447.813,410.72c0-.014,0-.029,0-.044,0,.016,0,.03,0,.044" transform="translate(-361.499 -331.52)" fill="#496ebf"/><path d="M447.629,411.744s0,0,0,0,0,0,0,0" transform="translate(-361.35 -332.38)" fill="#496ebf"/><path d="M497.194,249.026a5.914,5.914,0,0,1-2.417-.984c-.519-.34-.644-.251-.931.107s-1.271-.143-1.486.412-.913.752-1.521.984-.376-.036-.591-.465.179-.984.555-1.449.018-.483,0-1.056-.841-.769-.984-1.019a.6.6,0,0,0-.824-.179c-.376.161-.734-.447-.913-.554s-.716-.215-.979-.394a.714.714,0,0,0-.494-.065c.013.309-.226.739-.139,1.049a1.412,1.412,0,0,1-.59,1.467c-.537.376,0,.769-.52,1.2s-.035.984-.555,1.646a2.422,2.422,0,0,0-.7,1.521c-.018.5-.751.7-.751.895s-.52,1.109-.913,1.037-1.092.43-1.646,1.074a2.738,2.738,0,0,1-.3.3c.221.234.477.446.666.413.407-.072.811-.119.979.287s1.264.644,1,1.383.261,1.717-.144,2.146-.286.889-.8,1.032-.161.492.357.671.206.644.591,1.038.59,1.092.885.895,1-.581,1.209-.34.474.42.251.8-.126.474-.618.645-.376.277-.51.7-.689.564-.537.859.438.09.608.259-.26.7.143.832c.209.069.43.1.556.163.014.007.026.016.039.023s0,0,0,0a.164.164,0,0,1,.029.025l0,0a.17.17,0,0,1,.018.028.024.024,0,0,1,0,.008.1.1,0,0,1,.008.03v.011a.15.15,0,0,1,0,.032.117.117,0,0,1-.005.019c0,.01-.005.02-.009.032s-.011.021-.017.031a.288.288,0,0,1-.014.026c-.014.022-.028.044-.046.068-.3.384-.349.8.009,1.064s.447.734.725.591c.2-.1.04.006.246.156a1.322,1.322,0,0,0,.452.184c1.064-.6.367-1.226.4-1.547a5.375,5.375,0,0,0-.161-1.449,2.3,2.3,0,0,1,.143-1.521c.027-.062.059-.13.095-.2l.006-.012a5.72,5.72,0,0,0,.74-1.737c.054-.626,1.128-1.056,1.862-1.109a5.139,5.139,0,0,0,2.309-1.463c.626-.568.806-.666,1.342-.237s.376.178,1.432,0,.716-.447.609-1.127-.77-1.486-.376-2.094.286-.607.412-1.377-.2-.68-.126-1.217a1.51,1.51,0,0,0-.125-1.055c-.179-.465.806-.519.913-1.181s.663-.716,1.235-.949a2.082,2.082,0,0,0,1.038-1.109.327.327,0,0,0,.052-.162c-.007-.23-.573-.088-1.179-.088" transform="translate(-387.882 -197.251)" fill="#60b6e9"/><path d="M527.181,280.22c.215-.415-.241-.526-.647-.865a1.787,1.787,0,0,1-.195-.19,1.092,1.092,0,0,1-.155-.249,1.744,1.744,0,0,1-.145-.735c0-.242.021-.464.013-.608a14.873,14.873,0,0,0-.394-2c-.108-.44-.283-.807-.382-1.144a1.91,1.91,0,0,1-.065-.313.948.948,0,0,1,.142-.636c.394-.626.233-.984-.125-1.574a2.858,2.858,0,0,1-.359-2.165.7.7,0,0,0,.1-.281c0-.168-.209-.183-.622-.364a.928.928,0,0,0-.539-.072.326.326,0,0,1-.052.162,2.082,2.082,0,0,1-1.038,1.109c-.572.233-1.127.287-1.235.949s-1.092.715-.913,1.181a1.511,1.511,0,0,1,.125,1.056c-.071.537.251.447.126,1.217s-.018.769-.412,1.377.268,1.414.376,2.094.447.948-.609,1.127-.9.429-1.432,0-.716-.331-1.342.236a5.138,5.138,0,0,1-2.309,1.463c-.734.053-1.808.483-1.862,1.109,0,.046-.017.095-.026.143a9.8,9.8,0,0,1-.815,1.807,2.3,2.3,0,0,0-.143,1.521,5.377,5.377,0,0,1,.161,1.449c-.036.322.662.948-.4,1.547.434.111.55.18.532.253.406-.027.592-.043.712.132.161.233.179.984,1.128,1.36s1.521-1.288,1.825-.931.5.215.967-.143.591-.09.824-.77a2.435,2.435,0,0,0-.251-1.789c-.215-.537.984-.5,1.2-.322s.984.215,1.467.5.734-.179,1.629-.5,1.289-.429,1.36-.715.537-.054.859-.608a1.732,1.732,0,0,1,.55-.516c.474-.314,1.09-.576,1.4-.79.122-.084.217-.143.288-.193.2-.14.206-.223.087-.684-.161-.626,0-.644-.125-1.038a1.01,1.01,0,0,1,.182-.7c.167-.308.4-.634.534-.894" transform="translate(-413.323 -217.157)" fill="#3364b8"/><path d="M595.143,332.948c-.4-.141-.992-.247-1.12.14-.161.487-.357.666-.806.666a12.468,12.468,0,0,0-1.431,0c-.626.053-1.253,1.628-1.736,1.27s-.555-.358-.645-.912.43-1.092.34-1.342-.555-.841-.9-.537-1.915,1.7-2.506,1.083c-.508-.532-.869.1-1.131-.6-.48.33-.69.71-.946.575S583.07,332,582.39,332c-.577,0-1.74.254-2.127-.18a1.01,1.01,0,0,0-.182.7c.125.394-.036.411.125,1.038.119.461.111.544-.088.684-.071.05-.166.109-.288.193-.31.214-.926.476-1.4.79a2.44,2.44,0,0,0,.666.528c.333.239.059.454.4.848s.156.524.37,1.049.764-.274.871-.716.2-.369.788-.4.978-.8,1.157-1.038.823-.406.931-.132.74.2,1.1.645.788.1,1,.15.182.268.361.519a1.635,1.635,0,0,0,.257.339.63.63,0,0,0,.442.109.717.717,0,0,0,.476-.356c.209-.282.356-.595.455-.342.161.412.877.125,1.145.59s.537.7,1.683.7.769-.483,1.467-.716.824-.447,1.128-.429.724.4,1.208.425c.015,0,.029,0,.045,0,.5,0,.609-1.628.966-2.79a1.242,1.242,0,0,0-.2-1.253" transform="translate(-466.94 -267.863)" fill="#4779c6"/><path d="M622.267,367.3c-.509-.456-.576-.973-1.42-1.5a4.476,4.476,0,0,0-.7-.358,6.473,6.473,0,0,1-1.235-.506c-.263.266,0,.658.231,1.2a2.267,2.267,0,0,1,.286,1.11c.072.633-.454,1.062-.693,1a.443.443,0,0,0-.585.429c-.047.419.573.621.6,1.444.017.593.651.7,1.073.521a.6.6,0,0,0,.346-.33c.179-.526,1.444-2.29,2.1-2.231.286.026.458-.184.558-.429a1.175,1.175,0,0,1-.558-.346" transform="translate(-499.001 -294.594)" fill="#a9e3f4"/><path d="M625.844,355.433c-.3-.018-.43.2-1.128.429s-.322.716-1.467.716-1.414-.233-1.683-.7-.984-.178-1.145-.59c-.1-.253-.246.059-.455.342a.717.717,0,0,1-.476.356.63.63,0,0,1-.442-.109c-.24.541.025.667.364,1.056a.955.955,0,0,0,.152.138,6.469,6.469,0,0,0,1.235.506,4.48,4.48,0,0,1,.7.358c.844.53.911,1.047,1.42,1.5a1.175,1.175,0,0,0,.558.346c.145.017.261-.062.421-.191a7.593,7.593,0,0,0,1.1-1.228c.2-.311.227-.572.6-.68.256-.075,1.1-1.109,1.253-1.252a1.353,1.353,0,0,0,.205-.577c-.484-.023-.914-.408-1.208-.425" transform="translate(-499.654 -286.734)" fill="#3364b8"/><path d="M458.411,311.4a1.322,1.322,0,0,1-.452-.184c-.206-.15-.047-.259-.246-.156-.278.143-.368-.322-.725-.591s-.3-.68-.009-1.064c.142-.186.11-.278-.007-.338s-.348-.094-.556-.163c-.4-.134.027-.662-.143-.832s-.456.036-.608-.259.4-.438.537-.859.018-.528.51-.7.394-.269.617-.645-.045-.555-.251-.8-.913.143-1.209.34-.5-.5-.885-.895-.072-.858-.591-1.038-.877-.528-.358-.671.4-.6.8-1.032-.12-1.408.144-2.146-.836-.979-1-1.383-.572-.358-.979-.287c-.189.034-.445-.179-.666-.413-.394.334-.677.354-.879.628-.25.34,1.146.393,1.379.59s-.3.59-.179.93a.369.369,0,0,1,0,.214,2.972,2.972,0,0,1-.569.9,3.639,3.639,0,0,1-1.522,1.163c-.841.376-.322.8-.734,1.484s-.053.734.269,1.307-.967,2.826-1.468,2.863a1.427,1.427,0,0,0-1.092,1.306,2.072,2.072,0,0,1-.261.824.861.861,0,0,1-.237.279,5.541,5.541,0,0,1-.951,1.973,2.492,2.492,0,0,0-.161,1.467c.045.554-.519,1.181-.233,1.467s0,1.941.049,2.42.085.7.306.885c.079.069.095.1.084.151.244-.275.3-.9.564-1.229.331-.412.689-.081.483.5a2.05,2.05,0,0,0-.141.939c-.034.412,1.474.573,2.011.573s.546-1.378,1.128-1.244.438.805.617,1.315.608-.027.806.026.868-.367.876-.241a2.493,2.493,0,0,0,1.012.761c.25.035.286-.769.482-.474s.591.116.761-.062c.123-.13.486-.124.832-.166a1.757,1.757,0,0,0,.376-.076c.412-.143.511-.42.778-.465a1.9,1.9,0,0,1,.863.083.811.811,0,0,0-.191-1.068c-.26-.215-.1-.617-.081-1.082s.645-.287.447-.492.009-.313.071-.6-.205-.367-.724-.546-.322-.644-.054-.921a2.575,2.575,0,0,0,.511-1.037c.134-.4.894-.511,1.118-.734.109-.108.246-.178.264-.248s-.1-.142-.532-.253" transform="translate(-359.722 -239.988)" fill="#a9e3f4"/><path d="M410.344,475.7h0" transform="translate(-331.252 -384.006)" fill="#496ebf"/><path d="M405.434,475.736c.291-.005.655-.018.852-.025-.2.007-.559.02-.852.025" transform="translate(-327.288 -384.019)" fill="#496ebf"/><path d="M409.855,475.7l.094,0-.094,0" transform="translate(-330.857 -384.01)" fill="#ed137c"/><path d="M430.062,404.272c-.023-.3,0-.492-.209-.708a1.346,1.346,0,0,0-.185-.159,1.06,1.06,0,0,1-.377-1.36c.26-.555.6-1.226.439-1.306s.179-.644-.018-.85a.528.528,0,0,0-.184-.113,1.9,1.9,0,0,0-.863-.083c-.268.045-.367.322-.779.465a1.755,1.755,0,0,1-.376.076c-.346.041-.709.036-.832.166-.17.178-.564.358-.761.062s-.233.51-.482.474a2.493,2.493,0,0,1-1.012-.761c-.008-.126-.68.3-.876.241s-.626.483-.806-.026-.036-1.181-.617-1.315-.591,1.244-1.128,1.244-2.045-.161-2.011-.573a2.05,2.05,0,0,1,.141-.939c.206-.581-.152-.913-.483-.5-.267.332-.32.953-.564,1.229a1.9,1.9,0,0,0-.088.807,1.222,1.222,0,0,1,0,.2c0,.016,0,.03,0,.044a1.143,1.143,0,0,1-.034.161s0,0,0,0a.834.834,0,0,1-.056.134c-.005.009-.011.019-.016.028a.731.731,0,0,1-.072.111c-.2.253-.468.373-.468.715a2.217,2.217,0,0,1-.287,1.182,3.113,3.113,0,0,0-.418,1.431c-.047.775-.382.62-1.181.989a1.76,1.76,0,0,0-.843,1.653c-.009.335-.444.313-.707.389a2.979,2.979,0,0,0-.971.761,2.309,2.309,0,0,0-.345.966c-.1.639-.953.662-1,.845a2.9,2.9,0,0,1-.417.667,1.822,1.822,0,0,0-.3,1.1,2.238,2.238,0,0,0,.282,1.078.248.248,0,0,1,.014.141.818.818,0,0,1,.2.655c-.143.555.519.626.394,1s.054.519.716.572a3.9,3.9,0,0,1,2.2,1.038c.37.447,1.364.588,1.863.756a1.105,1.105,0,0,1,.2.085.163.163,0,0,1,.091.157,2.849,2.849,0,0,0,.256-.346c.313-.519.886-.3,1.047-.957s.465-.769.8-.787,1.137-.358,1.423-.242.135.5.707.063a2.133,2.133,0,0,1,1.45-.59,6.437,6.437,0,0,1,1.682.215.5.5,0,0,0,.672-.027c.233-.169,1.288-.51,1.306-1.109s.161-.6.152-.867-.8-.438-.59-.752,1.253-.733.9-1.44-.653-.671-.5-1.163.224-1.109.8-1.181,1.092-.251.823-.742a1.014,1.014,0,0,1-.143-.867c.027-.251-.358-.6,0-.769s.707,0,.832-.555.492-.188.69.09a.456.456,0,0,0,.569.073.671.671,0,0,0,.254-.181c.143-.187.134-.42.108-.8" transform="translate(-331.669 -321.386)" fill="#3364b8"/><path d="M585.668,478.734a.342.342,0,0,1,.031.035.342.342,0,0,0-.031-.035" transform="translate(-472.783 -386.46)" fill="#facc07"/><path d="M585.057,478.19l-.018-.014.018.014" transform="translate(-472.275 -386.009)" fill="#facc07"/><path d="M585.384,478.467l-.032-.029.032.029" transform="translate(-472.527 -386.221)" fill="#facc07"/><path d="M585.956,479.079a.253.253,0,0,0-.034-.056.253.253,0,0,1,.034.056" transform="translate(-472.988 -386.693)" fill="#facc07"/><path d="M585.846,478.935a.215.215,0,0,0-.018-.021.215.215,0,0,1,.018.021" transform="translate(-472.912 -386.605)" fill="#ed137c"/><path d="M585.52,478.59c.01.009.02.019.029.028-.008-.009-.018-.019-.029-.028" transform="translate(-472.663 -386.343)" fill="#ed137c"/><path d="M585.175,478.283l-.042-.037.042.037" transform="translate(-472.351 -386.066)" fill="#ed137c"/><path d="M526.238,357.6c-.025-.823-.645-1.025-.6-1.444a.443.443,0,0,1,.585-.429c.239.06.764-.369.693-1a2.268,2.268,0,0,0-.286-1.11c-.235-.539-.494-.931-.231-1.2a.952.952,0,0,1-.152-.138c-.338-.389-.6-.516-.364-1.056a1.641,1.641,0,0,1-.257-.339c-.179-.251-.148-.465-.361-.519s-.642.291-1-.15-.992-.37-1.1-.645-.752-.107-.931.132-.573,1-1.157,1.038-.68-.036-.788.4-.657,1.241-.871.716-.023-.656-.37-1.049-.071-.608-.4-.848a2.442,2.442,0,0,1-.666-.528,1.733,1.733,0,0,0-.55.516c-.322.555-.788.322-.859.608s-.465.394-1.36.715-1.145.787-1.629.5-1.253-.322-1.467-.5-1.414-.215-1.2.322a2.434,2.434,0,0,1,.251,1.789c-.233.68-.358.412-.824.769s-.662.5-.967.143-.876,1.306-1.825.931-.967-1.127-1.128-1.36c-.12-.175-.307-.159-.712-.132-.018.069-.154.139-.264.248-.224.224-.984.331-1.118.734a2.575,2.575,0,0,1-.511,1.037c-.268.277-.465.742.054.921s.788.26.724.546-.268.394-.072.6-.429.027-.447.492-.179.867.081,1.082a.811.811,0,0,1,.191,1.068.529.529,0,0,1,.184.113c.2.206-.143.769.018.85s-.179.752-.439,1.306a1.06,1.06,0,0,0,.377,1.36,1.338,1.338,0,0,1,.184.159c.208.217.187.4.209.708.026.376.035.608-.108.8a.671.671,0,0,1-.254.181c.072.157.148.321.182.4.072.169.4.178.751.1s.52-.367.672-.492a7.7,7.7,0,0,1,1.512-.68c.555-.179.68-.769,1.092-.876a2.975,2.975,0,0,1,1.634.143c.373.2.236.411.039.671s.385.546.958.644.51-.3,1.1-.447.465.313.6.626.752.4,1.334.76a2.673,2.673,0,0,0,1.351.268c.287.062,1.1.788,1.056,1.074s.062.4.3.6.331.134.626-.081a1.967,1.967,0,0,1,1.647.322,7.105,7.105,0,0,0,.981.662c.227.143.346.333.036.93s-1,.334-1.026,1.11-.227.44-.442.537-.286.261-.334.989a.914.914,0,0,0,.288.715l-.005,0a.057.057,0,0,0,.012.011,2.413,2.413,0,0,0,.182.169l.016.012c.062.051.122.1.175.142l.018.013.042.037.032.029c.01.009.02.019.029.028a.335.335,0,0,1,.031.035.216.216,0,0,1,.018.021.249.249,0,0,1,.034.056c.083.192-.062.291-.027.449a.473.473,0,0,0,.17.241c.331.3.661.738.931.445a.6.6,0,0,0,.094-.134c.286-.537.992-.406,1.05-1.241a7.973,7.973,0,0,1,.55-3.351c.62-1.288.453-1.623.429-1.766a10.035,10.035,0,0,1,0-3.435,6.522,6.522,0,0,0,.143-2.541c0-.333.144-.476.573-.989s-.322-.8.215-1.264.9.167,1.372.572,1.432-1.908,1.945-2.492a1.381,1.381,0,0,0,.4-.839c-.422.18-1.056.072-1.073-.521" transform="translate(-406.492 -282.081)" fill="#60b6e9"/><path d="M566.565,480.949c-.27.293-.6-.146-.931-.445a.472.472,0,0,1-.17-.241.349.349,0,0,1-.391-.11c-.429-.465-.788-.108-1.4.268s-.537.608-.483,1.163-.358.931-.358,1.109.268,1.449-.214,1.932-.023,1.373-1.033,1.521a1.307,1.307,0,0,0-.954,1.02.613.613,0,0,1-.016.093.991.991,0,0,1-.047.133.038.038,0,0,0,0,.006,3.8,3.8,0,0,0,1.047,1.521.719.719,0,0,0,.812-.075,1.416,1.416,0,0,0,.387-.587c.286-.733.734-.376.716-.608s.7-.895,1.181-1.2-.036-.465,0-.68.734-.7,1.128-1-.144-1.61.5-3.042a2.316,2.316,0,0,0,.222-.778" transform="translate(-452.522 -387.427)" fill="#3364b8"/><path d="M528.846,520.089a.719.719,0,0,1-.812.075,3.8,3.8,0,0,1-1.047-1.521.033.033,0,0,1,0-.006,5.366,5.366,0,0,1-.831,1.062,2.965,2.965,0,0,0-.59,1.843c0,.8-1.414.519-1.9.858s-.465-.125-1.253-.3-1,.054-1.163.483a.339.339,0,0,1-.245.2c-.35.1-1,0-1.662.17-.092.161-.091.338.215.454.69.26,1.352.063,1.289.358s-1.19.358-1.459.564-.519.528-.385.635a.087.087,0,0,0,.041.01c.167.026.568-.33.863-.4.322-.081.741.3.944.062a.813.813,0,0,1,.935-.009.473.473,0,0,0,.653.107c.268-.187,2.881.161,3.186-.017s.081-.17.358-.725.4-.617,1.047-.849,1.62-.26,1.531-.859a1.827,1.827,0,0,1,.259-1.413c.168-.168.124-.484.025-.773" transform="translate(-418.938 -418.671)" fill="#60b6e9"/><path d="M469.335,432.072a7.12,7.12,0,0,1-.981-.662,1.967,1.967,0,0,0-1.647-.322c-.3.215-.394.277-.626.081s-.34-.313-.3-.6-.769-1.011-1.056-1.074a2.672,2.672,0,0,1-1.351-.268c-.582-.358-1.2-.447-1.334-.76s-.008-.769-.6-.626-.528.546-1.1.447-1.154-.385-.958-.644.333-.474-.039-.671a2.975,2.975,0,0,0-1.634-.143c-.412.107-.537.7-1.092.876a7.692,7.692,0,0,0-1.512.68c-.152.125-.322.411-.672.492s-.68.072-.751-.1c-.034-.081-.111-.244-.182-.4a.456.456,0,0,1-.569-.073c-.2-.277-.564-.644-.69-.09s-.474.385-.832.555.027.519,0,.769a1.014,1.014,0,0,0,.143.867c.269.492-.251.671-.823.742s-.644.689-.8,1.181.152.456.5,1.163-.7,1.127-.9,1.44.581.483.59.751-.134.268-.152.867-1.074.94-1.306,1.109a.5.5,0,0,1-.672.027,6.437,6.437,0,0,0-1.682-.215,2.133,2.133,0,0,0-1.45.59c-.572.438-.42.053-.707-.063s-1.083.224-1.423.242-.644.134-.8.787-.734.438-1.047.957a2.856,2.856,0,0,1-.256.346,3.381,3.381,0,0,0-.264,1.33c0,.032,0,.059.009.092a5.445,5.445,0,0,0,1.165-.362c.358-.215.809.19,1.255.229s2.091-.212,2.181.325.2,1.27.7.895.2-.554,1.4-.572,1.844-.425,2.184-.132.787.454.77,1.062.59.393.161.823-.538,1.771.268,1.789,1.522.107,1.271.554a1.851,1.851,0,0,0-.412,1.181c0,.608-.251.7.072,1.127s-.233.84.555,1.109,1.235.429,1.414,0-.161-.626.626-.572.806-.072,1.754-.376c.05-.017.1-.031.151-.043.666-.171,1.312-.067,1.662-.17a.338.338,0,0,0,.245-.2c.161-.429.376-.662,1.163-.483s.769.645,1.253.3,1.9-.053,1.9-.858a2.965,2.965,0,0,1,.59-1.843,5.366,5.366,0,0,0,.831-1.062.978.978,0,0,0,.047-.133.606.606,0,0,0,.017-.093,1.307,1.307,0,0,1,.954-1.02c1.01-.148.55-1.038,1.033-1.521s.215-1.753.215-1.932.412-.554.358-1.109-.125-.788.483-1.163.967-.733,1.4-.268a.35.35,0,0,0,.391.11c-.035-.158.111-.257.027-.449-.069-.158-.361-.312-.59-.554a.913.913,0,0,1-.282-.711c.048-.728.12-.895.334-.989s.418.238.442-.537.716-.513,1.026-1.11.191-.787-.036-.93" transform="translate(-355.472 -344.516)" fill="#a9e3f4"/><path d="M435.656,510.205c-.306-.116-.307-.293-.215-.454a1.569,1.569,0,0,0-.151.043c-.949.3-.967.429-1.754.376s-.447.143-.626.572-.626.268-1.414,0-.233-.68-.555-1.109-.072-.519-.072-1.127a1.851,1.851,0,0,1,.412-1.181c.251-.447-.465-.536-1.271-.554s-.7-1.36-.268-1.789-.179-.215-.161-.823-.43-.769-.77-1.062-.984.114-2.184.132-.894.2-1.4.572-.608-.358-.7-.895-1.736-.286-2.181-.325-.9-.444-1.255-.229a5.441,5.441,0,0,1-1.165.362,2.322,2.322,0,0,0,.09.353c.412,1.2-1,.823-1.647,1.736s-.483.376-.788,1.038-.358,1.02-.715,1.789a3.145,3.145,0,0,1-1.362,1.286c-.132.077-.259.15-.374.217-.035.02-.071.045-.105.066.073.482.612.369,1.423.518.979.178,1.087-.382,1.361,0s1.217.178,1.742.322a3.416,3.416,0,0,1,1,.465c.417.227,1.682.025,1.944.227a1.966,1.966,0,0,1,.8,1.407,2.727,2.727,0,0,0,.156,1.437c.238.745.751.674.608,1.305s.31.537,1.025.537.657.442.681.871c.019.327.5.391.814.472a.606.606,0,0,1,.224.088c.192.155.239-.214.478-.549s.942-.572,1.253-.788a5.867,5.867,0,0,0,1.145-1.252,7.789,7.789,0,0,1,2.768-1.038c.334.071.907.1.907-.154s.238-.3.656-.562.967.025,1.046-.358c.035-.168.059-.289.078-.376a.087.087,0,0,1-.041-.01c-.134-.107.117-.429.385-.635s1.4-.269,1.459-.564-.6-.1-1.289-.358" transform="translate(-335.035 -405.475)" fill="#3364b8"/><path d="M365.42,471.943c-.005-.032,0-.06-.009-.092a3.382,3.382,0,0,1,.264-1.33.163.163,0,0,0-.091-.157,1.1,1.1,0,0,0-.2-.085c-.5-.168-1.492-.309-1.863-.756a3.9,3.9,0,0,0-2.2-1.038c-.663-.054-.842-.2-.716-.572s-.537-.447-.394-1a.817.817,0,0,0-.2-.655c-.034.165-.306.136-.35.136h-.047l-.094,0c-.2.007-.561.02-.852.025-.126,0-.239,0-.318,0-.34,0-.358-.236-.233-.4s.438-.5.532-.595a.771.771,0,0,0,.183-.64c-.058-.282-.174-.358-.394-.3a2.72,2.72,0,0,0-.917.827c-.085.193-.635.184-.886-.12s-.791-.148-.989.085a.911.911,0,0,1-.984.259,10.78,10.78,0,0,1-1.672-1.132.954.954,0,0,0-1-.161,1.6,1.6,0,0,1-1.086.257c-.806.005-.663.489-.763.942s-.573.334-.9.477a.86.86,0,0,1-.548.034c-.126.123-.2.332-.055.688a1.344,1.344,0,0,1-.081,1.539c-.294.412.153.519-.4,1.413s-.877,1.61-.5,1.915.59.626.233.787-.358.68-.071,1.306.268.519.233,1.771-.663,2,.222,2.165a10.2,10.2,0,0,1,1.98.43c.751.268.894-.734,1.2-.537s.877.7,1.271.662.9-.053.9.715.233.394.429,1.933.215,2.075.9,1.789,1.181-.788,1.449-.394c.166.242.467.611.736.661.168.03.325-.063.428-.392a3.157,3.157,0,0,1,.68-1.36c.251-.3.376-1.235.788-1.467.386-.218.961-.811,1.488-1.15.035-.021.071-.047.105-.066.115-.067.242-.139.374-.217a3.145,3.145,0,0,0,1.362-1.286c.358-.769.411-1.127.715-1.789s.144-.125.788-1.038,2.059-.537,1.647-1.736a2.325,2.325,0,0,1-.09-.353" transform="translate(-280.523 -374.704)" fill="#4779c6"/><path d="M408.547,545.223c-.024-.429.035-.871-.681-.871s-1.168.1-1.025-.537-.37-.56-.608-1.305a2.728,2.728,0,0,1-.156-1.437,1.966,1.966,0,0,0-.8-1.407c-.262-.2-1.527,0-1.944-.227a3.417,3.417,0,0,0-1-.465c-.526-.143-1.468.06-1.742-.321s-.382.178-1.361,0c-.811-.149-1.35-.036-1.423-.518-.527.34-1.1.933-1.488,1.151-.412.233-.537,1.163-.788,1.467a3.156,3.156,0,0,0-.68,1.36c-.1.33-.26.422-.428.392a3.449,3.449,0,0,1-.116,1.432,12.548,12.548,0,0,0-.614,2.219.993.993,0,0,0,.749.381c.373,0,.9.525.946.6s.118,1.312.834,1.264c.08-.005.145-.01.2-.016.473-.038.358-.042.846.254.549.334.668-.476,1.194,0a5.185,5.185,0,0,0,2.434.906c.5,0,.763-.429,1.168-.764s.722-.186,1.169-.548c.344-.279,1.2-.054,1.552-.239.436-.228,1.217,1.479,1.933.669.649-.735.556-.376,1.1-.638a2.055,2.055,0,0,0,.19-.1c.763-.452.5-.023.477-1.049s.347-.215.62-.692a2.4,2.4,0,0,0,.254-.482c-.313-.081-.8-.145-.814-.472" transform="translate(-317.808 -434.41)" fill="#a9e3f4"/><path d="M376,608.137c.018-.429.609-.376.34-.7s-.573-.125-1.163-.3a2.12,2.12,0,0,1-1.629-1.342c-.286-.895-.913-.554-1.217-1.056s-1.181-.339-1.522-.769-1.217.071-1.754-.251a2.027,2.027,0,0,0-1.558-.34c-.239.08-.326.072-.364-.046a1.752,1.752,0,0,1-.977.529c-.77.072-1.611.925-1.969,1.1a6.36,6.36,0,0,0-1.862,1.6c-.125.394-1.969,1.879-2.326,2.594s-2.2,2.076-2.04,2.415a.457.457,0,0,0,.734.09c.2-.161.626-.376.841-.214s1.879,1.288,1.915,1.61.089,1.127.554.626.806-.609.967-.107-.053.554.877.912.931.108,1.181.734.841.572,1.128.84a3.166,3.166,0,0,1,.966,1.288c.358.806,1.146.43,1.11.823a1.155,1.155,0,0,1-.268.77c-.251.412-.716.143-.626.966s.16,1.574.788.895.912-.465.912-1.485a2.5,2.5,0,0,1,1.2-2.29,10.989,10.989,0,0,0,3.9-3.65c.823-1.646.913-2.379,1.4-2.862a2.252,2.252,0,0,0,.659-1.2.341.341,0,0,1-.194-.035c-.555-.286-.018-.716,0-1.145" transform="translate(-288.958 -487.036)" fill="#4779c6"/><path d="M416.453,593.16a4.7,4.7,0,0,1-.233-2.683,2.707,2.707,0,0,0,.013-1.265c-.543.263-.45-.1-1.1.638-.716.811-1.5-.9-1.933-.668-.355.186-1.208-.04-1.552.239-.447.362-.763.215-1.169.548s-.668.763-1.168.763a5.185,5.185,0,0,1-2.434-.906c-.526-.476-.645.334-1.194,0-.489-.3-.374-.292-.846-.254-.177.176-.348.338-.483.458-.524.459-.036.787,0,1.36a2.78,2.78,0,0,0,.047.508c.039.118.126.126.364.046a2.027,2.027,0,0,1,1.558.34c.537.322,1.414-.179,1.754.251s1.217.268,1.521.769.931.161,1.217,1.056a2.12,2.12,0,0,0,1.629,1.342c.59.179.895-.017,1.163.3s-.322.269-.34.7-.555.859,0,1.145a.341.341,0,0,0,.193.035c.5-.044,1.031-1.109,1.632-1.377.68-.3,1.02-1.5,1.361-1.879s.215-.931,0-1.467" transform="translate(-326.221 -475.601)" fill="#3364b8"/></svg>