<svg xmlns="http://www.w3.org/2000/svg" xmlns:xlink="http://www.w3.org/1999/xlink" width="156.256" height="156.256" viewBox="0 0 156.256 156.256"><defs><clipPath id="a"><path d="M173.082,223h87.6v77.31h-87.6Zm0,0" transform="translate(-173.082 -223)"/></clipPath><clipPath id="b"><path d="M173.082,197h87.6v77.388h-87.6Zm0,0" transform="translate(-173.082 -197)"/></clipPath><clipPath id="c"><path d="M173.082,197h87.6v23.351h-87.6Zm0,0" transform="translate(-173.082 -197)"/></clipPath><clipPath id="d"><path d="M237,157.688h7.912V178.4H237Zm0,0" transform="translate(-237 -157.688)"/></clipPath><clipPath id="e"><path d="M522,157.688h8.105V178.4H522Zm0,0" transform="translate(-522 -157.688)"/></clipPath><clipPath id="f"><path d="M299,191h79.421v83.486H299Zm0,0" transform="translate(-299 -191)"/></clipPath></defs><path d="M78.128,0a78.128,78.128,0,1,0,78.128,78.128A78.128,78.128,0,0,0,78.128,0" fill="#fff"/><g transform="translate(33.403 43.036)" clip-path="url(#a)"><path d="M261.1,296.283a4.758,4.758,0,0,1-4.758,4.76h-77.9a4.758,4.758,0,0,1-4.758-4.76V228.7a4.757,4.757,0,0,1,4.758-4.755h77.9A4.757,4.757,0,0,1,261.1,228.7v67.579" transform="translate(-173.571 -223.766)" fill="#aac7d4"/></g><g transform="translate(33.403 38.019)" clip-path="url(#b)"><path d="M261.1,269.878a4.757,4.757,0,0,1-4.758,4.755h-77.9a4.757,4.757,0,0,1-4.758-4.755V202.294a4.757,4.757,0,0,1,4.758-4.755h77.9a4.757,4.757,0,0,1,4.758,4.755v67.583" transform="translate(-173.571 -197.435)" fill="#e6ecee"/></g><g transform="translate(33.403 38.019)" clip-path="url(#c)"><path d="M261.1,220.666V202.294a4.757,4.757,0,0,0-4.758-4.755h-77.9a4.757,4.757,0,0,0-4.758,4.755v18.371H261.1" transform="translate(-173.571 -197.435)" fill="#3c8caa"/></g><path d="M226.231,353.854h-9.45v-6.577h9.45v6.577" transform="translate(-174.945 -280.257)" fill="#a8e1e1"/><path d="M305.691,353.854h-9.445v-6.577h9.445v6.577" transform="translate(-239.074 -280.257)" fill="#a8e1e1"/><path d="M385.133,353.854h-9.445v-6.577h9.445v6.577" transform="translate(-303.185 -280.257)" fill="#a8e1e1"/><path d="M464.579,353.854h-9.45v-6.577h9.45v6.577" transform="translate(-367.295 -280.257)" fill="#a8e1e1"/><path d="M544.02,353.854h-9.45v-6.577h9.45v6.577" transform="translate(-431.405 -280.257)" fill="#a8e1e1"/><path d="M226.231,409.952h-9.45v-6.577h9.45v6.577" transform="translate(-174.945 -325.529)" fill="#a8e1e1"/><path d="M305.691,409.952h-9.445v-6.577h9.445v6.577" transform="translate(-239.074 -325.529)" fill="#a8e1e1"/><path d="M385.133,409.952h-9.445v-6.577h9.445v6.577" transform="translate(-303.185 -325.529)" fill="#3c8caa"/><path d="M464.579,409.952h-9.45v-6.577h9.45v6.577" transform="translate(-367.295 -325.529)" fill="#a8e1e1"/><path d="M544.02,409.952h-9.45v-6.577h9.45v6.577" transform="translate(-431.405 -325.529)" fill="#a8e1e1"/><path d="M226.231,466.076h-9.45V459.5h9.45v6.576" transform="translate(-174.945 -370.822)" fill="#a8e1e1"/><path d="M305.691,466.076h-9.445V459.5h9.445v6.576" transform="translate(-239.074 -370.822)" fill="#a8e1e1"/><path d="M385.133,466.076h-9.445V459.5h9.445v6.576" transform="translate(-303.185 -370.822)" fill="#a8e1e1"/><path d="M464.579,466.076h-9.45V459.5h9.45v6.576" transform="translate(-367.295 -370.822)" fill="#a8e1e1"/><path d="M544.02,466.076h-9.45V459.5h9.45v6.576" transform="translate(-431.405 -370.822)" fill="#a8e1e1"/><path d="M226.231,522.174h-9.45V515.6h9.45v6.576" transform="translate(-174.945 -416.094)" fill="#a8e1e1"/><path d="M305.691,522.174h-9.445V515.6h9.445v6.576" transform="translate(-239.074 -416.094)" fill="#a8e1e1"/><path d="M385.133,522.174h-9.445V515.6h9.445v6.576" transform="translate(-303.185 -416.094)" fill="#a8e1e1"/><path d="M464.579,522.174h-9.45V515.6h9.45v6.576" transform="translate(-367.295 -416.094)" fill="#a8e1e1"/><path d="M544.02,522.174h-9.45V515.6h9.45v6.576" transform="translate(-431.405 -416.094)" fill="#a8e1e1"/><g transform="translate(45.738 30.432)" clip-path="url(#d)"><path d="M244.919,174.308a3.9,3.9,0,1,1-7.806,0V161.516a3.9,3.9,0,0,1,7.806,0v12.792" transform="translate(-237.091 -157.631)" fill="#aac7d4"/></g><g transform="translate(100.74 30.432)" clip-path="url(#e)"><path d="M530.56,174.308a3.9,3.9,0,1,1-7.806,0V161.516a3.9,3.9,0,0,1,7.806,0v12.792" transform="translate(-522.609 -157.631)" fill="#aac7d4"/></g><path d="M575.483,432.76a16.076,16.076,0,1,1-16.076-16.069,16.072,16.072,0,0,1,16.076,16.069" transform="translate(-438.476 -336.275)" fill="#fa7d28"/></svg>