<svg xmlns="http://www.w3.org/2000/svg" xmlns:xlink="http://www.w3.org/1999/xlink" width="156.256" height="156.256" viewBox="0 0 156.256 156.256"><defs><clipPath id="a"><path d="M251.48,110.676h56.044V224.169H251.48Zm0,0" transform="translate(-251.48 -110.676)"/></clipPath><clipPath id="b"><path d="M264,119h56.759V230.969H264Zm0,0" transform="translate(-264 -119)"/></clipPath></defs><path d="M78.128,0a78.128,78.128,0,1,0,78.128,78.128A78.128,78.128,0,0,0,78.128,0" fill="#fff"/><g transform="translate(48.513 21.35)" clip-path="url(#a)"><path d="M307.072,215.612v-5.129H251.48V216a8.355,8.355,0,0,0,8.344,8.352h38.5a8.742,8.742,0,0,0,8.752-8.738Zm-8.207-104.7H261.456a9.672,9.672,0,0,0-9.659,9.67v2.95H307.39v-4.086a8.534,8.534,0,0,0-8.525-8.534Zm8.207,97.03H251.8V125.753H307.05v82.186h.023" transform="translate(-251.48 -110.865)" fill="#43b7bf"/></g><path d="M293.34,239.762a3.065,3.065,0,1,0,3.129,3.064A3.108,3.108,0,0,0,293.34,239.762Zm9.862-95.056v-.772a.31.31,0,0,0-.317-.317H284.7a.309.309,0,0,0-.317.317v.772a.31.31,0,0,0,.317.317h18.183A.324.324,0,0,0,303.2,144.707Zm13.1,86.907H265.113V154.149h51.194v77.465" transform="translate(-213.97 -115.912)" fill="#fff"/><g transform="translate(50.928 22.956)" clip-path="url(#b)"><path d="M275.286,120.612a9.42,9.42,0,0,0-9.41,9.419V221a9.42,9.42,0,0,0,9.41,9.42H311.04a9.42,9.42,0,0,0,9.41-9.42v-90.97a9.42,9.42,0,0,0-9.41-9.419ZM311.04,231.42H275.286A10.428,10.428,0,0,1,264.879,221v-90.97a10.428,10.428,0,0,1,10.407-10.419h35.754a10.432,10.432,0,0,1,10.429,10.419V221a10.432,10.432,0,0,1-10.429,10.418" transform="translate(-264.709 -119.495)" fill="#0f0e0c"/></g></svg>