<svg xmlns="http://www.w3.org/2000/svg" xmlns:xlink="http://www.w3.org/1999/xlink" width="156.256" height="156.256" viewBox="0 0 156.256 156.256"><defs><clipPath id="a"><path d="M243,142h70.788v92.656H243Zm0,0" transform="translate(-243 -142)"/></clipPath><clipPath id="b"><path d="M201.211,187h70.8v92.849h-70.8Zm0,0" transform="translate(-201.211 -187)"/></clipPath></defs><path d="M78.128,0a78.128,78.128,0,1,0,78.128,78.128A78.127,78.127,0,0,0,78.128,0" fill="#fff"/><path d="M313.34,238.347H251.989a3.71,3.71,0,0,1-3.712-3.705V151.533a3.709,3.709,0,0,1,3.712-3.7H313.34a3.708,3.708,0,0,1,3.712,3.7v83.11a3.709,3.709,0,0,1-3.712,3.705" transform="translate(-200.352 -119.292)" fill="#abe3f9"/><g transform="translate(46.907 27.411)" clip-path="url(#a)"><path d="M309.12,234.146v-1.011H247.769a2.7,2.7,0,0,1-2.7-2.695V147.331a2.7,2.7,0,0,1,2.7-2.7H309.12a2.7,2.7,0,0,1,2.7,2.7v83.11a2.7,2.7,0,0,1-2.7,2.694v2.013a4.715,4.715,0,0,0,4.722-4.707v-83.11a4.715,4.715,0,0,0-4.722-4.71H247.769a4.716,4.716,0,0,0-4.722,4.71v83.11a4.717,4.717,0,0,0,4.722,4.708H309.12v-1" transform="translate(-243.038 -142.501)" fill="#496592"/></g><path d="M271.82,283.279h-62.2a3.266,3.266,0,0,1-3.267-3.261V195.937a3.262,3.262,0,0,1,3.267-3.257h52.969l12.5,16.259v71.079a3.269,3.269,0,0,1-3.271,3.261" transform="translate(-166.522 -155.486)" fill="#fff"/><g transform="translate(38.84 36.097)" clip-path="url(#b)"><path d="M267.669,279.137v-.991h-62.2a2.271,2.271,0,0,1-2.273-2.27V191.8a2.263,2.263,0,0,1,2.273-2.267h52.48l12,15.6v70.743a2.277,2.277,0,0,1-2.277,2.27v1.982a4.26,4.26,0,0,0,4.264-4.252V204.8a1.013,1.013,0,0,0-.207-.6l-12.5-16.259a.992.992,0,0,0-.791-.388H205.471a4.254,4.254,0,0,0-4.26,4.248v84.081a4.254,4.254,0,0,0,4.26,4.252h62.2v-.991" transform="translate(-201.211 -187.441)" fill="#496592"/></g><path d="M275.975,287.421v-.991h-62.2a2.271,2.271,0,0,1-2.273-2.27V200.08a2.263,2.263,0,0,1,2.273-2.267h7.485c-1.948,19.06.016,39.024,10.89,55.28a70.133,70.133,0,0,0,43.831,29.336c.756.155,1.51.293,2.27.42v1.312a2.277,2.277,0,0,1-2.277,2.27v.991" transform="translate(-170.677 -159.629)" fill="#d9f2fc"/><path d="M271.82,283.279v-.991a2.277,2.277,0,0,0,2.277-2.27v-1.312c.326.06.66.112.994.163v1.149a3.269,3.269,0,0,1-3.271,3.261h-62.2a3.266,3.266,0,0,1-3.267-3.261V195.937a3.262,3.262,0,0,1,3.267-3.257h7.588c-.036.329-.072.661-.1.991h-7.485a2.261,2.261,0,0,0-2.273,2.267v84.081a2.269,2.269,0,0,0,2.273,2.27h62.2v.991" transform="translate(-166.522 -155.486)" fill="#426592"/><path d="M497.539,192.68v16.259h12.528Zm0,0" transform="translate(-401.498 -155.486)" fill="#fff"/><path d="M493.388,188.537h-.993V204.8a.995.995,0,0,0,.993.99h12.528a.991.991,0,0,0,.787-1.592l-12.524-16.259a.995.995,0,0,0-1.784.6h.993l-.786.6,11.3,14.666h-9.515V188.537h-.994l-.786.6.786-.6" transform="translate(-397.347 -151.344)" fill="#496592"/><path d="M273.959,298.29h17.893a.991.991,0,1,0,0-1.981H273.959a.991.991,0,1,0,0,1.981" transform="translate(-220.274 -239.112)" fill="#496592"/><path d="M273.959,352.446h40.83a.99.99,0,1,0,0-1.981h-40.83a.99.99,0,1,0,0,1.981" transform="translate(-220.274 -282.814)" fill="#496592"/><path d="M273.959,406.6h40.83a.991.991,0,1,0,0-1.982h-40.83a.991.991,0,1,0,0,1.982" transform="translate(-220.274 -326.513)" fill="#496592"/><path d="M273.959,460.754h40.83a.99.99,0,1,0,0-1.981h-40.83a.99.99,0,1,0,0,1.981" transform="translate(-220.274 -370.215)" fill="#496592"/><path d="M273.959,514.907h40.83a.991.991,0,1,0,0-1.981h-40.83a.991.991,0,1,0,0,1.981" transform="translate(-220.274 -413.915)" fill="#496592"/><path d="M273.959,569.064h40.83a.991.991,0,1,0,0-1.982h-40.83a.991.991,0,1,0,0,1.982" transform="translate(-220.274 -457.617)" fill="#496592"/></svg>