<svg xmlns="http://www.w3.org/2000/svg" xmlns:xlink="http://www.w3.org/1999/xlink" width="117.334" height="117.334" viewBox="0 0 117.334 117.334"><defs><clipPath id="a"><path d="M159.449,159.449H276.783V276.783H159.449Zm0,0" transform="translate(-159.449 -159.449)" fill="#fff"/></clipPath></defs><path d="M348.559,287.337c-6.471-3.581-9.221-6.166-9.221-11.34,0-3.98,2.155-8.555,7.882-8.555a14.863,14.863,0,0,1,9.374,3.382l1.858-6.565a16.3,16.3,0,0,0-9.671-3.481v-9.65H344.17v10.047c-6.841,1.492-11.23,7.757-11.23,16.013,0,8.655,4.684,13.23,12.271,17.209,5.5,2.985,8.4,6.365,8.4,11.837,0,5.67-3.569,9.749-8.851,9.749a16.519,16.519,0,0,1-10.711-4.277l-1.785,6.665a17.946,17.946,0,0,0,11.381,4.376v10.046h4.687V322.449c7.661-1.69,11.752-9.051,11.752-16.91C360.092,296.687,356.222,291.517,348.559,287.337Zm0,0" transform="translate(-288.067 -233.076)" fill="#fff"/><g clip-path="url(#a)"><path d="M218.134,159.449a58.685,58.685,0,1,0,58.685,58.685A58.754,58.754,0,0,0,218.134,159.449Zm0,113.014c-28.745,0-54.056-25.583-54.056-54.328s25.311-53.7,54.056-53.7,54.493,24.951,54.493,53.7S246.88,272.463,218.134,272.463Zm0-3.146" transform="translate(-159.449 -159.449)" fill="#fff"/></g></svg>