<svg xmlns="http://www.w3.org/2000/svg" xmlns:xlink="http://www.w3.org/1999/xlink" width="93.61" height="91.409" viewBox="0 0 93.61 91.409"><defs><clipPath id="a"><path d="M1,10.633H94.61v91.409H1Zm0,0" transform="translate(-1 -10.633)" fill="#005e91"/></clipPath></defs><g transform="translate(-1 -10.633)"><path d="M377.656,198.707h6.319v4.906h-6.319Zm0,0" transform="translate(-333.019 -166.285)" fill="#005e91"/><path d="M268.547,198.707h6.32v4.906h-6.32Zm0,0" transform="translate(-236.551 -166.285)" fill="#005e91"/><path d="M486.773,198.707h6.319v4.906h-6.319Zm0,0" transform="translate(-429.494 -166.285)" fill="#005e91"/><path d="M268.547,322.207h6.32v4.906h-6.32Zm0,0" transform="translate(-236.551 -275.477)" fill="#005e91"/><path d="M486.773,322.207h6.319v4.906h-6.319Zm0,0" transform="translate(-429.494 -275.477)" fill="#005e91"/><path d="M377.656,322.207h6.319v4.906h-6.319Zm0,0" transform="translate(-333.019 -275.477)" fill="#005e91"/><path d="M268.547,445.711h6.32v4.906h-6.32Zm0,0" transform="translate(-236.551 -384.673)" fill="#005e91"/><path d="M377.656,445.711h6.319v4.906h-6.319Zm0,0" transform="translate(-333.019 -384.673)" fill="#005e91"/><path d="M486.773,445.711h6.319v4.906h-6.319Zm0,0" transform="translate(-429.494 -384.673)" fill="#005e91"/><path d="M268.547,569.211h6.32v4.906h-6.32Zm0,0" transform="translate(-236.551 -493.865)" fill="#005e91"/><path d="M377.656,569.211h6.319v4.906h-6.319Zm0,0" transform="translate(-333.019 -493.865)" fill="#005e91"/><path d="M486.773,569.211h6.319v4.906h-6.319Zm0,0" transform="translate(-429.494 -493.865)" fill="#005e91"/><g transform="translate(1 10.633)" clip-path="url(#a)"><path d="M92.18,90.663H90.012V54.038a2.452,2.452,0,0,0-2.452-2.453H72.82V21.434a2.452,2.452,0,0,0-2.452-2.453H62.575V13.043a2.452,2.452,0,0,0-2.452-2.453H34.479a2.452,2.452,0,0,0-2.452,2.453v5.939H25.311a2.452,2.452,0,0,0-2.452,2.453V51.585H8.118a2.453,2.453,0,0,0-2.452,2.453V90.663H3.5a2.453,2.453,0,0,0-2.452,2.453v6.439A2.453,2.453,0,0,0,3.5,102.007h88.68a2.452,2.452,0,0,0,2.452-2.453V93.116A2.451,2.451,0,0,0,92.18,90.663ZM85.107,56.491V90.663H72.819V56.491ZM36.931,15.5H57.67v3.486H36.931Zm-9.167,8.391H67.916V90.663H27.764ZM10.57,56.491h12.29V90.663H10.57ZM89.728,97.1H5.952V95.569H89.728Zm0,0" transform="translate(-1.041 -10.595)" fill="#005e91"/></g></g></svg>