<svg xmlns="http://www.w3.org/2000/svg" xmlns:xlink="http://www.w3.org/1999/xlink" width="70.262" height="91.545" viewBox="0 0 70.262 91.545"><defs><clipPath id="a"><path d="M207.9,188h62.976v83.955H207.9Zm0,0" transform="translate(-207.898 -188)" fill="#005e91"/></clipPath><clipPath id="b"><path d="M247,148h62.842v84.145H247Zm0,0" transform="translate(-247 -148)" fill="#005e91"/></clipPath></defs><g transform="translate(0 7.589)" clip-path="url(#a)"><path d="M270.737,270.3a1.746,1.746,0,0,1-1.746,1.746H209.644A1.746,1.746,0,0,1,207.9,270.3v-80.34a1.747,1.747,0,0,1,1.746-1.747h8.728v3.493H211.39v76.847h55.856v-6.986h3.491Zm0,0" transform="translate(-207.898 -188.177)" fill="#005e91"/></g><g transform="translate(7.419)" clip-path="url(#b)"><path d="M247.379,230.872V150.52a1.747,1.747,0,0,1,1.745-1.747h42.94a1.722,1.722,0,0,1,1.218.509L309.7,165.713a1.721,1.721,0,0,1,.509,1.219v63.94a1.747,1.747,0,0,1-1.745,1.747H249.124A1.747,1.747,0,0,1,247.379,230.872Zm59.339-1.747V169.735H291.011a1.747,1.747,0,0,1-1.745-1.747V152.267h-38.4v76.858Zm-1.437-62.885L292.756,153.7v12.537Zm0,0" transform="translate(-247.312 -148.636)" fill="#005e91"/></g><path d="M349.674,330.007h-41.2a1.871,1.871,0,1,1,0-3.741h41.2a1.871,1.871,0,1,1,0,3.741Zm-14.982,11.226H308.474a1.871,1.871,0,1,1,0-3.741h26.218a1.871,1.871,0,1,1,0,3.741Zm7.491,11.226H308.474a1.871,1.871,0,1,1,0-3.741h33.709a1.871,1.871,0,1,1,0,3.741ZM327.2,363.684H308.474a1.871,1.871,0,1,1,0-3.742H327.2a1.871,1.871,0,1,1,0,3.742Zm0,0" transform="translate(-292.464 -295.807)" fill="#005e91"/></svg>