<svg xmlns="http://www.w3.org/2000/svg" xmlns:xlink="http://www.w3.org/1999/xlink" width="105.367" height="137.284" viewBox="0 0 105.367 137.284"><defs><clipPath id="a"><path d="M207.9,188h96.033V315.56H207.9Zm0,0" transform="translate(-207.898 -188)" fill="#fff"/></clipPath><clipPath id="b"><path d="M247,148h95.862V275.8H247Zm0,0" transform="translate(-247 -148)" fill="#fff"/></clipPath></defs><g transform="translate(0 0)"><g transform="translate(0 9.723)" clip-path="url(#a)"><path d="M303.721,312.936a2.658,2.658,0,0,1-2.662,2.653h-90.5a2.658,2.658,0,0,1-2.662-2.653V190.869a2.659,2.659,0,0,1,2.662-2.654h13.309v5.308H213.222v116.76H298.4V299.668h5.323Zm0,0" transform="translate(-207.898 -188.157)" fill="#fff"/></g><g transform="translate(9.505)" clip-path="url(#b)"><path d="M247.379,273.469V151.426a2.659,2.659,0,0,1,2.663-2.653h65.5a2.633,2.633,0,0,1,1.858.774L342.444,174.5a2.608,2.608,0,0,1,.777,1.851v97.115a2.659,2.659,0,0,1-2.662,2.653H250.042A2.659,2.659,0,0,1,247.379,273.469Zm90.518-2.653V180.611H313.936a2.659,2.659,0,0,1-2.663-2.653V154.08H252.7V270.816ZM335.7,175.3,316.6,156.263V175.3Zm0,0" transform="translate(-247.277 -148.565)" fill="#fff"/></g><path d="M361.785,331.059H309a2.4,2.4,0,1,1,0-4.793h52.784a2.4,2.4,0,1,1,0,4.793ZM342.59,345.441H309a2.4,2.4,0,1,1,0-4.793h33.59a2.4,2.4,0,1,1,0,4.793Zm9.6,14.382H309a2.4,2.4,0,1,1,0-4.793h43.187a2.4,2.4,0,1,1,0,4.793ZM332.994,374.2H309a2.4,2.4,0,1,1,0-4.794h23.993a2.4,2.4,0,1,1,0,4.794Zm0,0" transform="translate(-279.916 -275.989)" fill="#fff"/></g></svg>