<svg xmlns="http://www.w3.org/2000/svg" xmlns:xlink="http://www.w3.org/1999/xlink" width="119.229" height="119.229" viewBox="0 0 119.229 119.229"><defs><clipPath id="a"><path d="M168.707,404h22.536v37.6H168.707Zm0,0" transform="translate(-168.707 -404)" fill="#005e91"/></clipPath><clipPath id="b"><path d="M183,168.707H295.057v56.1H183Zm0,0" transform="translate(-183 -168.707)" fill="#005e91"/></clipPath><clipPath id="c"><path d="M390,559h59.814v20.727H390Zm0,0" transform="translate(-390 -559)" fill="#005e91"/></clipPath><clipPath id="d"><path d="M552,404h22.493v37.6H552Zm0,0" transform="translate(-552 -404)" fill="#005e91"/></clipPath></defs><g transform="translate(0 59.383)" clip-path="url(#a)"><path d="M187.337,404.918h-14.9a3.726,3.726,0,0,0-3.726,3.726V431c0,8.23,6.673,11.178,14.9,11.178h3.726a3.726,3.726,0,0,0,3.726-3.726V408.644A3.726,3.726,0,0,0,187.337,404.918Zm0,3.726v29.807H183.61c-11.178,0-11.178-5.609-11.178-7.452V408.644h14.9" transform="translate(-168.707 -404.686)" fill="#005e91"/></g><g transform="translate(3.607)" clip-path="url(#b)"><path d="M239.357,168.707A55.889,55.889,0,0,0,183.469,224.6H187.2a52.162,52.162,0,0,1,104.325,0h3.726a55.889,55.889,0,0,0-55.889-55.888" transform="translate(-183.351 -168.707)" fill="#005e91"/></g><g transform="translate(55.85 98.502)" clip-path="url(#c)"><path d="M449.767,559.367a14.8,14.8,0,0,1-3.726,1.533v2.335A13.056,13.056,0,0,1,433,576.275H397.6a3.726,3.726,0,1,0-7.452,0V580H433a16.785,16.785,0,0,0,16.766-16.767v-3.867" transform="translate(-390.114 -559.274)" fill="#005e91"/></g><g transform="translate(96.735 59.383)" clip-path="url(#d)"><path d="M571.177,404.918h-14.9a3.726,3.726,0,0,0-3.726,3.726v29.807a3.726,3.726,0,0,0,3.726,3.726h7.452A11.179,11.179,0,0,0,574.9,431V408.644A3.726,3.726,0,0,0,571.177,404.918Zm0,3.726V431a7.462,7.462,0,0,1-7.452,7.452h-7.452V408.644h14.9" transform="translate(-552.409 -404.686)" fill="#005e91"/></g></svg>