<svg xmlns="http://www.w3.org/2000/svg" xmlns:xlink="http://www.w3.org/1999/xlink" width="137.186" height="98.117" viewBox="0 0 137.186 98.117"><defs><clipPath id="a"><path d="M119,238H256.186v90.579H119Zm0,0" transform="translate(-119 -238)" fill="#005e91"/></clipPath><clipPath id="b"><path d="M157,200.117h26.663v3.956H157Zm0,0" transform="translate(-157 -200.117)" fill="#005e91"/></clipPath><clipPath id="c"><path d="M119,200.117h3.98v3.956H119Zm0,0" transform="translate(-119 -200.117)" fill="#005e91"/></clipPath></defs><g transform="translate(0 7.538)" clip-path="url(#a)"><path d="M242.353,312.468a13.666,13.666,0,0,0-27.02,0h-4.777V259.077h21.609l2.938,4.643H217.414a2.308,2.308,0,0,0-2.286,2.321v20.893a2.308,2.308,0,0,0,2.286,2.322h33.859l.428.68v13.248h-6.857v4.643H251.7v4.643Zm-13.509,11.607a9.287,9.287,0,1,1,9.143-9.286A9.223,9.223,0,0,1,228.843,324.075Zm-77.72-23.214a13.8,13.8,0,0,0-13.511,11.607H123.692v-4.643h11.429v-4.643H123.692V242.827h82.292v4.643h-77.72v4.643h77.72v51.07h-38.86v4.643h38.86v4.643H164.633A13.794,13.794,0,0,0,151.123,300.862Zm0,23.214a9.287,9.287,0,1,1,9.143-9.286A9.222,9.222,0,0,1,151.123,324.075Zm86.863-55.8,10.349,16.34H219.7v-16.25h18.288ZM235.334,255.5a2.261,2.261,0,0,0-1.92-1.07H210.556V240.506a2.308,2.308,0,0,0-2.286-2.322H121.407a2.308,2.308,0,0,0-2.286,2.322v74.284a2.308,2.308,0,0,0,2.286,2.322h16.206a13.666,13.666,0,0,0,27.02,0h50.7a13.666,13.666,0,0,0,27.02,0h11.635a2.309,2.309,0,0,0,2.286-2.322V289.255a2.292,2.292,0,0,0-.366-1.252l-20.573-32.5" transform="translate(-119.092 -238.139)" fill="#005e91"/></g><g transform="translate(7.561)" clip-path="url(#b)"><path d="M157.258,203.9h26.56v-3.787h-26.56V203.9" transform="translate(-157.207 -200.117)" fill="#005e91"/></g><g clip-path="url(#c)"><path d="M122.915,200.117h-3.794V203.9h3.794v-3.787" transform="translate(-119.097 -200.117)" fill="#005e91"/></g></svg>