<svg xmlns="http://www.w3.org/2000/svg" xmlns:xlink="http://www.w3.org/1999/xlink" width="156.256" height="156.256" viewBox="0 0 156.256 156.256"><defs><clipPath id="a"><path d="M216,630h78.131v2.872H216Zm0,0" transform="translate(-216 -630)"/></clipPath><clipPath id="b"><path d="M489,165.125h16.591v17.531H489Zm0,0" transform="translate(-489 -165.125)"/></clipPath></defs><path d="M78.128,0a78.128,78.128,0,1,0,78.128,78.128A78.127,78.127,0,0,0,78.128,0" fill="#fff"/><path d="M261.059,469.453h15.428v32.465H261.059Zm0,0" transform="translate(-210.697 -378.888)" fill="#3c8caa"/><path d="M381.012,392.441H396.44v47.322H381.012Zm0,0" transform="translate(-307.509 -316.733)" fill="#3c8caa"/><path d="M500.969,296.418H516.4v65.846H500.969Zm0,0" transform="translate(-404.324 -239.234)" fill="#3c8caa"/><g transform="translate(41.67 121.537)" clip-path="url(#a)"><path d="M292.827,633.379H217.48a1.369,1.369,0,1,1,0-2.738h75.347a1.369,1.369,0,1,1,0,2.738Zm0,0" transform="translate(-216.088 -630.517)" fill="#002f42"/></g><path d="M191.787,258.227a1.369,1.369,0,0,1-1.047-2.252l11.154-13.185a1.372,1.372,0,0,1,1.774-.277l5.972,3.727,16.494-19.677a1.372,1.372,0,0,1,1.742-.3l6.717,3.913,20.848-24.751a1.37,1.37,0,0,1,2.1,1.763l-21.591,25.633a1.373,1.373,0,0,1-1.74.3l-6.714-3.912-16.518,19.7a1.372,1.372,0,0,1-1.778.282l-5.977-3.73-10.387,12.279A1.368,1.368,0,0,1,191.787,258.227Zm0,0" transform="translate(-153.682 -165.398)" fill="#002f42"/><g transform="translate(94.336 31.855)" clip-path="url(#b)"><path d="M505.832,165.125l-5.644,17.508-2.727-7.57-7.934-1.385Zm0,0" transform="translate(-489.425 -165.125)" fill="#002f42"/></g></svg>