<svg xmlns="http://www.w3.org/2000/svg" xmlns:xlink="http://www.w3.org/1999/xlink" width="135.912" height="104.167" viewBox="0 0 135.912 104.167"><defs><clipPath id="a"><path d="M107.707,431H243.619v60.838H107.707Zm0,0" transform="translate(-107.707 -431)" fill="#fff"/></clipPath></defs><g transform="translate(0 43.329)" clip-path="url(#a)"><path d="M242.4,445.627c-2.155-3.049-6.922-4.221-10.634-2.619l-25.642,10.469a7.965,7.965,0,0,0-7.642-5.455h-22.6A43.477,43.477,0,0,1,163.7,445.88l-.13-.052-.037-.014c-4-1.457-10.164-2.327-16.478-2.327h-9.986v-2.744a5.027,5.027,0,0,0-5.047-4.994h-5.44v-2.416a1.445,1.445,0,0,0-1.453-1.437H109.253a1.445,1.445,0,0,0-1.452,1.437v57.811a1.444,1.444,0,0,0,1.452,1.436h15.879a1.444,1.444,0,0,0,1.453-1.436V488h5.44a5.028,5.028,0,0,0,5.047-5v-3.495l42.221,9.694a13.843,13.843,0,0,0,2.879.28A18.781,18.781,0,0,0,191.6,487l48.454-31.471a7.586,7.586,0,0,0,3.4-4.855A6.475,6.475,0,0,0,242.4,445.627ZM123.681,489.706H110.705V434.769h12.976Zm10.486-44.791s0,.006,0,.009,0,.005,0,.008V483a2.134,2.134,0,0,1-2.142,2.121h-5.44v-46.5h5.44a2.134,2.134,0,0,1,2.142,2.12ZM240.6,450.12a4.71,4.71,0,0,1-2.136,3l-48.452,31.47a15.786,15.786,0,0,1-10.082,1.805l-42.859-9.84v-30.2h9.986c5.98,0,11.755.8,15.456,2.144l.13.052.038.014a46.225,46.225,0,0,0,13.2,2.327h22.6a5,5,0,0,1,5.091,4.668c0,.07.006.143.006.216a4.77,4.77,0,0,1-.094.933,5.059,5.059,0,0,1-5,3.949H175.916a18.018,18.018,0,0,0-11.683,4.133,1.427,1.427,0,0,0-.149,2.027,1.462,1.462,0,0,0,2.048.148,15.278,15.278,0,0,1,9.67-3.436l.08,0h22.6a7.966,7.966,0,0,0,7.852-6.263,7.821,7.821,0,0,0,.117-.821l26.438-10.794.029-.012c2.468-1.072,5.72-.327,7.1,1.628A3.646,3.646,0,0,1,240.6,450.12Zm0,0" transform="translate(-107.779 -431.692)" fill="#fff"/></g><path d="M377.95,297.766H369.6a1.437,1.437,0,1,0,0,2.875h5.387v4.513a1.437,1.437,0,0,0,2.875,0V300.64h.09a6.733,6.733,0,0,0,0-13.466h-3.055a3.859,3.859,0,1,1,0-7.717h8.351a1.438,1.438,0,0,0,0-2.875h-5.386v-4.512a1.437,1.437,0,0,0-2.875,0v4.512h-.09a6.733,6.733,0,1,0,0,13.466h3.055a3.859,3.859,0,0,1,0,7.717Zm0,0" transform="translate(-308.509 -264.679)" fill="#fff"/><path d="M322.845,292.185a23.93,23.93,0,1,0-23.935-23.93A23.958,23.958,0,0,0,322.845,292.185Zm0-44.987a21.056,21.056,0,1,1-21.06,21.056A21.082,21.082,0,0,1,322.845,247.2Zm0,0" transform="translate(-254.933 -244.324)" fill="#fff"/></svg>