<svg xmlns="http://www.w3.org/2000/svg" xmlns:xlink="http://www.w3.org/1999/xlink" width="156.256" height="156.256" viewBox="0 0 156.256 156.256"><defs><clipPath id="a"><path d="M224,344h89.3v51.749H224Zm0,0" transform="translate(-224 -344)"/></clipPath><clipPath id="b"><path d="M239.92,368.732l-1.858,1.072a20.062,20.062,0,0,0-2.887,1.939q-1.326,1.111-.951,1.736a.784.784,0,0,0,.312.3l15.8,9.086q1.343.749,5.011-1.032.859-.438,1.842-1.017l1.343-.766,8.227,4.753h.03a1.648,1.648,0,0,0,1.779.078l5.293-3.057,3.153,1.822q.873.453,2.591-.517l10.287-5.91a7.941,7.941,0,0,0,.874-.609q.563-.532,0-.876l-3.193-1.837,6.611-3.824q.843-.5-.124-1.031l-.663-.383.787-.462q.843-.5-.124-1.031l-6.517-3.778.429-.242q3.371-1.955,3.871-3.033a.66.66,0,0,0-.328-.922L275.682,350.1q-1.67-.969-6.852,2.033l-.156.094a29.087,29.087,0,0,1-3.458-3.05l3.676-2.127a15.1,15.1,0,0,0,1.483-.907q5.011-2.283,7.993-.6l34.279,19.829a3.047,3.047,0,0,1,1.03.938,1.557,1.557,0,0,1,.078,1.472c-.03.051-.056.093-.078.124q-.8,1.47-4.043,3.346l-39.1,22.629a19.721,19.721,0,0,1-5.026,2.158,6.648,6.648,0,0,1-5.167-.422h-.032l-34.264-19.814a2.826,2.826,0,0,1-1.092-.97q-.874-1.642,2.7-4.05a21.022,21.022,0,0,0,2.169-1.125l6.985-4.043a27.2,27.2,0,0,0,3.114,3.111" transform="translate(-224.78 -344.831)"/></clipPath><clipPath id="c"><path d="M150.828,271.313l89.688-51.926-44.974-77.965-89.689,51.926Zm0,0" transform="translate(-105.852 -141.422)"/></clipPath><linearGradient id="d" x1="-0.155" y1="-0.213" x2="-0.152" y2="-0.213" gradientUnits="objectBoundingBox"><stop offset="0" stop-color="#edf9fd"/><stop offset="0.25" stop-color="#edf9fd"/><stop offset="0.313" stop-color="#ecf9fd"/><stop offset="0.328" stop-color="#ecf9fd"/><stop offset="0.336" stop-color="#ebf9fd"/><stop offset="0.344" stop-color="#eaf8fd"/><stop offset="0.352" stop-color="#eaf8fd"/><stop offset="0.359" stop-color="#e9f8fd"/><stop offset="0.367" stop-color="#e9f8fd"/><stop offset="0.371" stop-color="#e8f8fd"/><stop offset="0.375" stop-color="#e7f7fd"/><stop offset="0.383" stop-color="#e7f7fd"/><stop offset="0.387" stop-color="#e7f7fc"/><stop offset="0.391" stop-color="#e6f7fc"/><stop offset="0.398" stop-color="#e6f7fc"/><stop offset="0.406" stop-color="#e5f7fc"/><stop offset="0.422" stop-color="#e5f6fc"/><stop offset="0.43" stop-color="#e4f6fc"/><stop offset="0.438" stop-color="#e3f6fc"/><stop offset="0.445" stop-color="#e3f6fc"/><stop offset="0.453" stop-color="#e2f6fc"/><stop offset="0.461" stop-color="#e1f5fc"/><stop offset="0.465" stop-color="#e0f5fc"/><stop offset="0.469" stop-color="#e0f5fc"/><stop offset="0.484" stop-color="#e0f5fb"/><stop offset="0.492" stop-color="#dff5fb"/><stop offset="0.5" stop-color="#def4fb"/><stop offset="0.508" stop-color="#def4fb"/><stop offset="0.516" stop-color="#ddf4fb"/><stop offset="0.523" stop-color="#dcf4fb"/><stop offset="0.531" stop-color="#dcf4fb"/><stop offset="0.539" stop-color="#dbf3fb"/><stop offset="0.543" stop-color="#daf3fb"/><stop offset="0.547" stop-color="#d9f3fb"/><stop offset="0.551" stop-color="#d9f3fa"/><stop offset="0.555" stop-color="#d9f3fa"/><stop offset="0.559" stop-color="#d8f3fa"/><stop offset="0.563" stop-color="#d8f2fa"/><stop offset="0.57" stop-color="#d8f2fa"/><stop offset="0.578" stop-color="#d7f2fa"/><stop offset="0.586" stop-color="#d7f2fa"/><stop offset="0.594" stop-color="#d6f2fa"/><stop offset="0.602" stop-color="#d6f2fa"/><stop offset="0.605" stop-color="#d5f1fa"/><stop offset="0.609" stop-color="#d4f1fa"/><stop offset="0.617" stop-color="#d4f1f9"/><stop offset="0.621" stop-color="#d3f1f9"/><stop offset="0.625" stop-color="#d2f1f9"/><stop offset="0.641" stop-color="#d2f1f9"/><stop offset="0.648" stop-color="#d2f0f9"/><stop offset="0.656" stop-color="#d1f0f9"/><stop offset="0.664" stop-color="#d1f0f9"/><stop offset="0.672" stop-color="#d0f0f9"/><stop offset="0.68" stop-color="#d0f0f9"/><stop offset="0.688" stop-color="#cfeff9"/><stop offset="0.703" stop-color="#cfeff9"/><stop offset="0.711" stop-color="#ceeff9"/><stop offset="0.719" stop-color="#cdeff9"/><stop offset="0.75" stop-color="#cdeff9"/><stop offset="0.875" stop-color="#cceff9"/><stop offset="1" stop-color="#cceef9"/></linearGradient><clipPath id="e"><path d="M273,370h57.9v23.944H273Zm0,0" transform="translate(-273 -370)"/></clipPath><clipPath id="f"><path d="M273.345,394.507q-.375-.624.951-1.736a20.059,20.059,0,0,1,2.887-1.939l1.858-1.072.453.384-2.311,1.329a20.122,20.122,0,0,0-2.887,1.939A2.935,2.935,0,0,0,273.345,394.507Zm34.45-21.252.156-.094q5.182-3,6.852-2.033l15.828,9.086a.66.66,0,0,1,.328.922,1.789,1.789,0,0,0-.328-.283l-15.828-9.07q-1.617-.953-6.533,1.823c-.161-.117-.319-.235-.475-.351" transform="translate(-273.262 -370.892)"/></clipPath><clipPath id="g"><path d="M330.419,392.779l0-24.029-58.034,0,0,24.029Zm0,0" transform="translate(-272.383 -368.75)"/></clipPath><linearGradient id="h" x1="-0.907" y1="-2.996" x2="-0.903" y2="-2.996" gradientUnits="objectBoundingBox"><stop offset="0" stop-color="#59c7f0"/><stop offset="0.125" stop-color="#59c7f0"/><stop offset="0.188" stop-color="#59c7f0"/><stop offset="0.203" stop-color="#59c7f0"/><stop offset="0.211" stop-color="#59c7f0"/><stop offset="0.215" stop-color="#5ac8ef"/><stop offset="0.219" stop-color="#5bc9ef"/><stop offset="0.223" stop-color="#5cc9ef"/><stop offset="0.227" stop-color="#5dcaf0"/><stop offset="0.23" stop-color="#5fcbf0"/><stop offset="0.234" stop-color="#61ccf0"/><stop offset="0.238" stop-color="#63cdef"/><stop offset="0.242" stop-color="#65cdef"/><stop offset="0.246" stop-color="#67ceef"/><stop offset="0.25" stop-color="#69cfef"/><stop offset="0.254" stop-color="#6bcfef"/><stop offset="0.258" stop-color="#6dd0ef"/><stop offset="0.262" stop-color="#6fd1ee"/><stop offset="0.266" stop-color="#72d1ee"/><stop offset="0.27" stop-color="#74d2ee"/><stop offset="0.273" stop-color="#77d3ee"/><stop offset="0.277" stop-color="#7ad3ee"/><stop offset="0.281" stop-color="#7cd4ee"/><stop offset="0.285" stop-color="#7fd5ee"/><stop offset="0.289" stop-color="#82d6ee"/><stop offset="0.293" stop-color="#84d7ee"/><stop offset="0.297" stop-color="#87d8ee"/><stop offset="0.301" stop-color="#8ad9ee"/><stop offset="0.305" stop-color="#8ddaef"/><stop offset="0.309" stop-color="#8fdbef"/><stop offset="0.313" stop-color="#92dcef"/><stop offset="0.316" stop-color="#96ddef"/><stop offset="0.32" stop-color="#9adeef"/><stop offset="0.324" stop-color="#9ddfef"/><stop offset="0.328" stop-color="#a0e0f0"/><stop offset="0.332" stop-color="#a3e1f0"/><stop offset="0.336" stop-color="#a7e2f1"/><stop offset="0.34" stop-color="#a9e3f1"/><stop offset="0.344" stop-color="#ace4f1"/><stop offset="0.348" stop-color="#afe5f1"/><stop offset="0.352" stop-color="#b3e6f1"/><stop offset="0.355" stop-color="#b6e7f2"/><stop offset="0.359" stop-color="#bae8f3"/><stop offset="0.375" stop-color="#bae8f3"/><stop offset="0.5" stop-color="#bae8f3"/><stop offset="1" stop-color="#bae8f3"/></linearGradient><clipPath id="i"><path d="M546,495h4.248v2.9H546Zm0,0" transform="translate(-546 -495)"/></clipPath><clipPath id="j"><path d="M549.988,498.05l-3.949-2.276.756-.438,3.193,1.837q.563.345,0,.876" transform="translate(-546.039 -495.336)"/></clipPath></defs><path d="M78.128,0a78.128,78.128,0,1,0,78.128,78.128A78.127,78.127,0,0,0,78.128,0" fill="#fff"/><path d="M199.607,293.032l1.944,1.111a.654.654,0,0,1,.328.922,3.068,3.068,0,0,1-.741.9A25.581,25.581,0,0,1,199.607,293.032Zm-26.489,19.36-5.893,3.378q-1,.579-1.843,1a11.017,11.017,0,0,1-3.777,1.251l-6.838-17.093,24.1-13.839q5.184-3,6.854-2.034l8.085,4.646-22.836,13.2a1.143,1.143,0,0,0-.422,1.532l.2.508a1.179,1.179,0,0,0-.2,1.368l2,4.942Q172.819,311.828,173.118,312.392ZM149.6,287.982l5.119-2.957q1.732-.97,2.622-.484l8.211,4.722q.562.345,0,.876a7.963,7.963,0,0,1-.874.609l-10.287,5.912a6.834,6.834,0,0,1-1.108.515l-3.683-9.195" transform="translate(-120.715 -229.467)" fill="#2b3a91" fill-rule="evenodd"/><path d="M169.092,261.474l-11.45,6.584-1.061-2.658a11.018,11.018,0,0,0,3.777-1.251q.844-.422,1.843-1l5.893-3.378Q168.559,260.644,169.092,261.474ZM205.7,239.362l.328.892-8.656,4.972q-.674-.914-1.263-1.883a3.07,3.07,0,0,0,.741-.9.654.654,0,0,0-.328-.922l-1.944-1.111q-.431-.994-.787-2.033l-.937-2.3-.016-.031q-.452-1.065-1.249-.6l-2.81,1.628-8.085-4.646q-1.67-.969-6.854,2.033l-24.1,13.839-1.483-3.753a6.833,6.833,0,0,0,1.108-.515l10.287-5.912a7.962,7.962,0,0,0,.874-.609q.562-.532,0-.876l-8.211-4.722q-.888-.485-2.622.484l-5.119,2.957-1.2-3.065,18.419-10.65.344-.173a21.456,21.456,0,0,1,1.982-1.016,14.608,14.608,0,0,1,3.56-1.173,7.66,7.66,0,0,1,1.919-.094,2.628,2.628,0,0,1,.579.063,5.034,5.034,0,0,1,1.825.626l33.7,19.484" transform="translate(-115.69 -176.845)" fill="#202756" fill-rule="evenodd"/><path d="M140.708,168.788l1.483,3.753,6.838,17.093,1.061,2.658.266.579,11.535-6.631a25.146,25.146,0,0,0,1.678,2.213l-6.985,4.043a21.023,21.023,0,0,1-2.169,1.125l-.594.25a.753.753,0,0,0-.2.078l-2.7.516h-.078a.106.106,0,0,0-.078-.031c-.064-.011-.121-.02-.172-.032h-.079a2.76,2.76,0,0,1-2.045-1.767l-14.174-35.3q-1.5-3.705,5.121-7.553l39.087-22.6a14.259,14.259,0,0,1,4.621-1.877,1.506,1.506,0,0,1,.218-.016,2.864,2.864,0,0,1,3.278,1.782l14.158,35.312a2.816,2.816,0,0,1,.281,1.141v.61q-.141,1.768-2.732,3.957l-1.187.876a15.093,15.093,0,0,1-1.483.907l-3.676,2.127a26.5,26.5,0,0,1-1.779-2.056l9.263-5.326-14.953-37.438-1.171.672h-.032l-.858.517-47.064,27.07.438,1.079,1.2,3.065,3.683,9.195" transform="translate(-108.138 -101.079)" fill="#f5fcfe" fill-rule="evenodd"/><path d="M234.565,190.557a1.591,1.591,0,0,1-.078,1.564q-.779,1.484-4.043,3.346l-39.1,22.6a21.317,21.317,0,0,1-5.026,2.206,6.827,6.827,0,0,1-5.167-.423l-34.3-19.829q-1.715-1.034-1.092-2.409a2.826,2.826,0,0,0,1.092.97l34.264,19.814h.032a6.648,6.648,0,0,0,5.167.422,19.722,19.722,0,0,0,5.026-2.158l39.1-22.629q3.247-1.876,4.043-3.346C234.509,190.65,234.534,190.608,234.565,190.557Zm-71.539,2.721q-.957-.671-1.842-1.392l-.453-.384a27.136,27.136,0,0,1-3.114-3.111,25.146,25.146,0,0,1-1.678-2.213c-.118-.174-.235-.351-.351-.533q-.533-.829-1-1.7-.3-.563-.569-1.141l-2-4.942a1.179,1.179,0,0,1,.2-1.368l1.8,4.434a24.921,24.921,0,0,0,1.38,2.549q.519.846,1.108,1.65c.126.169.253.339.383.508a26.887,26.887,0,0,0,1.842,2.118,28.669,28.669,0,0,0,3.363,2.972c.161.122.321.241.484.359q.782.57,1.616,1.1l.344.218h.03l22.994,13.292h.03a1.648,1.648,0,0,0,1.779.079L214.2,191.425l.663.383q.967.532.124,1.031l-6.611,3.824-.756.438-12.956,7.491-5.293,3.057a1.648,1.648,0,0,1-1.779-.078h-.03l-8.227-4.753-1.217-.7-.78-.453-.688-.4-.655-.375-.812-.469-2.138-1.235-3.411-1.97-2.224-1.291-.562-.328-2.178-1.259-.1-.055h-.03l-.344-.219c-.038-.024-.077-.048-.117-.07Q163.544,193.642,163.026,193.278Zm-18.466,1.063a2.888,2.888,0,0,1-3.466-1.767l-14.173-35.3q-1.515-3.705,5.119-7.553l39.087-22.6q3.935-2.283,6.042-1.877a14.26,14.26,0,0,0-4.621,1.877l-39.087,22.6q-6.619,3.847-5.121,7.553l14.174,35.3a2.76,2.76,0,0,0,2.045,1.767" transform="translate(-102.186 -101.016)" fill="#5fb6c7" fill-rule="evenodd"/><path d="M188.169,138.243l1.264-.7.063-.048,14.376,35.968-33.7-19.484a5.033,5.033,0,0,0-1.825-.626,2.628,2.628,0,0,0-.579-.063,7.658,7.658,0,0,0-1.919.094,14.607,14.607,0,0,0-3.56,1.173,21.452,21.452,0,0,0-1.982,1.016l-.344.173-18.42,10.65-.438-1.079,47.064-27.07" transform="translate(-113.858 -110.943)" fill="#2750a7" fill-rule="evenodd"/><path d="M217.262,200.328l11.45-6.584c.115.181.233.358.351.533l-11.535,6.631ZM257,177.5l8.656-4.972-.328-.892-14.376-35.968-.063.047-.374.187,1.171-.672,14.953,37.438-9.263,5.326c-.127-.164-.251-.327-.376-.494" transform="translate(-175.31 -109.115)" fill="#3d60b6" fill-rule="evenodd"/><g transform="translate(43.253 66.425)" clip-path="url(#a)"><g transform="translate(0.151 0.16)" clip-path="url(#b)"><g transform="translate(-22.964 -39.277)" clip-path="url(#c)"><path d="M152.2,272.478l89.444-51.784-44.825-77.706-89.444,51.784Zm0,0" transform="translate(-107.081 -142.686)" fill="url(#d)"/></g></g></g><path d="M279.465,395.919H279.4a.7.7,0,0,0-.609,0h.063l-1.733,1a.668.668,0,0,1-.218.094.537.537,0,0,1,.14.093l.718.439a.771.771,0,0,0,.672-.032l1.685-1.032c.053-.031.094-.057.125-.078-.03,0-.072-.036-.125-.109Zm-.748,2.049c0,.042.046.073.14.094l1.7,1.032h-.046a.931.931,0,0,0,.67,0v-.032l3.169-1.877a.169.169,0,0,0,.125-.047.358.358,0,0,1-.125-.032l-1.623-1.032a.894.894,0,0,0-.734,0l-3.138,1.846Zm5.26.547a.622.622,0,0,0-.656,0l-1.779.954-.063.124a.235.235,0,0,0,.063.11h.062l1.717,1.017a.622.622,0,0,0,.656,0l1.764-1.017a1.14,1.14,0,0,0,.063-.11c-.01,0-.031-.042-.063-.124Zm2.107,3.769v.063c.166.136.359.115.577-.063l4.012-2.3c.053-.021.1-.041.14-.063a.659.659,0,0,1-.14-.016l-1.717-1.031a.668.668,0,0,0-.656,0l-3.98,2.283a.338.338,0,0,0-.063.093c-.01.021-.02.032-.032.032.022,0,.053.026.094.078Zm7.633,1.923a.8.8,0,0,0-.656,0l-1.825,1.094c0,.011.026.037.078.078h.031l.656.376a.441.441,0,0,0,.563,0l1.717-1.033c.1,0,.161-.016.171-.047a.444.444,0,0,1-.109-.063Zm-5.425-6.028,3.411,1.97-4.653,2.588a.2.2,0,0,0-.062.14c0,.032.02.058.062.078v-.03l1.8,1.016v.031a.587.587,0,0,0,.64,0v-.031l4.355-2.557.812.469-1.687.931a.2.2,0,0,1-.14.093.209.209,0,0,0,.125.048h.015l.562.421,1.779-1.118.688.4-1.843,1.047.562.266a.193.193,0,0,0,.094.047.566.566,0,0,0,.531-.016v-.031l1.436-.86,1.217.7-1.343.766q-.982.579-1.842,1.017-3.667,1.783-5.011,1.032L274,397.515a.784.784,0,0,1-.312-.3,2.935,2.935,0,0,1,.951-1.094,20.12,20.12,0,0,1,2.887-1.939l2.311-1.329q.884.721,1.842,1.392l-1.842,1.063c0,.041.026.073.078.094l.7.375h-.047a.656.656,0,0,0,.7,0l1.46-.821c.04.023.079.046.117.07l.344.219h.03l.1.055-.335.2h-.063c-.042.042-.067.063-.078.063.01.032.057.047.14.047l1.717,1.048a.649.649,0,0,0,.453.079c.053-.02.115-.047.188-.079l.156-.093.562.328a.852.852,0,0,0-.109.032h.016l-1.655,1h-.047a.361.361,0,0,1-.14.047.3.3,0,0,0,.187.14l1.655,1a.629.629,0,0,0,.686,0Zm31.009-20.1a.656.656,0,0,0-.468-.064.184.184,0,0,0-.156.064l-3.122,1.783h-.094a.468.468,0,0,0,.094.078l1.811,1a.431.431,0,0,0,.609,0l3.09-1.736v.016c.042-.042.063-.073.063-.094l-.126-.016Zm-.953-.485v.047a.249.249,0,0,1,.062-.125c-.03,0-.051-.021-.062-.063l-1.764-1a.633.633,0,0,0-.484-.047.482.482,0,0,0-.172.047l-1.92,1.064c0,.03.063.073.187.125v-.047l1.733,1h-.016a.7.7,0,0,0,.672,0Zm-5.182-.609h-.048a.762.762,0,0,0,.672,0l1.732-1v.047a.255.255,0,0,1,.109-.14.287.287,0,0,1-.109-.016l-.7-.439a.567.567,0,0,0-.624,0l-1.7,1.017c-.083.011-.124.037-.124.078Zm14.688,5.943a.858.858,0,0,0-.546-.016,1.144,1.144,0,0,0-.171.016h.063L325.483,384h-.078l-.11.016.11.078h.078l1.718,1a.56.56,0,0,0,.655.016V385.1l1.687-1a.275.275,0,0,1,.14-.078.186.186,0,0,1-.11-.063ZM310.5,377.569l-.36-.212q-.786-.506-1.522-1.039,4.916-2.776,6.533-1.823l15.828,9.07a1.788,1.788,0,0,1,.328.283q-.5,1.079-3.871,3.033l-.429.242-1.327-.766,1.054-.587c.062-.051.093-.094.093-.124l-.093-.016L325,384.6a.83.83,0,0,0-.67,0l-.844.493-.8-.469,3.9-2.243v.078a.473.473,0,0,0,.109-.157.275.275,0,0,1-.109-.048l-1.7-.984a.5.5,0,0,0-.484-.032.284.284,0,0,0-.126.032l-3.715,2.118-.578-.336.032-.016v-.063l3.762-2.143v.016l.109-.109a.409.409,0,0,1-.109-.063l-1.639-1.031a.873.873,0,0,0-.531-.047.364.364,0,0,0-.155.047l-3.629,2.157-3.341-1.932,1.054-.649a.061.061,0,0,0,.032-.062l-.032-.048-1.764-1.032a.727.727,0,0,0-.686,0h.046l-.874.5-.632-.368.976-.554v.032a.311.311,0,0,0,.062-.047c-.01,0-.03-.026-.062-.078l-.765-.421a.162.162,0,0,0-.078-.017.6.6,0,0,0-.516.017l-.733.43" transform="translate(-220.843 -301.985)" fill="#edf9fe" fill-rule="evenodd"/><path d="M297.411,403.064l1.764.954c.032.083.053.124.063.124a1.143,1.143,0,0,1-.063.11l-1.764,1.017a.622.622,0,0,1-.656,0l-1.717-1.017h-.062a.235.235,0,0,1-.063-.11l.063-.124,1.779-.954A.622.622,0,0,1,297.411,403.064Zm-5.26-.547.14-.047,3.138-1.846a.894.894,0,0,1,.734,0l1.623,1.032a.358.358,0,0,0,.125.032.169.169,0,0,1-.125.047l-3.169,1.877v.032a.931.931,0,0,1-.67,0h.046l-1.7-1.032C292.2,402.59,292.151,402.558,292.151,402.517Zm.748-2.049.656.376c.053.072.094.109.125.109-.03.021-.072.047-.125.078l-1.685,1.033a.771.771,0,0,1-.672.032l-.718-.439a.537.537,0,0,0-.14-.093.669.669,0,0,0,.218-.094l1.733-1h-.063a.7.7,0,0,1,.609,0Zm2.218-1.672q.517.363,1.054.711l-1.46.821a.656.656,0,0,1-.7,0h.048l-.7-.375c-.053-.021-.078-.053-.078-.094Zm3.824,2.314-.156.093c-.073.032-.135.058-.188.079a.649.649,0,0,1-.453-.079l-1.717-1.048c-.083,0-.13-.015-.14-.047.01,0,.036-.02.078-.063h.063l.335-.2Zm8.335,4.824-4.355,2.557v.031a.587.587,0,0,1-.64,0v-.031l-1.8-1.016v.03c-.042-.02-.062-.047-.062-.078a.2.2,0,0,1,.062-.14l4.653-2.588Zm-.125,2.823.625.406a.444.444,0,0,0,.109.063c-.01.032-.067.047-.171.047L306,410.305a.441.441,0,0,1-.563,0l-.656-.376h-.031c-.052-.042-.078-.067-.078-.078l1.825-1.094A.8.8,0,0,1,307.152,408.756Zm1.591-1.978-1.779,1.118-.562-.421h-.015a.21.21,0,0,1-.125-.048.2.2,0,0,0,.14-.093l1.687-.931Zm.688.4.78.453-1.436.86v.031a.566.566,0,0,1-.531.016.194.194,0,0,1-.094-.047l-.562-.266Zm-7.7-4.449-1.632.931a.629.629,0,0,1-.686,0l-1.655-1a.3.3,0,0,1-.187-.14.362.362,0,0,0,.14-.047h.047l1.655-1h-.016a.848.848,0,0,1,.109-.032Zm-2.209,4.1-1.764-.923c-.042-.052-.072-.078-.094-.078.011,0,.022-.011.032-.032a.339.339,0,0,1,.063-.093l3.98-2.283a.668.668,0,0,1,.656,0l1.717,1.031a.657.657,0,0,0,.14.016c-.042.021-.087.042-.14.063l-4.012,2.3c-.218.177-.411.2-.577.063Zm31.727-20.486,3.629-2.157a.364.364,0,0,1,.155-.047.873.873,0,0,1,.531.047l1.639,1.031a.407.407,0,0,0,.109.063l-.109.109v-.016l-3.762,2.143v.063l-.032.016Zm-5.566-3.222.874-.5h-.046a.727.727,0,0,1,.686,0l1.764,1.032.032.048a.061.061,0,0,1-.032.062l-1.054.649Zm-1.747-1.008.733-.43a.6.6,0,0,1,.516-.017.162.162,0,0,1,.078.017l.765.421c.032.053.052.078.062.078a.312.312,0,0,1-.062.047V382.2l-.976.554Zm2.669-.587-.8-.454c0-.042.042-.067.124-.078l1.7-1.017a.567.567,0,0,1,.624,0l.7.439a.287.287,0,0,0,.109.016.255.255,0,0,0-.109.14v-.047l-1.732,1a.762.762,0,0,1-.672,0Zm5.182.609-1.764,1a.7.7,0,0,1-.672,0h.016l-1.733-1v.047c-.125-.051-.187-.094-.187-.125l1.92-1.064a.482.482,0,0,1,.172-.047.633.633,0,0,1,.484.047l1.764,1c.011.041.032.063.062.063a.249.249,0,0,0-.062.125Zm.953.485,1.7,1.032.126.016c0,.02-.021.052-.063.094v-.016l-3.09,1.736a.431.431,0,0,1-.609,0l-1.811-1a.468.468,0,0,1-.094-.078h.094l3.122-1.783a.184.184,0,0,1,.156-.064A.657.657,0,0,1,332.736,382.625Zm4.183,7.013.844-.493a.83.83,0,0,1,.67,0l1.733,1.033.093.016c0,.03-.032.073-.093.124l-1.054.587Zm-2.934-1.7,3.715-2.118a.284.284,0,0,1,.126-.032.5.5,0,0,1,.484.032l1.7.984a.275.275,0,0,0,.109.048.473.473,0,0,1-.109.157v-.078l-3.9,2.243Zm7.305-.46,1.717,1.031a.186.186,0,0,0,.11.063.276.276,0,0,0-.14.078l-1.687,1v.016a.56.56,0,0,1-.655-.016l-1.718-1h-.078l-.11-.078.11-.016h.078l1.718-1.079h-.063a1.149,1.149,0,0,1,.171-.016.858.858,0,0,1,.546.016" transform="translate(-234.277 -306.534)" fill="#75a3dc" fill-rule="evenodd"/><g transform="translate(52.715 71.445)" clip-path="url(#e)"><g transform="translate(0.051 0.172)" clip-path="url(#f)"><g transform="translate(-0.17 -0.414)" clip-path="url(#g)"><path d="M330.416,393.6V369.77H272.395V393.6Zm0,0" transform="translate(-272.393 -369.573)" fill="url(#h)"/></g></g></g><g transform="translate(105.43 95.582)" clip-path="url(#i)"><g transform="translate(0.008 0.065)" clip-path="url(#j)"><path d="M550.344,498.015l-.006-2.722-4.33.008.006,2.722Zm0,0" transform="translate(-546.014 -495.301)" fill="#71d0e2"/></g></g><path d="M478.941,505.093,491.9,497.6l3.949,2.276a7.935,7.935,0,0,1-.874.609l-10.287,5.91q-1.715.972-2.591.517l-3.153-1.822" transform="translate(-386.46 -401.518)" fill="#c2ebf4" fill-rule="evenodd"/><path d="M273.412,321.1l-.718-.829q-3.011,1.8-5.806,3.5.734.783,1.405,1.549,2.9-1.8,5.76-3.55Q273.756,321.495,273.412,321.1Zm1.311,4.129a3.805,3.805,0,0,1,.61.515q1.777-1.125,3.542-2.22-.217-.266-.514-.657c-.281-.366-.5-.652-.672-.861q-2.059,1.221-4.026,2.47A9.9,9.9,0,0,1,274.723,325.233Zm-1.311.7a8.269,8.269,0,0,1-.609-.908q-1.514.938-2.934,1.877.7.7,1.389,1.393,1.311-.845,2.67-1.69A4.572,4.572,0,0,1,273.412,325.937Zm3.044-5.6v-.03q4.542-2.705,9.007-5.317a13.567,13.567,0,0,1-1.483-1.392q-5.369,3.095-10.224,6.021a4.977,4.977,0,0,1,1,.844,6.482,6.482,0,0,1,.547.548Q275.878,320.651,276.456,320.337Zm1.092-5.895q-.545-.721-.859-1.235-6.7,3.768-12.612,7.38.655.783,1.3,1.549,4.107-2.439,8.2-4.895v-.032q2.156-1.188,4.277-2.423C277.762,314.682,277.663,314.567,277.549,314.443Zm5.791,5.441c-.25-.385-.452-.688-.608-.907q-2.155,1.3-4.215,2.519c.135.1.287.223.453.359a9.916,9.916,0,0,1,1,1.017q1.966-1.188,3.918-2.314C283.721,320.369,283.537,320.146,283.34,319.884Zm6.635-.672q-9.677,5.63-17.249,10.524.626.689,1.264,1.267,7.493-4.8,17.2-10.384Q290.615,319.885,289.974,319.212Zm-8.757-8.569q-1.951,1.094-3.887,2.189a8.241,8.241,0,0,1,.781.609c.312.26.588.506.827.735q1.765-1.032,3.575-2.064Q281.825,311.347,281.217,310.643Zm6.954.164q.589.969,1.263,1.883c.125.167.249.33.376.494a26.506,26.506,0,0,0,1.779,2.056,29.087,29.087,0,0,0,3.458,3.05c.156.117.314.235.475.351q.735.533,1.522,1.039l.36.212,1.116.64.632.368,2.224,1.29,3.341,1.932,2.161,1.251.578.336,2.131,1.235.8.469,2.194,1.267,1.327.766,6.517,3.777q.967.532.124,1.031l-.787.462-24.828,14.348a1.648,1.648,0,0,1-1.779-.079h-.03l-22.994-13.292h-.03l-.344-.218q-.834-.534-1.616-1.1c-.163-.118-.323-.237-.484-.359a28.668,28.668,0,0,1-3.363-2.972,26.888,26.888,0,0,1-1.842-2.118c-.131-.17-.257-.339-.383-.508q-.588-.8-1.108-1.65a24.923,24.923,0,0,1-1.38-2.549l-1.8-4.434-.2-.508a1.143,1.143,0,0,1,.422-1.532l22.836-13.2,2.81-1.628q.8-.469,1.249.6l.016.031.937,2.3q.354,1.039.787,2.033a25.579,25.579,0,0,0,1.53,2.933" transform="translate(-207.749 -244.309)" fill="#f6fcfe" fill-rule="evenodd"/><path d="M317.612,352.1q.64.673,1.217,1.407-9.708,5.583-17.2,10.384-.639-.579-1.264-1.267Q307.934,357.73,317.612,352.1Zm-6.635.672c.2.262.381.485.547.674q-1.951,1.125-3.918,2.314a9.91,9.91,0,0,0-1-1.017c-.166-.136-.318-.256-.453-.359q2.06-1.221,4.215-2.519C310.525,352.084,310.727,352.387,310.977,352.772Zm-5.791-5.441c.115.125.213.239.3.345q-2.121,1.234-4.277,2.423v.032q-4.089,2.455-8.2,4.895-.638-.767-1.3-1.549,5.916-3.611,12.612-7.38Q304.641,346.611,305.186,347.33Zm-1.092,5.895q-.577.313-1.155.674a6.491,6.491,0,0,0-.547-.548,4.977,4.977,0,0,0-1-.844q4.855-2.925,10.224-6.021a13.569,13.569,0,0,0,1.483,1.392q-4.465,2.611-9.007,5.317Zm-3.044,5.6a4.574,4.574,0,0,0,.516.671q-1.359.845-2.67,1.69-.686-.689-1.389-1.393,1.42-.938,2.934-1.877A8.268,8.268,0,0,0,301.049,358.825Zm1.311-.7a9.9,9.9,0,0,0-1.06-.752q1.966-1.249,4.026-2.47c.167.209.391.495.672.861q.3.39.514.657-1.763,1.094-3.542,2.22A3.8,3.8,0,0,0,302.36,358.121Zm-1.311-4.129q.344.39.64.672-2.858,1.752-5.76,3.55-.672-.766-1.405-1.549,2.793-1.7,5.806-3.5Zm7.805-10.461q.609.7,1.3,1.469-1.81,1.032-3.575,2.064c-.239-.228-.514-.474-.827-.735a8.244,8.244,0,0,0-.781-.609q1.935-1.1,3.887-2.189" transform="translate(-235.386 -277.197)" fill="#cbe3f6" fill-rule="evenodd"/></svg>