<svg xmlns="http://www.w3.org/2000/svg" xmlns:xlink="http://www.w3.org/1999/xlink" width="141.246" height="87.77" viewBox="0 0 141.246 87.77"><defs><clipPath id="a"><path d="M175.883,262.375H317.129v87.77H175.883Zm0,0" transform="translate(-175.883 -262.375)" fill="#005e91"/></clipPath></defs><g clip-path="url(#a)"><path d="M317.159,263.705a1.324,1.324,0,0,0-.032-.16,1.532,1.532,0,0,0-.055-.264,1.118,1.118,0,0,0-.12-.244c-.029-.048-.037-.1-.069-.143-.019-.024-.046-.035-.061-.057a1.581,1.581,0,0,0-.2-.178,1.352,1.352,0,0,0-.208-.141,1.105,1.105,0,0,0-.222-.071,1.176,1.176,0,0,0-.279-.056c-.027,0-.051-.016-.077-.016H177.27a.755.755,0,0,0-.08.016,1.321,1.321,0,0,0-.28.056.885.885,0,0,0-.429.212,1.645,1.645,0,0,0-.2.176c-.019.022-.046.033-.064.057a.925.925,0,0,0-.07.143,1.158,1.158,0,0,0-.119.244,1.418,1.418,0,0,0-.057.264,1.359,1.359,0,0,0-.031.162v85.11a1.29,1.29,0,0,0,.1.508,1.333,1.333,0,0,0,.723.72,1.373,1.373,0,0,0,.506.1H315.827a1.4,1.4,0,0,0,.508-.1,1.341,1.341,0,0,0,.722-.72,1.4,1.4,0,0,0,.1-.508Zm-136.673,4.464,41.846,32.671-41.846,42.438Zm66.063,46.1-63.006-47.862H310.034Zm-20.969-11.794,20.157,15.477a1.331,1.331,0,0,0,1.625,0l20.158-15.477L311.383,346.2h-129.3ZM270.9,300.84l41.705-32.671v75.109Zm0,0" transform="translate(-175.921 -262.375)" fill="#005e91"/></g></svg>