<svg xmlns="http://www.w3.org/2000/svg" xmlns:xlink="http://www.w3.org/1999/xlink" width="188" height="188" viewBox="0 0 188 188"><defs><clipPath id="a"><path d="M490,432h31.411v39.034H490Zm0,0" transform="translate(-490 -432)" fill="#005e91"/></clipPath></defs><g transform="translate(-866 -1488)"><circle cx="94" cy="94" r="94" transform="translate(866 1488)" fill="#fff"/><g transform="translate(836.412 1458.417)"><path d="M146.653,319.051H82.779a1.775,1.775,0,0,1-1.558-2.626l31.937-58.551a1.847,1.847,0,0,1,3.115,0l31.937,58.551a1.776,1.776,0,0,1-1.558,2.626ZM85.767,315.5h57.895L114.716,262.43Zm0,0" transform="translate(0 -152.885)" fill="#005e91"/><g transform="translate(134.759 127.131)" clip-path="url(#a)"><path d="M520.208,471.034H502.466a1.774,1.774,0,0,1,0-3.549h14.74l-16.412-29.843-6.763,14a1.774,1.774,0,1,1-3.194-1.547L499.1,433a1.78,1.78,0,0,1,1.551-1,1.868,1.868,0,0,1,1.6.919L521.766,468.4a1.776,1.776,0,0,1-1.558,2.63Zm0,0" transform="translate(-490.571 -432)" fill="#005e91"/></g><path d="M325.774,107.614A1.775,1.775,0,0,1,324,105.84V82.774A1.775,1.775,0,0,1,325.774,81h21.291a1.777,1.777,0,0,1,1.256,3.031l-5.844,5.841,5.841,5.841a1.777,1.777,0,0,1-1.253,3.031H327.549v7.1A1.775,1.775,0,0,1,325.774,107.614Zm1.774-12.42h15.234l-4.066-4.067a1.775,1.775,0,0,1,0-2.509l4.066-4.07H327.549Zm0,0" transform="translate(-211.058)" fill="#005e91"/><path d="M256.539,415.9c-.043,0-.082,0-.128,0a1.767,1.767,0,0,1-1.292-.706l-3.9-5.2-3.9,5.2a1.786,1.786,0,0,1-1.292.706,1.715,1.715,0,0,1-1.381-.514l-5.962-5.962a1.774,1.774,0,1,1,2.509-2.509l4.514,4.514,4.095-5.461a1.838,1.838,0,0,1,2.839,0l4.095,5.461,4.514-4.514a1.774,1.774,0,0,1,2.509,2.509l-5.962,5.962A1.77,1.77,0,0,1,256.539,415.9Zm0,0" transform="translate(-136.5 -281.676)" fill="#005e91"/></g></g></svg>