<svg xmlns="http://www.w3.org/2000/svg" width="91.145" height="91.409" viewBox="0 0 91.145 91.409"><g transform="translate(-4.193 -3.215)"><path d="M276.806,39.773c-9.07,0-16.451-8.2-16.451-18.279s7.381-18.279,16.451-18.279,16.451,8.2,16.451,18.279S285.878,39.773,276.806,39.773Zm0,0" transform="translate(-227.028 0)" fill="#005e91"/><path d="M268.428,662.521c0-9.032-9.022-16.451-20.107-16.451s-20.107,7.42-20.107,16.451l.007,1.839,40.206-.008Zm0,0" transform="translate(-198.543 -569.74)" fill="#005e91"/><path d="M93.922,375.483c-1.175-2.281-4.018-6.635-7.028-11.247-2.181-3.34-4.437-6.794-5.829-9.137l-.771-1.312C78.076,350,76.162,346.739,73,345.6c-6.31-2.269-12.674-3.78-23.212-3.78-9.445,0-16.4,1.135-23.253,3.8-2.833,1.1-4.559,3.9-6.555,7.136-.455.735-.927,1.5-1.435,2.285-.762,1.174-1.645,2.523-2.588,3.961-3.875,5.913-8.7,13.276-10.351,16.482-1.769,3.437-1.874,6.16-.345,9.112,1.217,2.354,2.908,5.425,5.028,9.128l.589,1,11.481,0v-1.841c0-13.124,12.276-23.763,27.418-23.763S77.2,379.754,77.2,392.879v1.83l11.481,0,.563-.983c2.1-3.676,3.8-6.747,5.031-9.129C95.8,381.642,95.691,378.917,93.922,375.483Zm0,0" transform="translate(0 -300.097)" fill="#005e91"/></g></svg>