<svg xmlns="http://www.w3.org/2000/svg" xmlns:xlink="http://www.w3.org/1999/xlink" width="156.256" height="156.256" viewBox="0 0 156.256 156.256"><defs><clipPath id="a"><path d="M292,208.984h43.573V252.56H292Zm0,0" transform="translate(-292 -208.984)"/></clipPath><clipPath id="b"><path d="M238,454h64.4v28.458H238Zm0,0" transform="translate(-238 -454)"/></clipPath></defs><path d="M78.128,0a78.128,78.128,0,1,0,78.128,78.128A78.128,78.128,0,0,0,78.128,0" fill="#fff"/><g transform="translate(56.298 40.292)" clip-path="url(#a)"><path d="M314.247,208.98a21.735,21.735,0,1,0,21.705,21.735,21.746,21.746,0,0,0-21.705-21.735" transform="translate(-292.438 -208.981)" fill="#51ade5"/></g><g transform="translate(45.887 87.531)" clip-path="url(#b)"><path d="M238.7,482.325l-.131.853h64.225l-.133-.853a32.357,32.357,0,0,0-63.961,0" transform="translate(-238.457 -454.719)" fill="#51ade5"/></g><path d="M504.492,274.749l.522.424a16.882,16.882,0,0,0,10.085,3.818c.224.008.448.014.669.014h0a17.105,17.105,0,1,0-8.33-32.026l-.439.245.066.5c.048.365.077.733.105,1.1l.078.471c3.638,7.889,2.746,17.195-2.382,24.895l-.374.559" transform="translate(-407.226 -197.596)" fill="#51ade5"/><path d="M486.354,443.113a27.169,27.169,0,0,0-11.892,2.709l-1.614.779,1.694.586c7.41,2.56,13.709,9.695,17.288,19.576l.178.487h21.619l-.132-.852a27.342,27.342,0,0,0-27.141-23.285" transform="translate(-381.683 -357.681)" fill="#51ade5"/><path d="M175.158,244.805A17.107,17.107,0,0,0,175.8,279c.222,0,.444-.005.67-.014a16.892,16.892,0,0,0,10.084-3.818l.519-.424-.371-.559c-5.131-7.7-6.023-17.006-2.386-24.895l.082-.471c.028-.371.053-.739.1-1.1l.067-.5-.437-.245a16.97,16.97,0,0,0-8.976-2.174" transform="translate(-128.13 -197.596)" fill="#51ade5"/><path d="M125.875,467.25H147.5l.178-.487c3.58-9.881,9.88-17.016,17.285-19.576l1.7-.586-1.616-.779A27.459,27.459,0,0,0,126.008,466.4l-.133.852" transform="translate(-101.606 -357.681)" fill="#51ade5"/></svg>