<svg xmlns="http://www.w3.org/2000/svg" xmlns:xlink="http://www.w3.org/1999/xlink" width="98.264" height="101.421" viewBox="0 0 98.264 101.421"><defs><clipPath id="a"><path d="M124.43,121h39.653v44.046H124.43Zm0,0" transform="translate(-124.43 -121)"/></clipPath><clipPath id="b"><path d="M224,121.1h57.981V222.5H224Zm0,0" transform="translate(-224 -121.098)"/></clipPath></defs><g clip-path="url(#a)"><path d="M134.057,130.173a13.7,13.7,0,0,1,10.137-4.535c5.211-.058,7.9,1.177,10.814,4.535,2.391,2.674,4.554,8.668,4.557,12.961a17.243,17.243,0,0,1-4.557,12.169c-3.277,3.377-6.395,5.1-11.22,5.1-2.553,0-4.913-.334-9.731-4.3a17.7,17.7,0,0,1-4.818-12.971A19.679,19.679,0,0,1,134.057,130.173Zm10.137,34.9a18.966,18.966,0,0,0,13.981-5.908c3.772-4,5.763-9.545,5.761-16.032s-1.989-12.033-5.759-16.031a19.519,19.519,0,0,0-27.987,0c-3.772,4-5.763,9.545-5.761,16.031s1.989,12.033,5.759,16.032a18.975,18.975,0,0,0,13.992,5.911h.013" transform="translate(-124.43 -121.16)" fill="#005e91"/></g><g transform="translate(21.262 0.016)" clip-path="url(#b)"><path d="M277.763,123.848l-50.437,96.435,4.359,3.006,50.437-96.435h0" transform="translate(-226.809 -123.373)" fill="#005e91"/></g><g transform="translate(58.611 57.375)" clip-path="url(#a)"><path d="M134.057,130.173a13.7,13.7,0,0,1,10.137-4.535c5.211-.058,7.9,1.177,10.814,4.535,2.391,2.674,4.554,8.668,4.557,12.961a17.243,17.243,0,0,1-4.557,12.169c-3.277,3.377-6.395,5.1-11.22,5.1-2.553,0-4.913-.334-9.731-4.3a17.7,17.7,0,0,1-4.818-12.971A19.679,19.679,0,0,1,134.057,130.173Zm10.137,34.9a18.966,18.966,0,0,0,13.981-5.908c3.772-4,5.763-9.545,5.761-16.032s-1.989-12.033-5.759-16.031a19.519,19.519,0,0,0-27.987,0c-3.772,4-5.763,9.545-5.761,16.031s1.989,12.033,5.759,16.032a18.975,18.975,0,0,0,13.992,5.911h.013" transform="translate(-124.43 -121.16)" fill="#005e91"/></g></svg>