<svg xmlns="http://www.w3.org/2000/svg" xmlns:xlink="http://www.w3.org/1999/xlink" width="113.324" height="90.747" viewBox="0 0 113.324 90.747"><defs><clipPath id="a"><path d="M270,513.625h66.489V528.5H270Zm0,0" transform="translate(-270 -513.625)" fill="#005e91"/></clipPath><clipPath id="b"><path d="M431.8,374.605h53.973v53.973H431.8Zm0,0" transform="translate(-431.805 -374.605)" fill="#005e91"/></clipPath></defs><path d="M345.027,320.4a1.416,1.416,0,0,0,2.833,0V256.486a13.25,13.25,0,0,0-13.219-13.213H308.822a13.25,13.25,0,0,0-13.22,13.213V320.4a1.416,1.416,0,0,0,2.832,0V256.486A10.421,10.421,0,0,1,308.822,246.1h25.819a10.419,10.419,0,0,1,10.387,10.382V320.4" transform="translate(-274.389 -243.273)" fill="#005e91"/><g transform="translate(14.044 75.702)" clip-path="url(#a)"><path d="M271.778,513.66h63.561a1.416,1.416,0,0,1,1.417,1.415v12.034a1.417,1.417,0,0,1-1.417,1.415H271.778a1.416,1.416,0,0,1-1.415-1.415V515.075A1.415,1.415,0,0,1,271.778,513.66Zm62.145,2.831H273.2v9.2h60.728v-9.2" transform="translate(-270.261 -513.65)" fill="#005e91"/></g><path d="M333.134,282.563H356.5a5.48,5.48,0,0,1,5.471,5.468v10.078a5.48,5.48,0,0,1-5.471,5.468H333.134a5.48,5.48,0,0,1-5.47-5.468V288.031a5.48,5.48,0,0,1,5.47-5.468Zm23.362,2.831H333.134a2.65,2.65,0,0,0-2.637,2.637v10.078a2.646,2.646,0,0,0,2.637,2.636H356.5a2.648,2.648,0,0,0,2.639-2.636V288.031a2.652,2.652,0,0,0-2.639-2.637" transform="translate(-297.473 -271.561)" fill="#005e91"/><path d="M232.218,293.462a1.412,1.412,0,1,0-.72-2.731,29.214,29.214,0,0,0-9.564,4.684c-4.725,3.767.043,14.494.057,14.526a1.412,1.412,0,0,0,2.589-1.129c-.01-.025-3.894-8.788-.886-11.185a26.105,26.105,0,0,1,8.524-4.164" transform="translate(-219.846 -277.408)" fill="#005e91"/><path d="M231.226,302.255a.706.706,0,0,0-1.355.4c.015.053,5.569,18.672-2.449,11.861a.707.707,0,1,0-.915,1.077c11.665,9.911,4.738-13.271,4.719-13.338" transform="translate(-224.463 -285.374)" fill="#005e91"/><path d="M223.465,322.251a.706.706,0,1,0-.991,1.006l3.591,3.54a.706.706,0,0,0,.99-1.008l-3.59-3.538" transform="translate(-221.586 -299.99)" fill="#005e91"/><path d="M229.907,353.8a1.416,1.416,0,0,0-2.833,0v31.917a1.5,1.5,0,0,0,.012.185c.074.791.919,7.772,7.215,7.559a6.23,6.23,0,0,0,6.925-3.633h0a1.421,1.421,0,0,0,.141-.647V359.188c.081-.33.735-1.809,5.956-.435a1.413,1.413,0,1,0,.719-2.732c-7.964-2.1-9.262,1.755-9.461,2.735a1.416,1.416,0,0,0-.046.356v29.76a3.42,3.42,0,0,1-3.7,1.816,1.409,1.409,0,0,0-.492-.058v0c-3.807.214-4.376-4.374-4.433-4.965V353.8" transform="translate(-225.05 -321.831)" fill="#005e91"/><path d="M464.269,413.917a12.614,12.614,0,1,1,6.869-16.464A12.612,12.612,0,0,1,464.269,413.917Zm21.926-17.77-3.437-8.356-6.96,2.863a19.95,19.95,0,0,0-4.645-4.669l2.9-6.943-8.337-3.477-2.894,6.943a19.919,19.919,0,0,0-6.59-.016l-2.863-6.96-8.351,3.434,2.863,6.96a19.961,19.961,0,0,0-4.672,4.647l-6.945-2.9-3.479,8.335,6.945,2.9a7.38,7.38,0,0,0-.253,2.284,23.727,23.727,0,0,0,.239,4.3l-6.96,2.86,3.437,8.352,6.956-2.86a19.96,19.96,0,0,0,4.647,4.671l-2.9,6.943,8.336,3.477,2.9-6.944a19.881,19.881,0,0,0,6.589.017l2.862,6.959,8.348-3.434-2.858-6.959a19.948,19.948,0,0,0,4.671-4.648l6.942,2.9,3.479-8.336-6.945-2.9a20.044,20.044,0,0,0,.018-6.586l6.96-2.861" transform="translate(-373.137 -338.497)" fill="#005e91"/><g transform="translate(59.351 36.775)" clip-path="url(#b)"><path d="M463.669,413.318l-.089-.215a12.37,12.37,0,1,1,7.676-11.455A12.355,12.355,0,0,1,463.58,413.1l.178.431a12.837,12.837,0,1,0-4.881.968,12.851,12.851,0,0,0,4.881-.968Zm21.926-17.77.216-.088-3.437-8.356a.234.234,0,0,0-.3-.127l-6.96,2.863.089.215.19-.136a20.191,20.191,0,0,0-4.7-4.723l-.136.189.214.09,2.9-6.945a.231.231,0,0,0,0-.177.234.234,0,0,0-.126-.127l-8.336-3.477a.235.235,0,0,0-.306.125l-2.894,6.945.216.09.038-.23a20.144,20.144,0,0,0-6.667-.017l.038.231.215-.089-2.862-6.96a.232.232,0,0,0-.3-.127l-8.351,3.433a.234.234,0,0,0-.127.3l2.863,6.96.216-.089-.135-.19a20.2,20.2,0,0,0-4.726,4.7l.189.136.091-.215-6.946-2.9a.232.232,0,0,0-.3.125l-3.479,8.335a.233.233,0,0,0,.125.3l6.946,2.9.09-.215-.23-.039a20.162,20.162,0,0,0-.014,6.665l.23-.037-.089-.216-6.96,2.861a.232.232,0,0,0-.127.3l3.437,8.353a.233.233,0,0,0,.3.127l6.956-2.86-.089-.216-.189.136a20.2,20.2,0,0,0,4.7,4.724l.137-.189-.216-.09-2.9,6.943a.234.234,0,0,0,0,.178.229.229,0,0,0,.126.126l8.336,3.477a.232.232,0,0,0,.3-.125l2.9-6.943-.214-.09-.039.23a20.134,20.134,0,0,0,6.667.018l-.038-.231-.216.088,2.863,6.959a.233.233,0,0,0,.3.127l8.348-3.434a.233.233,0,0,0,.127-.3l-2.858-6.959-.215.089.134.19a20.164,20.164,0,0,0,4.725-4.7l-.189-.137-.09.216,6.941,2.9a.234.234,0,0,0,.305-.125l3.479-8.337a.225.225,0,0,0,0-.178.234.234,0,0,0-.126-.127l-6.946-2.9-.09.214.231.039a20.349,20.349,0,0,0,.017-6.663l-.23.038.088.216,6.96-2.861a.227.227,0,0,0,.126-.127.222.222,0,0,0,0-.177l-.216.088-.088-.216-6.96,2.862a.232.232,0,0,0-.142.253,19.839,19.839,0,0,1-.018,6.51.232.232,0,0,0,.14.254l6.73,2.808-3.3,7.905-6.727-2.809a.235.235,0,0,0-.279.08,19.737,19.737,0,0,1-4.617,4.594.231.231,0,0,0-.08.278l2.77,6.743-7.917,3.256-2.773-6.743a.236.236,0,0,0-.254-.141,19.638,19.638,0,0,1-6.513-.016.23.23,0,0,0-.254.14l-2.81,6.728-7.906-3.3,2.809-6.728a.23.23,0,0,0-.079-.279,19.722,19.722,0,0,1-4.592-4.616.232.232,0,0,0-.279-.081l-6.74,2.772-3.259-7.921,6.744-2.772a.235.235,0,0,0,.141-.254,19.67,19.67,0,0,1,.015-6.511.234.234,0,0,0-.141-.254l-6.73-2.808,3.3-7.9,6.73,2.808a.235.235,0,0,0,.28-.08,19.723,19.723,0,0,1,4.616-4.593.231.231,0,0,0,.081-.278l-2.774-6.743,7.92-3.256,2.774,6.743a.232.232,0,0,0,.254.14,19.691,19.691,0,0,1,6.513.018.233.233,0,0,0,.254-.14l2.805-6.729,7.906,3.3-2.809,6.729a.234.234,0,0,0,.079.279,19.735,19.735,0,0,1,4.592,4.615.236.236,0,0,0,.279.081l6.744-2.773,3.348,8.139.215-.089-.088-.216.088.216" transform="translate(-431.889 -374.672)" fill="#005e91"/></g></svg>