<svg xmlns="http://www.w3.org/2000/svg" xmlns:xlink="http://www.w3.org/1999/xlink" width="67.217" height="89.557" viewBox="0 0 67.217 89.557"><defs><clipPath id="a"><path d="M117,21h67.217v89.557H117Zm0,0" transform="translate(0)" fill="#005e91"/></clipPath></defs><g transform="translate(-117 -21)" clip-path="url(#a)"><path d="M148.925,48.009A2.08,2.08,0,0,1,146.81,50.1H124.678a2.075,2.075,0,0,1-2.115-2.092V29.348a2.076,2.076,0,0,1,2.115-2.092H146.81a2.08,2.08,0,0,1,2.115,2.092Zm25.8,2.384c-2.8-.615-3.816-2.054-3.816-3.377V42.193s1.862.416,2.308.531c.908.238,1.485,1.63,1.508,2.846S174.727,50.393,174.727,50.393Zm5.638,29.3c0-.046-.777-5.923-.777-5.923V46.632a9.792,9.792,0,0,0-2.923-7.253L164.1,26.871c-.869,0-3.269,2.393-3.269,2.393,0,.869,6.239,7.061,6.239,7.061l-.185,10.53a6.779,6.779,0,0,0,6.792,6.769l1.685.023-.6,20.123.839,6.9,3.777,20.361a5.259,5.259,0,0,1-5.27,5.276c-2.208,0-4.77-1.824-4.77-4.176l.046-35.683a7.866,7.866,0,0,0-7.862-7.861h-7.585c.531-.03.554-23.368.554-28.322v-.915a7.68,7.68,0,0,0-7.678-7.661H124.678A7.68,7.68,0,0,0,117,29.349v80.881l37.487.624.038-47.252H161.6a2.952,2.952,0,0,1,2.946,2.946V102.13c0,4.777,4.462,8.961,9.554,8.961,4.808,0,10.194-3.823,10.194-8.961C184.213,100.945,180.366,79.692,180.366,79.692Zm0,0" transform="translate(0 -0.608)" fill="#005e91"/></g></svg>