<svg xmlns="http://www.w3.org/2000/svg" xmlns:xlink="http://www.w3.org/1999/xlink" width="157" height="145" viewBox="0 0 157 145"><defs><clipPath id="a"><rect width="157" height="145" transform="translate(0 630.277)" fill="#005e91"/></clipPath></defs><g transform="translate(0 -630.277)" clip-path="url(#a)"><g transform="translate(5.958 630.107)"><path d="M546.321,713.085a1.882,1.882,0,0,0,0-3.765,41.022,41.022,0,1,0,41.021,41.024,1.882,1.882,0,1,0-3.765,0,37.257,37.257,0,1,1-37.257-37.259" transform="translate(-482.178 -669.643)" fill="#005e91"/><path d="M348.492,488.42a1.883,1.883,0,0,0-1.882,1.882,60.379,60.379,0,1,1-60.379-60.379,1.882,1.882,0,0,0,0-3.765A64.142,64.142,0,1,0,350.374,490.3a1.883,1.883,0,0,0-1.882-1.882" transform="translate(-222.087 -409.601)" fill="#005e91"/><path d="M851.707,269.687l-13.112-2,5-5,9-.059a1.882,1.882,0,0,0-.015-3.764h-.016l-5.18.033,4.376-4.375,8.989-.056a1.882,1.882,0,0,0-.009-3.764h-.01l-5.18.032,5.751-5.751,13.111,2Zm-37.413,34.375a14.742,14.742,0,1,1-14.742-14.742,14.6,14.6,0,0,1,8.96,3.117l-10.293,10.295a1.883,1.883,0,0,0,2.665,2.66l10.291-10.29A14.6,14.6,0,0,1,814.293,304.062Zm19.633-52.155L856.633,229.2l2,13.111-4.8,4.8a.008.008,0,0,1-.005,0l-.945.946.033-5.18a1.88,1.88,0,0,0-1.867-1.894h-.015a1.882,1.882,0,0,0-1.882,1.869l-.059,8.993-4.375,4.378.032-5.182a1.88,1.88,0,0,0-1.868-1.894h-.014a1.881,1.881,0,0,0-1.882,1.868l-.059,9-5,5Zm46.235-6.81a1.883,1.883,0,0,0-1.506-1.273l-16.362-2.5-2.5-16.364a1.884,1.884,0,0,0-3.2-1.047L830.589,249.92a1.89,1.89,0,0,0-.53,1.615l2.566,16.789-21.455,21.454a18.321,18.321,0,0,0-11.619-4.221,18.506,18.506,0,1,0,18.506,18.506,18.321,18.321,0,0,0-4.223-11.621l21.456-21.455,16.789,2.566a1.824,1.824,0,0,0,.285.023,1.892,1.892,0,0,0,1.333-.552l26.009-26.008a1.888,1.888,0,0,0,.456-1.917" transform="translate(-735.408 -223.361)" fill="#005e91"/></g></g></svg>