<svg xmlns="http://www.w3.org/2000/svg" xmlns:xlink="http://www.w3.org/1999/xlink" width="98.508" height="96.36" viewBox="0 0 98.508 96.36"><defs><clipPath id="a"><path d="M243,248h98.508v96.36H243Zm0,0" transform="translate(-243 -248)" fill="#fff"/></clipPath></defs><g clip-path="url(#a)"><path d="M338.057,325.668l-26.628-26.6a35.844,35.844,0,1,0-14.845,16.312l25.883,25.859a11.016,11.016,0,1,0,15.59-15.568Zm-81.477-18.1c-5.386-5.381-9.813-15.663-9.813-23.273s4.427-17.943,9.813-23.324a34.093,34.093,0,0,1,22.183-9.192c7.616,0,17.243,3.812,22.628,9.192s10.038,15.716,10.038,23.324-3.441,16.727-8.827,22.108-16.22,10.242-23.837,10.242S261.966,312.951,256.58,307.571Zm77.638,30.612c-1.441,1.437-5.65,3.015-7.091,1.576l-27.049-26.524c.513-.456,3.541-3.124,4.032-3.614,1.27-1.268,4.634-4.951,5.685-6.365L336.056,330.3C337.5,331.744,335.657,336.746,334.218,338.183Zm0,0" transform="translate(-242.946 -248.338)" fill="#fff"/></g></svg>