<svg xmlns="http://www.w3.org/2000/svg" xmlns:xlink="http://www.w3.org/1999/xlink" width="156.256" height="156.256" viewBox="0 0 156.256 156.256"><defs><clipPath id="a"><path d="M207.332,139.836h76.247v102.29H207.332Zm0,0" transform="translate(-207.332 -139.836)"/></clipPath><clipPath id="b"><path d="M207.332,275h76.135v76.2H207.332Zm0,0" transform="translate(-207.332 -275)"/></clipPath></defs><path d="M78.128,0a78.128,78.128,0,1,0,78.128,78.128A78.128,78.128,0,0,0,78.128,0" fill="#fff"/><g transform="translate(39.996 17.718)" clip-path="url(#a)"><path d="M495.149-773.714v-19.619a19.923,19.923,0,0,0-19.924-19.919h-.884a19.923,19.923,0,0,0-19.924,19.919v19.619" transform="translate(-436.66 824.859)" fill="none" stroke="#a8e1e1" stroke-miterlimit="10" stroke-width="10"/></g><g transform="translate(39.996 53.05)" clip-path="url(#b)"><path d="M283.968,313.918a38,38,0,1,1-38-38,38,38,0,0,1,38,38" transform="translate(-207.843 -275.738)" fill="#3c8caa"/></g><path d="M379.743,394.4a7.924,7.924,0,1,0-12.388,6.545l-3.16,18.882h15.248l-3.166-18.882a7.92,7.92,0,0,0,3.466-6.545" transform="translate(-293.697 -311.916)" fill="#0f4678"/></svg>