<svg xmlns="http://www.w3.org/2000/svg" xmlns:xlink="http://www.w3.org/1999/xlink" width="98.354" height="117.229" viewBox="0 0 98.354 117.229"><defs><clipPath id="a"><path d="M235.473,203h98.354V320.229H235.473Zm0,0" transform="translate(-235.473 -203)" fill="#005e91"/></clipPath></defs><path d="M354.321,292.531l-39.475,39.45-10.195-10.188a3.593,3.593,0,1,0-5.083,5.079L312.3,339.6a3.6,3.6,0,0,0,5.084,0l42.015-41.99a3.593,3.593,0,1,0-5.081-5.08Zm0,0" transform="translate(-280.222 -265.805)" fill="#005e91"/><g clip-path="url(#a)"><path d="M326.2,203.184H243.3a7.693,7.693,0,0,0-7.685,7.683v47.97c0,46.86,47.66,61.1,48.142,61.235a3.612,3.612,0,0,0,2.28-.1c1.954-.748,47.851-18.813,47.851-61.137v-47.97A7.694,7.694,0,0,0,326.2,203.184Zm.5,55.653c0,33.925-35.329,50.994-42.118,53.958-7.022-2.355-41.773-15.939-41.773-53.958v-47.97a.5.5,0,0,1,.5-.5h82.9a.5.5,0,0,1,.5.5Zm0,0" transform="translate(-235.572 -203.131)" fill="#005e91"/></g></svg>