<svg xmlns="http://www.w3.org/2000/svg" xmlns:xlink="http://www.w3.org/1999/xlink" width="71.026" height="113.673" viewBox="0 0 71.026 113.673"><defs><clipPath id="a"><path d="M238.938,139.3h71.026V252.974H238.938Zm0,0" transform="translate(-238.938 -139.301)" fill="#005e91"/></clipPath></defs><g clip-path="url(#a)"><path d="M253.859,209.5c-4.264,3.2-7.816,9.953-7.816,15.285v15.817h-1.776a5.346,5.346,0,0,0-5.329,5.333v1.777a5.345,5.345,0,0,0,5.329,5.332h60.395a5.345,5.345,0,0,0,5.329-5.332V245.94a5.346,5.346,0,0,0-5.329-5.333h-1.776V224.79A20.871,20.871,0,0,0,295.07,209.5l-15.276-12.263v-2.133l15.276-12.263a20.87,20.87,0,0,0,7.816-15.285V151.742h1.776a5.345,5.345,0,0,0,5.329-5.332v-1.778a5.346,5.346,0,0,0-5.329-5.332H244.267a5.345,5.345,0,0,0-5.329,5.332v1.778a5.345,5.345,0,0,0,5.329,5.332h1.776v15.818a21.308,21.308,0,0,0,7.638,15.285l15.454,12.263v2.133Zm52.579,36.435v1.777a1.78,1.78,0,0,1-1.776,1.777H244.267a1.781,1.781,0,0,1-1.777-1.777V245.94a1.781,1.781,0,0,1,1.777-1.778h60.395A1.678,1.678,0,0,1,306.438,245.94Zm-14.21-5.333H256.7V226.389a13.042,13.042,0,0,1,4.441-8.887l13.322-10.131L287.787,217.5a13.42,13.42,0,0,1,4.441,8.887ZM271.977,192.8,255.813,180c-3.375-2.487-6.218-8.175-6.218-12.44V151.742h42.632a1.777,1.777,0,0,0,0-3.555H244.267a1.911,1.911,0,0,1-1.777-1.777v-1.778a1.911,1.911,0,0,1,1.777-1.777h60.395a1.78,1.78,0,0,1,1.776,1.777v1.778a1.91,1.91,0,0,1-1.776,1.777H301.11a1.679,1.679,0,0,0-1.776,1.778v17.6a17.868,17.868,0,0,1-6.395,12.618l-15.988,12.8a2.193,2.193,0,0,0-.71,1.421v3.911a1.616,1.616,0,0,0,.71,1.421l16.165,12.8c3.375,2.488,6.395,8.175,6.395,12.441v15.639h-3.552V226.389a16.05,16.05,0,0,0-5.862-11.73L275.707,203.64a1.614,1.614,0,0,0-2.131,0l-14.389,11.019c-3.552,2.311-6.039,7.642-6.039,11.73v14.218H249.6V224.79c0-4.265,2.842-9.953,6.395-12.441l15.987-12.8a2.194,2.194,0,0,0,.711-1.422v-3.911A1.616,1.616,0,0,0,271.977,192.8Zm0,0" transform="translate(-238.938 -139.301)" fill="#005e91"/></g><path d="M340.2,313.087a2.535,2.535,0,0,0,1.066-.355l6.217-4.8a1.777,1.777,0,0,0-2.132-2.844l-5.151,4.088-10.658-8.354h26.29a1.777,1.777,0,0,0,0-3.554H324.216a1.706,1.706,0,0,0-1.6,1.243,1.9,1.9,0,0,0,.533,1.956l15.809,12.264A1.917,1.917,0,0,0,340.2,313.087Zm0,0" transform="translate(-304.677 -263.501)" fill="#005e91"/></svg>