<svg xmlns="http://www.w3.org/2000/svg" xmlns:xlink="http://www.w3.org/1999/xlink" width="148.622" height="106.296" viewBox="0 0 148.622 106.296"><defs><clipPath id="a"><path d="M119,238H267.622v98.129H119Zm0,0" transform="translate(-119 -238)" fill="#005e91"/></clipPath><clipPath id="b"><path d="M157,200.117h28.886V204.4H157Zm0,0" transform="translate(-157 -200.117)" fill="#005e91"/></clipPath><clipPath id="c"><path d="M119,200.117h4.311V204.4H119Zm0,0" transform="translate(-119 -200.117)" fill="#005e91"/></clipPath></defs><g transform="translate(0 8.166)" clip-path="url(#a)"><path d="M252.625,318.661a14.805,14.805,0,0,0-29.272,0h-5.176V260.818h23.41l3.183,5.03H225.608a2.5,2.5,0,0,0-2.477,2.515V291a2.5,2.5,0,0,0,2.477,2.515h36.682l.464.736V308.6h-7.429v5.03h7.429v5.03ZM237.99,331.235a10.061,10.061,0,1,1,9.905-10.06A9.991,9.991,0,0,1,237.99,331.235Zm-84.2-25.149a14.945,14.945,0,0,0-14.637,12.574H124.073v-5.03h12.382V308.6H124.073V243.214h89.152v5.03h-84.2v5.03h84.2V308.6h-42.1v5.03h42.1v5.03h-44.8A14.944,14.944,0,0,0,153.791,306.086Zm0,25.149a10.061,10.061,0,1,1,9.905-10.06A9.99,9.99,0,0,1,153.791,331.235Zm94.1-60.455,11.211,17.7H228.083v-17.6H247.9Zm-2.873-13.833a2.45,2.45,0,0,0-2.08-1.159H218.178V240.7a2.5,2.5,0,0,0-2.477-2.515H121.6a2.5,2.5,0,0,0-2.477,2.515v80.476a2.5,2.5,0,0,0,2.477,2.515h17.557a14.805,14.805,0,0,0,29.272,0h54.927a14.805,14.805,0,0,0,29.272,0h12.6a2.5,2.5,0,0,0,2.477-2.515V293.512a2.483,2.483,0,0,0-.4-1.356l-22.288-35.209" transform="translate(-119.09 -238.135)" fill="#005e91"/></g><g transform="translate(8.191)" clip-path="url(#b)"><path d="M157.258,204.219h28.774v-4.1H157.258v4.1" transform="translate(-157.202 -200.117)" fill="#005e91"/></g><g clip-path="url(#c)"><path d="M123.231,200.117h-4.11v4.1h4.11v-4.1" transform="translate(-119.095 -200.117)" fill="#005e91"/></g></svg>