<svg xmlns="http://www.w3.org/2000/svg" xmlns:xlink="http://www.w3.org/1999/xlink" width="156.256" height="156.256" viewBox="0 0 156.256 156.256"><defs><clipPath id="a"><path d="M96,301H208.345v39.72H96Zm0,0" transform="translate(-96 -301)"/></clipPath><clipPath id="b"><path d="M285,255h75.9v36.442H285Zm0,0" transform="translate(-285 -255)"/></clipPath></defs><path d="M78.128,0a78.128,78.128,0,1,0,78.128,78.128A78.128,78.128,0,0,0,78.128,0" fill="#fff"/><g transform="translate(18.51 58.038)" clip-path="url(#a)"><path d="M128.14,301.883v29.881l47.12.039a11.678,11.678,0,0,0-4.469,9.47l-46.777-.028c-.448-15.872-22.944-15.818-23.433-.091-3.379-.026-3.847-.794-3.88-3.909V325.329c-.042-5.325-.706-1.81,3.23-11.908,4.051-10.764,2.935-9.769,6.6-10.046l21.607-1.491ZM118.78,319.5l.186-12.7-12.029.746c-2.193.148-2.211.161-2.984,2.708l-3.077,8.214c-1.034,2.519-.869,3.262,1.958,2.894L118.78,319.5Zm90.014,12.324.023,6.713-7.768,2.752-6.82,0a11.686,11.686,0,0,0-4.454-9.466l19.019.005Zm0,0" transform="translate(-96.512 -301.713)" fill="#2978af" fill-rule="evenodd"/></g><g transform="translate(54.953 49.168)" clip-path="url(#b)"><path d="M285,255.281h75.9v36.312H285Zm0,0" transform="translate(-285 -255.227)" fill="#2978af"/></g><path d="M148.363,466.068q0-.455-.045-.908a9.325,9.325,0,0,0-.354-1.782c-.087-.29-.19-.575-.306-.856s-.246-.554-.389-.822a8.966,8.966,0,0,0-.467-.78q-.252-.378-.541-.731t-.61-.673q-.322-.322-.674-.611t-.73-.542q-.378-.252-.779-.467t-.822-.39q-.42-.174-.855-.306t-.882-.221q-.445-.088-.9-.134t-.907-.044q-.455,0-.908.044t-.9.134q-.446.089-.881.221c-.291.088-.575.19-.856.306s-.554.246-.821.39-.527.3-.78.467-.5.35-.73.542-.459.4-.673.611-.418.439-.61.673-.373.478-.541.731-.324.512-.467.78-.273.542-.389.822-.218.566-.306.856a9.326,9.326,0,0,0-.354,1.782c-.03.3-.044.6-.044.908s.014.606.044.908a9.3,9.3,0,0,0,.354,1.782q.132.435.306.857t.389.822q.215.4.467.78t.541.731c.192.234.4.46.61.674s.438.419.673.611.478.373.73.542.512.324.78.467.541.273.821.389a9.033,9.033,0,0,0,.856.306q.435.133.881.222a9.262,9.262,0,0,0,3.612,0q.446-.089.882-.222a9.072,9.072,0,0,0,.855-.306q.421-.175.822-.389t.779-.467q.379-.253.73-.542t.674-.611c.214-.214.417-.439.61-.674s.373-.478.541-.731a8.945,8.945,0,0,0,.467-.78q.215-.4.389-.822c.116-.281.218-.566.306-.857a9.091,9.091,0,0,0,.221-.882q.089-.447.133-.9t.045-.908" transform="translate(-104.811 -368.722)" fill="#2978af"/><path d="M512.5,466.068q0-.455-.045-.908t-.133-.9q-.089-.447-.221-.883t-.307-.856q-.174-.42-.388-.822t-.467-.78q-.253-.378-.542-.731t-.61-.673q-.322-.322-.673-.611t-.73-.542q-.377-.252-.779-.467t-.822-.39q-.419-.174-.855-.306t-.881-.221q-.446-.088-.9-.134t-.908-.044q-.455,0-.908.044t-.9.134q-.446.089-.881.221t-.856.306q-.42.175-.821.39t-.78.467q-.377.253-.729.542a9.049,9.049,0,0,0-.673.611q-.322.322-.61.673t-.542.731q-.252.379-.467.78c-.143.267-.272.542-.389.822s-.218.566-.306.856-.161.584-.221.883-.1.6-.133.9-.045.6-.045.908.015.606.045.908.074.6.133.9.133.591.221.882.19.576.306.857.245.554.389.822.3.528.467.78.349.5.542.731a9.286,9.286,0,0,0,1.283,1.284q.351.289.729.542t.78.467q.4.215.821.389t.856.306q.435.133.881.222a9.258,9.258,0,0,0,1.806.178c.3,0,.606-.014.908-.045a9.021,9.021,0,0,0,.9-.133q.446-.089.881-.222a9.009,9.009,0,0,0,.855-.306q.42-.175.822-.389t.779-.467q.378-.253.73-.542t.673-.611a9.03,9.03,0,0,0,.61-.674q.288-.352.542-.731t.467-.78q.213-.4.388-.822t.307-.857q.132-.436.221-.882t.133-.9q.044-.453.045-.908" transform="translate(-398.739 -368.722)" fill="#2978af"/></svg>