<svg xmlns="http://www.w3.org/2000/svg" xmlns:xlink="http://www.w3.org/1999/xlink" width="121.754" height="117.229" viewBox="0 0 121.754 117.229"><defs><clipPath id="a"><path d="M193.258,201H315.012V318.229H193.258Zm0,0" transform="translate(-193.258 -201)" fill="#fff"/></clipPath></defs><g clip-path="url(#a)"><path d="M309.839,290.128H289.364V283.6a8.467,8.467,0,0,1,16.934,0h3.715a12.182,12.182,0,0,0-24.364,0v1.761a50.936,50.936,0,0,0-29.974-20.552,32.809,32.809,0,1,0-23.928.085,51.014,51.014,0,0,0-38.658,49.471H196.8a47.055,47.055,0,0,1,87.63-24.022,5.094,5.094,0,0,0-3.719,4.887V313.4a5.113,5.113,0,0,0,5.11,5.1h24.014a5.114,5.114,0,0,0,5.112-5.1V295.232A5.113,5.113,0,0,0,309.839,290.128ZM243.6,263.409A29.059,29.059,0,1,1,272.7,234.349,29.111,29.111,0,0,1,243.6,263.409Zm67.634,49.985a1.4,1.4,0,0,1-1.4,1.394H285.823a1.4,1.4,0,0,1-1.4-1.394V295.231a1.4,1.4,0,0,1,1.4-1.394h24.014a1.4,1.4,0,0,1,1.4,1.394v18.163Zm0,0" transform="translate(-193.138 -201.415)" fill="#fff"/></g></svg>