<svg xmlns="http://www.w3.org/2000/svg" xmlns:xlink="http://www.w3.org/1999/xlink" width="188" height="188" viewBox="0 0 188 188"><defs><clipPath id="a"><path d="M67,188.16H177.6v88.6H67Zm0,0" fill="#005e91"/></clipPath></defs><g transform="translate(-1324 -1153)"><circle cx="94" cy="94" r="94" transform="translate(1324 1153)" fill="#fff"/><g transform="translate(1295.701 1010.539)" clip-path="url(#a)"><path d="M125.44,271.016l1.447-5.331,15.05-55.439h32.987Zm-2.382.5-16.635-61.272h33.271ZM71.193,210.245h32.986l16.5,60.771ZM159.16,190.9l15.6,17.176h-31.2Zm-36.1,0,15.6,17.176h-31.2Zm-36.1,0,15.6,17.176h-31.2Zm18.051,16.649-15.6-17.175h31.2Zm36.1,0-15.6-17.175h31.2Zm37.163,1.709a.987.987,0,0,0-.077-.518c-.009-.017,0-.035-.009-.043-.017-.026-.043-.044-.06-.069a.81.81,0,0,0-.121-.2l-18.042-19.869c-.009,0-.017-.008-.026-.008a1.083,1.083,0,0,0-.776-.346h-72.2a1.069,1.069,0,0,0-.776.346c-.009,0-.017.008-.026.008L68.112,208.434a.794.794,0,0,0-.121.2c-.017.026-.043.043-.06.069-.009.008,0,.026-.009.043a1.069,1.069,0,0,0-.077.518c0,.034.017.069.017.1a1.049,1.049,0,0,0,.173.406c.017.026.017.052.034.077l54.144,66.484c.043.052.1.1.146.155a1.128,1.128,0,0,0,.311.181h.008a1.128,1.128,0,0,0,.38.069,1.176,1.176,0,0,0,.388-.069.977.977,0,0,0,.3-.181.89.89,0,0,0,.155-.155l54.143-66.484c.017-.026.017-.052.035-.077a1.208,1.208,0,0,0,.173-.406c0-.035.017-.069.017-.1" transform="translate(-0.702 -0.043)" fill="#005e91"/></g></g></svg>