<svg xmlns="http://www.w3.org/2000/svg" width="188" height="188" viewBox="0 0 188 188"><g transform="translate(-1351 -1498)"><circle cx="94" cy="94" r="94" transform="translate(1351 1498)" fill="#fff"/><g transform="translate(1334.65 1353.305)"><path d="M110.35,207.383a67.393,67.393,0,0,0-54.073,26.806,7.457,7.457,0,0,0,0,9.008,67.939,67.939,0,0,0,108.147,0,7.456,7.456,0,0,0,0-9.007A67.392,67.392,0,0,0,110.35,207.383Zm51.736,31.323c-11.536,15.177-32.656,26.962-51.736,26.962S70.247,253.9,58.71,238.706c11.536-15.178,32.56-26.961,51.639-26.961s40.2,11.784,51.736,26.961Zm-1.578,0" fill="#005e91"/><path d="M290.329,271.162c-11.961,0-20.074,7.613-20.074,19.586s8.113,18.818,20.074,18.818,19.382-6.846,19.382-18.818S302.291,271.162,290.329,271.162Zm0,33.879a14.294,14.294,0,1,1,14.281-14.294A14.3,14.3,0,0,1,290.329,305.042Zm0,0" transform="translate(-179.98 -52.053)" fill="#005e91"/></g></g></svg>