<svg xmlns="http://www.w3.org/2000/svg" width="175.838" height="60.123" viewBox="0 0 175.838 60.123"><g transform="translate(0.004 -0.016)"><g transform="translate(-0.004 0.016)"><g transform="translate(65.357 23.807)"><path d="M6493.653,2400.945c8.114-1.9,8.048-5.333,7.969-14.99-.151-18.492,13.934-14.146,17.382-10.521,6.642,6.981-4.793,22.023,10.09,25.512,0-7.539,1.487-17.923-.732-24.574-2.21-6.621-8.117-10.317-14.456-11.091h-5.066c-6.339.774-12.246,4.469-14.456,11.091-2.219,6.651-.731,17.035-.731,24.574Z" transform="translate(-6493.165 -2365.28)" fill="#a9aaae" fill-rule="evenodd"/><path d="M10403.489,2382.527a17.736,17.736,0,0,0,7.824,15.136c5.281,3.41,12.164,3.271,20.758,3.271-1.271-15.369-20.579-1.131-20.579-18.407a10.154,10.154,0,0,1,8.274-10.081c8.245-1.593,10.349,1.272,12.3-7.176h-13.4a16.279,16.279,0,0,0-7.211,2.265C10406.914,2370.385,10403.489,2375.146,10403.489,2382.527Z" transform="translate(-10364.13 -2365.27)" fill="#a9aaae" fill-rule="evenodd"/><path d="M13478.909,2373.313h4.573v19.558c0,6.8,8,10.568,8,4.6v-24.16c6.977,0,11.7.676,13.719-8.053h-35.441c.045,2.056-.871,8.053,9.146,8.053Z" transform="translate(-13399.536 -2365.26)" fill="#a9aaae" fill-rule="evenodd"/><path d="M11539.3,3710.589c0,6.181,14.564,7.713,17.148-3.451C11547.1,3707.138,11539.3,3705.323,11539.3,3710.589Z" transform="translate(-11488.507 -3693.332)" fill="#a9aaae" fill-rule="evenodd"/></g><path d="M782.64,9.875c3.143-1.687,5.214-3.6,9.7-4.274a23.571,23.571,0,0,1,12.218.858c5.961,2.047,12.143,7.849,14,13.959,2.063,6.792,1.295,6.494,1.289,12.3,0,2.109-.472,12.449.436,13.542.86,1.035,14.022,13.38,14.526,13.627q0-15.159,0-30.319c-.031-21.5-23.31-36.289-43.555-26.427-2.076,1.012-7.758,4.7-8.618,6.739h0Z" transform="translate(-774.762 -0.016)" fill="#ef7c35" fill-rule="evenodd"/><path d="M35.24,651.273c-.985-.833-5.082,0-9.7-.928-2.374-.474-4.986-2.442-6.69-4.138a16.073,16.073,0,0,1-3.381-16.48,15.292,15.292,0,0,1,20.829-8.843c2.87,1.387,3.8,2.844,6.033,4.8-.88-5.118-7.592-11.225-13.262-13.12a25.337,25.337,0,0,0-7.538-1.193c-5.432.517-8.525,1.289-12.925,4.607-11.357,8.563-11.684,27.115.269,35.483,6.2,4.341,13.554,5.634,20.683,2.991,1.325-.491,5.008-2.157,5.685-3.174h0Z" transform="translate(0.004 -605.188)" fill="#d3d5d6" fill-rule="evenodd"/><path d="M155.706,3856.543c-.638-.964-4.363-4.256-5.66-5.562l-5.836-5.583c-4.2-3.885-1.928-3-8.2-3.039-2.634-.018-3.029,2.1-7.472,3.947a23.021,23.021,0,0,1-18.791.086,25.5,25.5,0,0,1-9.473-7.655,33.183,33.183,0,0,0-2.253-3.457c.2,3.706,4.717,9.737,7.334,12.354,9.765,9.765,18.3,9.106,30.664,9.106,3.967,0,16.745.225,19.688-.2h0Z" transform="translate(-97.033 -3796.677)" fill="#346c8f" fill-rule="evenodd"/><g transform="translate(66.479 3.302)"><path d="M12754.429,346.759a2.835,2.835,0,0,0,1.858-.543,3.573,3.573,0,0,0,1.405-2.31c.079-1.462-.22-5.018.188-6.229.006-.016.014-.033.02-.048l.039-.1a4.36,4.36,0,0,1,4.276-3.087,4.176,4.176,0,0,1,2.05.45,4.646,4.646,0,0,1,2.409,3.872c-.013,1.69-.222,4.942.3,6.048a3.324,3.324,0,0,0,1.128,1.372c.117.079.246.174.363.244l.474.2a1.752,1.752,0,0,0,1.061.125c.261-.669-.2-7.6.23-9.024a4.461,4.461,0,0,1,8.249-.979,8,8,0,0,1,.621,4.04l.018,3.428a3.515,3.515,0,0,0,1.114,1.79l.222.184.041.027a3.4,3.4,0,0,0,1.341.554.773.773,0,0,0,.526-.019c.166-.427.045-7,.051-8.059a8.37,8.37,0,0,0-.522-2.518l-.323-.689a4.721,4.721,0,0,0-.372-.642,7.635,7.635,0,0,0-1.45-1.658,7.478,7.478,0,0,0-6.11-1.917,8.717,8.717,0,0,0-5.257,2.882,11.594,11.594,0,0,1-1.015-1.012,7.9,7.9,0,0,0-11.771,1.637,7.645,7.645,0,0,0-.967,2.073,5.6,5.6,0,0,0-.25,1.778c0,1.051-.115,7.7.05,8.125Z" transform="translate(-12692.441 -331.182)" fill="#f28134" fill-rule="evenodd"/><path d="M8309.322,341.66q0-2.263,0-4.526a3.919,3.919,0,0,1,.339-1.958c1.813-4.03,8.066-3.734,8.631,1.775a4.722,4.722,0,0,1-1.284,3.274,4.865,4.865,0,0,1-1.258.972l-1.831.466c-1.529.011-3.065,0-4.6,0Zm-3.445,6.958a2.834,2.834,0,0,0,2.014-.554,3.4,3.4,0,0,0,1.364-3.229l4.865,0a8.043,8.043,0,0,0,2.849-.665,7.71,7.71,0,0,0,4.409-4.981,7.783,7.783,0,0,0-4.094-9.141,7.959,7.959,0,0,0-10.886,4.227,10.767,10.767,0,0,0-.521,2.451c-.062,1.264,0,2.7,0,3.986v7.9Z" transform="translate(-8288.726 -329.209)" fill="#387b9c" fill-rule="evenodd"/><path d="M6617.043,341.181c-1.509,0-3.02-.008-4.528,0a4.614,4.614,0,0,1-4.265-3.1,5.465,5.465,0,0,1-.093-2.614l.286-.863a4.508,4.508,0,0,1,.949-1.348,4.372,4.372,0,0,1,3.168-1.3,4.237,4.237,0,0,1,3.184,1.4,4.035,4.035,0,0,1,.953,1.479,5.061,5.061,0,0,1,.348,1.746c-.011,1.53,0,3.064,0,4.6Zm3.336,3.133c.174-.588.045-6.666.044-7.8a7.853,7.853,0,0,0-.71-3.208,9.963,9.963,0,0,0-.737-1.222l-.9-1.058a7.873,7.873,0,0,0-8.778-1.581,5.473,5.473,0,0,0-.626.319,8.644,8.644,0,0,0-3.344,3.614c-.024.058-.032.082-.057.146l-.421,1.335-.228,1.725.319,2.105c.038.12.08.245.114.36a3.451,3.451,0,0,0,.292.722l.321.625c.129.206.278.407.406.607a6.328,6.328,0,0,0,.906,1.053,7.873,7.873,0,0,0,3.764,2.113c1.246.345,9.259.254,9.638.142Z" transform="translate(-6604.62 -328.73)" fill="#387b9c" fill-rule="evenodd"/><path d="M11089.9,338.309a2.916,2.916,0,0,1-.27,1.334,4.691,4.691,0,0,1-1.864,2.189l-.777.371a6.241,6.241,0,0,1-.931.218,2.685,2.685,0,0,1-1.073.043l-1.271-.349a1.153,1.153,0,0,1-.409-.2,5.344,5.344,0,0,1-1.253-1.044,4.7,4.7,0,0,1-.866-4.4,4.455,4.455,0,0,1,3.722-3.169,4.361,4.361,0,0,1,3.676,1.244,4.73,4.73,0,0,1,.768.989,4.139,4.139,0,0,1,.55,2.778Zm-5.069-8.184a6.121,6.121,0,0,0-3.061.847,7.894,7.894,0,0,0-4.155,7.58,7.644,7.644,0,0,0,.915,3,8.192,8.192,0,0,0,4.209,3.628l1.093.325a7.122,7.122,0,0,0,2.733.055,6.917,6.917,0,0,0,1.926-.506,4.58,4.58,0,0,0,1.028-.525l.258-.148a8.22,8.22,0,0,0,2.769-3.108,5.963,5.963,0,0,0,.675-2.3c.028-.283.118-.5.127-.818a8.2,8.2,0,0,0-.372-2.605l-.58-1.379a7.649,7.649,0,0,0-1.619-2.028,7.731,7.731,0,0,0-5-2.1l-.74,0C11084.813,330.089,11084.83,330.124,11084.826,330.125Z" transform="translate(-11032.551 -330.03)" fill="#387b9c" fill-rule="evenodd"/><path d="M15684.294,345.694l5.185-.016a6.381,6.381,0,0,0,4.5-2.861,3.535,3.535,0,0,0,.371-.642,5.285,5.285,0,0,0,.548-2.627,12.687,12.687,0,0,1,.242-3.946,3.644,3.644,0,0,1,2.095-2.094c1.182-.41,2.4.05,3.538-.65a3.039,3.039,0,0,0,1.488-2.767q-2.095,0-4.188,0a6.257,6.257,0,0,0-5.527,2.849c-1.756,2.69-.418,5.206-1.159,7.217a3.6,3.6,0,0,1-1.364,1.743c-1.726,1.154-2.687.121-4.239,1.03A2.982,2.982,0,0,0,15684.294,345.694Z" transform="translate(-15592.903 -330.068)" fill="#f28134" fill-rule="evenodd"/><path d="M10069.314,343.609a2.206,2.206,0,0,0,1.215-.188,3.258,3.258,0,0,0,1.192-.834,3.44,3.44,0,0,0,.93-2.583c-.007-1.171,0-2.343,0-3.514a5.03,5.03,0,0,1,.567-2.945c1.12-1.842,2.567-2.327,4.7-2.324,1.268,0,1.821.075,2.759-.753.827-.731,1.27-2.083,1.014-2.339a22.683,22.683,0,0,0-3.436-.083c-3.446,0-4.974.415-7.413,3.124a7.518,7.518,0,0,0-1.22,2.293,9.846,9.846,0,0,0-.351,3.162C10069.273,337.668,10069.148,343.048,10069.314,343.609Z" transform="translate(-10034.355 -328.025)" fill="#387b9c" fill-rule="evenodd"/></g></g></g></svg>