<svg xmlns="http://www.w3.org/2000/svg" width="245.476" height="52.771" viewBox="0 0 245.476 52.771"><g transform="translate(65.957 41.1)"><path d="M12161.82,2850.942l1.221.1.132-5.263a14.252,14.252,0,0,0,.777,3.686c1.01.214,1.042-.174,1.2-1.185l.517-2.107a30.625,30.625,0,0,0,.084,4.77l1.227.1v-9.462h-1.444a24.185,24.185,0,0,0-.531,2.484c-.085.662-.517,2-.519,2.634h-.261a2.757,2.757,0,0,0-.194-1.248c-.09-.346-.173-.885-.271-1.305a10.519,10.519,0,0,0-.616-2.534c-1.772-.189-1.413-.448-1.413,3.906A37.58,37.58,0,0,0,12161.82,2850.942Z" transform="translate(-12042.901 -2839.469)" fill="#fff" fill-rule="evenodd"/><path d="M4342.365,2854.428a1.9,1.9,0,0,0,1.261,0,7.671,7.671,0,0,0,.036-2.74,8.049,8.049,0,0,1-.085-1.375c0-.6-.093-.857.4-1.042a11.582,11.582,0,0,0,.621,2.4c.564,2.164.121,1.976.384,2.765l1.226.1c.138-.589,0-8.531,0-9.462l-1.229.03c-.293.941,0,2.956-.118,4.027-.288-.578-.469-1.766-.721-2.515-.467-1.385-.06-1.542-1.739-1.542a36.39,36.39,0,0,0-.132,4.593A27.96,27.96,0,0,0,4342.365,2854.428Z" transform="translate(-4342.218 -2842.955)" fill="#fff" fill-rule="evenodd"/><path d="M9105.21,2850.523v-7.1l1.229.031a42.242,42.242,0,0,1-.013,6.97l-1.216.095Zm-1.358.956a14.064,14.064,0,0,0,3.19.08c1.126-.161.793-1.727.793-2.62,0-1.25.292-5.6-.433-6.392-.585-.639-2.029-.456-2.863-.447-1.057.011-.772.179-.772,2.64A65.678,65.678,0,0,0,9103.852,2851.479Z" transform="translate(-9031.398 -2840)" fill="#fff" fill-rule="evenodd"/><path d="M8482.662,2845.976l1.2-.095a15.4,15.4,0,0,1-.062,3.6,1.648,1.648,0,0,1-1.14,0A11.234,11.234,0,0,1,8482.662,2845.976Zm-1.314,7.965,1.2.094a19.433,19.433,0,0,1,.108-3.2l1.228-.1a14.863,14.863,0,0,0,.086,3.208,1.871,1.871,0,0,0,1.357-.045c0-1.245.124-7.453-.134-8.4-.276-1.011-1.032-.926-1.968-.927-.837,0-1.491.041-1.847.914-.292.72-.138,8.136-.035,8.457Z" transform="translate(-8418.343 -2842.463)" fill="#fff" fill-rule="evenodd"/><path d="M11527.022,2849.637h-1.443v-7.087h1.443a53.154,53.154,0,0,1,.132,5.382C11527.159,2848.645,11527.045,2849.038,11527.022,2849.637Zm-1.98-8.251c-.888.363-.916.762-.907,2.475.006,1-.155,5.977.292,6.535.345.432,2.635.388,3.23.268.64-.127.624-.48.693-1.012.168-1.318.343-7.283-.274-8.024-.433-.52-1.918-.5-2.624-.382C11524.916,2841.332,11525.279,2841.289,11525.042,2841.386Z" transform="translate(-11415.021 -2839.122)" fill="#fff" fill-rule="evenodd"/><path d="M14040.049,2849.85c-2,0-1.574.117-1.574-3.543a16.253,16.253,0,0,1,.086-3.457l1.488-.1,0,5.4c.011.35.078.582.092.812C14040.162,2849.391,14040.06,2849.342,14040.049,2849.85Zm-2.128-8.268c-.943.613-.76,1.58-.76,2.625,0,1.137,0,2.275,0,3.412,0,.849-.227,2.471.371,3.042.376.358,2.7.357,3.257.191.9-.268.7-1.925.7-2.708,0-1.16.276-5.679-.458-6.366a4.553,4.553,0,0,0-3.114-.2Z" transform="translate(-13889.856 -2839.336)" fill="#fff" fill-rule="evenodd"/><path d="M9728.435,2849.737l-1.228-.031a10.158,10.158,0,0,1,.047-3.644h1.181A21.493,21.493,0,0,1,9728.435,2849.737Zm-2.539,4.377,1.2.094a19.431,19.431,0,0,1,.109-3.2l1.227-.1a21.188,21.188,0,0,1,.154,3.271l1.206-.006a60.048,60.048,0,0,0-.046-8.372c-.18-1.1-.84-1.053-1.84-1.052-.893,0-1.738-.01-1.958.933A57.608,57.608,0,0,0,9725.9,2854.113Z" transform="translate(-9643.993 -2842.634)" fill="#fff" fill-rule="evenodd"/><path d="M4968.863,2846.042h1.181a8.029,8.029,0,0,1,.132,2.1c.006.85.288,1.559-.659,1.6-1.046.04-.795-.607-.787-1.463.01-.9.06-1.415.133-2.232Zm-1.443,8.136,1.29,0a16.765,16.765,0,0,1,.109-3.191l1.357-.1,0,3.271,1.226-.006a44.928,44.928,0,0,0,.084-5.615,10.747,10.747,0,0,0-.084-2.8c-.352-1.051-.9-1.01-1.884-1.007-2.368.005-2.1.778-2.1,3.679Z" transform="translate(-4957.915 -2842.614)" fill="#fff" fill-rule="evenodd"/><path d="M7867.882,2837.427h1.312l0,3.127c-.859.376-1.33.625-1.324-.621C7867.873,2839.1,7867.882,2838.263,7867.882,2837.427Zm-1.312,8.005a2.3,2.3,0,0,0,1.289.108l.025-3.629.654-.026c.35.765.584,3.139.953,3.645l1.147.037a8.224,8.224,0,0,0-.229-1.218c-.951-3.242-.234-2.246.067-3.41.317-1.223.563-4.6-1.027-4.817-3.653-.492-2.878.186-2.878,3.141v6.168Z" transform="translate(-7812.968 -2833.999)" fill="#fff" fill-rule="evenodd"/><path d="M6715.732,2848.953l-.8.091-.333-1.028-1.061.005c-.971,3.173,3.191,1.94,3.2,1.937.607-.447.526-1.506.525-2.231,0-.875.191-1.77-.607-2.281-2.463-1.578-1.888-.281-1.888-3.493l.967.036c.308.675.184.57.236,1.254.587.107.708.258,1.257-.142.427-3.629-3.237-2.408-3.57-2-.388.479-.427,3.022-.169,3.833.146.456.781.732,1.226,1.005.476.292,1.079.384,1.211,1.02a3.291,3.291,0,0,1-.194,1.99Z" transform="translate(-6677.309 -2838.526)" fill="#fff" fill-rule="evenodd"/><path d="M13422.3,2841.649c.028,1.144.854,5.33.989,6.946l.471,2.285,1.458.087a7.506,7.506,0,0,0,.5-2.158l.341-2.415a46.885,46.885,0,0,0,.636-4.878h-1.182c-.144.589-.124,1.025-.225,1.614-.093.554-.153,1.074-.229,1.608a9.777,9.777,0,0,1-.221,1.616c-.184.658.021,1.274-.279,1.689a46.1,46.1,0,0,1-.88-5.748c-.044-.892-.64-1-1.381-.647Z" transform="translate(-13284.376 -2839.4)" fill="#fff" fill-rule="evenodd"/><path d="M10920.916,2848.323l-1.06-.091-.3,1.036-.959-.015a42.955,42.955,0,0,1,.011-6.957c1.3-.506,1.06.422,1.1,1.334l1.2-.016a2.888,2.888,0,0,0-.281-2.351c-.471-.527-1.652-.482-2.37-.361-1.637.276-1.192,2.914-1.192,4.317,0,1.118-.315,4.487.516,5,.221.134,4.289.966,3.335-1.891Z" transform="translate(-10817.139 -2838.773)" fill="#fff" fill-rule="evenodd"/><path d="M14678.954,2846.262l-.105.942c-1.49.115-1.16.154-1.16-3.521,0-.79,0-1.579-.007-2.368-.014-1.218-.035-1.246,1.165-1.152l.052,1.337,1.26.093c.109-.625.216-1.875-.235-2.374-.221-.242-3.659-1.571-3.59,1.556.02.96.041,1.928.041,2.91,0,1.007-.011,2.018-.007,3.025.007,1.263.184,1.587,1.445,1.575.938-.008,2.075.281,2.335-.7.284-1.076.133-1.764-1.193-1.321Z" transform="translate(-14519.36 -2836.711)" fill="#fff" fill-rule="evenodd"/><path d="M15278.524,2851.011a10.593,10.593,0,0,0,3.118,0l.059-.888-1.915-.094a13.032,13.032,0,0,1,.051-3.056l1.6-.1,0-1.087-1.6-.115-.084-2.691c1.077-.115,2.391.4,1.892-1.261a9.138,9.138,0,0,0-3-.014c-.491.3-.2,2.354-.2,2.952A61.889,61.889,0,0,0,15278.524,2851.011Z" transform="translate(-15112.24 -2839.528)" fill="#fff" fill-rule="evenodd"/><path d="M6168.95,2852.884l3.059-.044a.987.987,0,0,0,0-.91l-1.727-.1.03-3.055,1.516-.095.013-1.163-1.481-.054a14.064,14.064,0,0,1-.088-2.7l1.742-.054a1.608,1.608,0,0,0,0-1.177,15.834,15.834,0,0,0-3.05-.1Z" transform="translate(-6141.202 -2841.32)" fill="#fff" fill-rule="evenodd"/><path d="M7289.551,2843.65c.124,1.586-.211,7.05.108,8.029a2.065,2.065,0,0,0,1.273,0c.319-.979-.016-6.443.107-8.029.884-.069,1.481,0,1.074-1.25a15.648,15.648,0,0,0-3.081-.1c-.6.029-.826.213-.629.9C7288.57,2843.785,7289.03,2843.61,7289.551,2843.65Z" transform="translate(-7243.584 -2840.2)" fill="#fff" fill-rule="evenodd"/><path d="M15298.307,2707.323c1.246.183.665-.073,1.4-.547.327.229.563,1.05,1.365.469-.07-.256-.739-1.582-1.674-1.41C15299.188,2705.874,15298.266,2706.918,15298.307,2707.323Z" transform="translate(-15131.887 -2705.819)" fill="#fff" fill-rule="evenodd"/></g><g transform="translate(0.919 3.552)"><path d="M5711.132,260.756c-.194-.63-.076-6.643-.073-7.813.019-7.477,8.785-10.687,13.294-5.8,5.257,5.7.959,13.737-5.28,13.683C5717.813,260.813,5711.829,260.971,5711.132,260.756Zm6.888-21.193c-2.31.261-3.215.106-5.875,1.606a15.932,15.932,0,0,0-4.061,3.55c-3.064,3.44-2.793,8.148-2.793,12.43v11.286c0,3.772-.833,5.5,2.6,3.912a5.473,5.473,0,0,0,3.052-4.564c-.066-2.061.472-1.417,2.363-1.443,4.591-.062,8.86.492,12.9-2.19a13.222,13.222,0,0,0,6.111-9.112c1.626-8.294-5.916-16.421-14.295-15.476Z" transform="translate(-5619.461 -239.401)" fill="#fff" fill-rule="evenodd"/><path d="M3782.329,260.473c-.682.211-6.578.06-7.807.067-6.32.033-10.786-7.584-5.432-13.7,4.246-4.85,13.359-1.641,13.307,5.694-.009,1.254.147,7.245-.068,7.939Zm-8.595-21.194c-2.26.242-2.708,0-5.357,1.336a13.327,13.327,0,0,0-7.275,12.867,11.593,11.593,0,0,0,1.406,5.291c2.633,4.9,7.528,7.283,13.065,7.276l10.1,0c1.186-.008,2.508.476,2.516-.9.026-4.34.162-9.254-.022-13.541a13.771,13.771,0,0,0-8.643-11.568,11.756,11.756,0,0,0-5.794-.767Z" transform="translate(-3704.834 -239.119)" fill="#fff" fill-rule="evenodd"/><path d="M8895.067,253.042c-.76-5.2,6.355-12.239,13.084-6.653a9.3,9.3,0,0,1,1.705,2.232c3.035,5.733-1.648,11.746-6.25,11.779-4.818.035-7.858-2.7-8.539-7.358Zm6.956-13.911a11.154,11.154,0,0,0-5.341,1.352,13.422,13.422,0,0,0,1.4,24.5,15.291,15.291,0,0,0,5.822.832c1.012-.21,1.728-.22,2.779-.5a13.027,13.027,0,0,0,2.459-.952,14.08,14.08,0,0,0,6.438-6.947,13.355,13.355,0,0,0-3.62-14.974,12.291,12.291,0,0,0-9.941-3.313Z" transform="translate(-8755.3 -238.97)" fill="#fff" fill-rule="evenodd"/><path d="M60.54,2223c1.835,8.189,11.1,16.188,19.222,17.787,5.787,1.139,11.9.717,17.787.717q4.659,0,9.319,0c5.551.01,5.541,1.222-3.187-7.182-1.531-1.474-3.363-2.989-4.765-4.554-.848-.947-2.731-.6-3.982-.595-2.165.005-1.973-.409-3.644.953a21.1,21.1,0,0,1-6.151,3.167,20.231,20.231,0,0,1-22.783-7.649A13.857,13.857,0,0,0,60.54,2223Z" transform="translate(-60.54 -2192.786)" fill="#fff" fill-rule="evenodd"/><path d="M7726.927,260.807a5.96,5.96,0,0,0,5.644-6.43c-.009-2.012,0-4.025,0-6.037,0-2.161-.078-3.1.982-5.055a9.6,9.6,0,0,1,3.018-3.018c4-2.17,8.927.812,11.183-3.909.239-.5.787-2.089.339-2.36a56.02,56.02,0,0,0-5.941-.093,20.4,20.4,0,0,0-5.542.5,13.518,13.518,0,0,0-7.135,4.939c-2.329,3.382-2.677,5.26-2.677,9.4,0,2.207-.278,10.555.131,12.074Z" transform="translate(-7610.257 -233.874)" fill="#fff" fill-rule="evenodd"/></g><g transform="translate(6.956)"><path d="M457.97,8.443c1.285-.574,2.465-1.588,3.838-2.2,4.657-2.073,10.516-2.584,15.249-.746a20.335,20.335,0,0,1,12.31,12.1c1.472,4,1.281,6.627,1.281,10.793,0,1.494-.271,11.288.311,11.894,1.946,2.023,4.256,3.926,6.27,5.935.906.9,5.634,5.579,6.411,5.794,0-8.825-.087-17.693,0-26.511.1-10.3-6.9-19.313-16.255-23.509A26.458,26.458,0,0,0,476.116.077a30.665,30.665,0,0,0-5.767.8,26.891,26.891,0,0,0-4.85,1.843c-1.7.817-6.7,4.181-7.529,5.726Z" transform="translate(-457.97 -0.006)" fill="#fff" fill-rule="evenodd"/><path d="M12108.568,245.532a1.569,1.569,0,0,1,.255,1.071l-1.773,1.413a9.445,9.445,0,0,1-1.708,1.607c-.315-.3-.279-.366-.771-.547.579,1.449,1.63,2.012,1.712,4.851.06,2.1,0,4.319,0,6.435,0,2.136-.041,3.579,1.277,5.152a7.051,7.051,0,0,0,1.779,1.5,6.411,6.411,0,0,0,2.5.609c.513-1.771-.455-12.674.473-15.67a7.793,7.793,0,0,1,14.334-1.717c2.987,5.254-1.705,12.881,3.7,16.507a5.52,5.52,0,0,0,3.019.885c.285-1.01.134-12.093.087-13.965a13.7,13.7,0,0,0-4.586-9.457c-3.425-2.9-6.079-3.52-10.516-3.272a12.6,12.6,0,0,0-7.316,3.183c-.557.484-1.409,1.487-1.8,1.776l-.657-.361Z" transform="translate(-11927.663 -237.226)" fill="#fff" fill-rule="evenodd"/><path d="M14169.5,257.617c3.736,0,9.649.567,12.832-1.341,7.817-4.685,4.437-10.989,5.716-15.676a6.811,6.811,0,0,1,3.314-3.905c2.69-1.291,5.569.494,8.05-2.58.526-.652.272-2.525.272-3.4-3.927,0-9.337-.626-12.655,1.651-3.512,2.412-4.7,5.215-4.931,9.373-.126,2.265.482,4.232-.338,6.487a6.374,6.374,0,0,1-3.674,3.543c-2.205.777-3.914-.238-6.071,1.149a5.121,5.121,0,0,0-2.516,4.7Z" transform="translate(-13961.227 -227.132)" fill="#fff" fill-rule="evenodd"/></g><path d="M.15,382.287c.432-.759.015-2.928.219-3.749a3.308,3.308,0,0,0,.2-1.129c1.223.526.517.11,1.325.357l2.044.447c.788.13.069.08.7.216a23.661,23.661,0,0,1,3.349.589c.2.065.166.044.415.109.213.056.166.042.307.088a8.714,8.714,0,0,0,1.924.305c.785.147.07.094.693.226a4.821,4.821,0,0,0,.9.026c.089.836.254-.045.294.9.046,1.1-.134,3.129.357,3.47a24.851,24.851,0,0,1,.037-5.112,14.637,14.637,0,0,1,6.734-9.408c3.39-2.249,9.007-2.105,12.917-.08.919.476,2.557,2.017,3.41,2.1-.177-1.332-2.315-4.091-3.314-5.085a19.768,19.768,0,0,0-4.864-3.666,21.256,21.256,0,0,0-14.32-1.017A19.2,19.2,0,0,0,.872,374.724a19.992,19.992,0,0,0-.853,5.446c0,.791.122,1.413.132,2.117Z" transform="translate(-0.018 -355.591)" fill="#fff" fill-rule="evenodd"/><path d="M8.68,1441.238a20.7,20.7,0,0,0,1.253,5.161,19.649,19.649,0,0,0,9.219,10.073,19.317,19.317,0,0,0,15.853.706,12.648,12.648,0,0,0,4.074-2.488,11.9,11.9,0,0,0-3.364-.214,14.088,14.088,0,0,1-8.606-2.417,13.107,13.107,0,0,1-3.608-3.741,12.289,12.289,0,0,1-1.762-3.75,13.3,13.3,0,0,1-.328-1.479c-.491-.341-.31-2.371-.357-3.47-.04-.943-.2-.061-.294-.9a4.827,4.827,0,0,1-.9-.026c-.623-.132.092-.079-.693-.226a8.707,8.707,0,0,1-1.924-.306c-.141-.045-.094-.032-.307-.087-.249-.065-.211-.044-.415-.109a23.611,23.611,0,0,0-3.349-.589c-.634-.136.084-.086-.7-.216l-2.044-.447c-.807-.247-.1.169-1.325-.357a3.3,3.3,0,0,1-.2,1.129c-.2.821.213,2.991-.219,3.749Z" transform="translate(-8.548 -1414.542)" fill="#fff" fill-rule="evenodd"/><path d="M10825.75,244.626c.489.181.456.248.771.547a9.465,9.465,0,0,0,1.709-1.607l1.772-1.413a1.564,1.564,0,0,0-.256-1.071c-.058-.841-2.84-2.676-3.645-3.107a13.948,13.948,0,0,0-11.4-.719c-4.885,1.9-8.677,6.923-8.644,12.224.013,2-.155,12.752.134,13.782a6.556,6.556,0,0,0,3.873-1.638c3.653-3.669.534-9.43,2.128-14.408a7.888,7.888,0,0,1,10.456-4.872C10824.283,242.962,10824.744,244.065,10825.75,244.626Z" transform="translate(-10641.885 -232.776)" fill="#fff" fill-rule="evenodd"/></svg>